<?xml version="1.0" encoding="UTF-8" standalone="no"?>
<!DOCTYPE svg PUBLIC "-//W3C//DTD SVG 1.1//EN"
 "http://www.w3.org/Graphics/SVG/1.1/DTD/svg11.dtd">
<!-- Generated by graphviz version 2.38.0 (20140413.2041)
 -->
<!-- Title: controllers_diagram Pages: 1 -->
<svg width="1148pt" height="1022pt"
 viewBox="0.00 0.00 1148.00 1021.50" xmlns="http://www.w3.org/2000/svg" xmlns:xlink="http://www.w3.org/1999/xlink">
<g id="graph0" class="graph" transform="scale(1 1) rotate(0) translate(514 541.5)">
<title>controllers_diagram</title>
<polygon fill="white" stroke="none" points="-514,480 -514,-541.5 634,-541.5 634,480 -514,480"/>
<!-- _diagram_info -->
<g id="node1" class="node"><title>_diagram_info</title>
<text text-anchor="start" x="-349" y="293.4" font-family="Times,serif" font-size="13.00">Controllers diagram</text>
<text text-anchor="start" x="-349" y="307.4" font-family="Times,serif" font-size="13.00">Date: May 26 2015 &#45; 08:38</text>
<text text-anchor="start" x="-349" y="321.4" font-family="Times,serif" font-size="13.00">Migration version: 20150524210906</text>
<text text-anchor="start" x="-349" y="335.4" font-family="Times,serif" font-size="13.00">Generated by RailRoady 1.3.0</text>
<text text-anchor="start" x="-349" y="349.4" font-family="Times,serif" font-size="13.00">http://railroady.prestonlee.com</text>
</g>
<!-- MapsController -->
<g id="node2" class="node"><title>MapsController</title>
<path fill="none" stroke="black" d="M266.5,-256C266.5,-256 445.5,-256 445.5,-256 451.5,-256 457.5,-262 457.5,-268 457.5,-268 457.5,-382 457.5,-382 457.5,-388 451.5,-394 445.5,-394 445.5,-394 266.5,-394 266.5,-394 260.5,-394 254.5,-388 254.5,-382 254.5,-382 254.5,-268 254.5,-268 254.5,-262 260.5,-256 266.5,-256"/>
<text text-anchor="middle" x="356" y="-378.8" font-family="Times,serif" font-size="14.00">MapsController</text>
<polyline fill="none" stroke="black" points="254.5,-371 457.5,-371 "/>
<text text-anchor="start" x="262.5" y="-355.8" font-family="Times,serif" font-size="14.00">get_all_deposits</text>
<text text-anchor="start" x="262.5" y="-340.8" font-family="Times,serif" font-size="14.00">get_all_processing_infrastructures</text>
<text text-anchor="start" x="262.5" y="-325.8" font-family="Times,serif" font-size="14.00">get_all_social_projects</text>
<text text-anchor="start" x="262.5" y="-310.8" font-family="Times,serif" font-size="14.00">show</text>
<polyline fill="none" stroke="black" points="254.5,-303 457.5,-303 "/>
<polyline fill="none" stroke="black" points="254.5,-279 457.5,-279 "/>
<text text-anchor="start" x="262.5" y="-263.8" font-family="Times,serif" font-size="14.00">_layout</text>
</g>
<!-- Admin::CategoriesController -->
<g id="node3" class="node"><title>Admin::CategoriesController</title>
<path fill="none" stroke="black" d="M-362,-171C-362,-171 -210,-171 -210,-171 -204,-171 -198,-177 -198,-183 -198,-183 -198,-267 -198,-267 -198,-273 -204,-279 -210,-279 -210,-279 -362,-279 -362,-279 -368,-279 -374,-273 -374,-267 -374,-267 -374,-183 -374,-183 -374,-177 -368,-171 -362,-171"/>
<text text-anchor="middle" x="-286" y="-263.8" font-family="Times,serif" font-size="14.00">Admin::CategoriesController</text>
<polyline fill="none" stroke="black" points="-374,-256 -198,-256 "/>
<polyline fill="none" stroke="black" points="-374,-232 -198,-232 "/>
<text text-anchor="start" x="-366" y="-216.8" font-family="Times,serif" font-size="14.00">after_create_save</text>
<text text-anchor="start" x="-366" y="-201.8" font-family="Times,serif" font-size="14.00">beginning_of_chain</text>
<polyline fill="none" stroke="black" points="-374,-194 -198,-194 "/>
<text text-anchor="start" x="-366" y="-178.8" font-family="Times,serif" font-size="14.00">_layout</text>
</g>
<!-- Admin::AttachmentsController -->
<g id="node4" class="node"><title>Admin::AttachmentsController</title>
<path fill="none" stroke="black" d="M453.5,203C453.5,203 616.5,203 616.5,203 622.5,203 628.5,197 628.5,191 628.5,191 628.5,121 628.5,121 628.5,115 622.5,109 616.5,109 616.5,109 453.5,109 453.5,109 447.5,109 441.5,115 441.5,121 441.5,121 441.5,191 441.5,191 441.5,197 447.5,203 453.5,203"/>
<text text-anchor="middle" x="535" y="124.2" font-family="Times,serif" font-size="14.00">Admin::AttachmentsController</text>
<polyline fill="none" stroke="black" points="441.5,132 628.5,132 "/>
<polyline fill="none" stroke="black" points="441.5,156 628.5,156 "/>
<polyline fill="none" stroke="black" points="441.5,180 628.5,180 "/>
<text text-anchor="start" x="449.5" y="195.2" font-family="Times,serif" font-size="14.00">_layout</text>
</g>
<!-- Admin::SourcesController -->
<g id="node5" class="node"><title>Admin::SourcesController</title>
<path fill="none" stroke="black" d="M-412.5,237C-412.5,237 -275.5,237 -275.5,237 -269.5,237 -263.5,231 -263.5,225 -263.5,225 -263.5,155 -263.5,155 -263.5,149 -269.5,143 -275.5,143 -275.5,143 -412.5,143 -412.5,143 -418.5,143 -424.5,149 -424.5,155 -424.5,155 -424.5,225 -424.5,225 -424.5,231 -418.5,237 -412.5,237"/>
<text text-anchor="middle" x="-344" y="158.2" font-family="Times,serif" font-size="14.00">Admin::SourcesController</text>
<polyline fill="none" stroke="black" points="-424.5,166 -263.5,166 "/>
<polyline fill="none" stroke="black" points="-424.5,190 -263.5,190 "/>
<polyline fill="none" stroke="black" points="-424.5,214 -263.5,214 "/>
<text text-anchor="start" x="-416.5" y="229.2" font-family="Times,serif" font-size="14.00">_layout</text>
</g>
<!-- Admin::ShareholdersController -->
<g id="node6" class="node"><title>Admin::ShareholdersController</title>
<path fill="none" stroke="black" d="M454,67C454,67 618,67 618,67 624,67 630,61 630,55 630,55 630,-15 630,-15 630,-21 624,-27 618,-27 618,-27 454,-27 454,-27 448,-27 442,-21 442,-15 442,-15 442,55 442,55 442,61 448,67 454,67"/>
<text text-anchor="middle" x="536" y="-11.8" font-family="Times,serif" font-size="14.00">Admin::ShareholdersController</text>
<polyline fill="none" stroke="black" points="442,-4 630,-4 "/>
<polyline fill="none" stroke="black" points="442,20 630,20 "/>
<polyline fill="none" stroke="black" points="442,44 630,44 "/>
<text text-anchor="start" x="450" y="59.2" font-family="Times,serif" font-size="14.00">_layout</text>
</g>
<!-- Admin::DrcCompaniesController -->
<g id="node7" class="node"><title>Admin::DrcCompaniesController</title>
<path fill="none" stroke="black" d="M12,424C12,424 188,424 188,424 194,424 200,418 200,412 200,412 200,342 200,342 200,336 194,330 188,330 188,330 12,330 12,330 6,330 0,336 0,342 0,342 0,412 0,412 0,418 6,424 12,424"/>
<text text-anchor="middle" x="100" y="345.2" font-family="Times,serif" font-size="14.00">Admin::DrcCompaniesController</text>
<polyline fill="none" stroke="black" points="0,353 200,353 "/>
<polyline fill="none" stroke="black" points="0,377 200,377 "/>
<polyline fill="none" stroke="black" points="0,401 200,401 "/>
<text text-anchor="start" x="8" y="416.2" font-family="Times,serif" font-size="14.00">_layout</text>
</g>
<!-- Admin::ProcessingInfrastructuresController -->
<g id="node8" class="node"><title>Admin::ProcessingInfrastructuresController</title>
<path fill="none" stroke="black" d="M-225.5,237C-225.5,237 5.5,237 5.5,237 11.5,237 17.5,231 17.5,225 17.5,225 17.5,155 17.5,155 17.5,149 11.5,143 5.5,143 5.5,143 -225.5,143 -225.5,143 -231.5,143 -237.5,149 -237.5,155 -237.5,155 -237.5,225 -237.5,225 -237.5,231 -231.5,237 -225.5,237"/>
<text text-anchor="middle" x="-110" y="158.2" font-family="Times,serif" font-size="14.00">Admin::ProcessingInfrastructuresController</text>
<polyline fill="none" stroke="black" points="-237.5,166 17.5,166 "/>
<polyline fill="none" stroke="black" points="-237.5,190 17.5,190 "/>
<polyline fill="none" stroke="black" points="-237.5,214 17.5,214 "/>
<text text-anchor="start" x="-229.5" y="229.2" font-family="Times,serif" font-size="14.00">_layout</text>
</g>
<!-- Admin::DepositResourcesController -->
<g id="node9" class="node"><title>Admin::DepositResourcesController</title>
<path fill="none" stroke="black" d="M-276.5,-307C-276.5,-307 -85.5,-307 -85.5,-307 -79.5,-307 -73.5,-313 -73.5,-319 -73.5,-319 -73.5,-389 -73.5,-389 -73.5,-395 -79.5,-401 -85.5,-401 -85.5,-401 -276.5,-401 -276.5,-401 -282.5,-401 -288.5,-395 -288.5,-389 -288.5,-389 -288.5,-319 -288.5,-319 -288.5,-313 -282.5,-307 -276.5,-307"/>
<text text-anchor="middle" x="-181" y="-385.8" font-family="Times,serif" font-size="14.00">Admin::DepositResourcesController</text>
<polyline fill="none" stroke="black" points="-288.5,-378 -73.5,-378 "/>
<polyline fill="none" stroke="black" points="-288.5,-354 -73.5,-354 "/>
<polyline fill="none" stroke="black" points="-288.5,-330 -73.5,-330 "/>
<text text-anchor="start" x="-280.5" y="-314.8" font-family="Times,serif" font-size="14.00">_layout</text>
</g>
<!-- Admin::DepositsController -->
<g id="node10" class="node"><title>Admin::DepositsController</title>
<path fill="none" stroke="black" d="M12.5,-443C12.5,-443 153.5,-443 153.5,-443 159.5,-443 165.5,-449 165.5,-455 165.5,-455 165.5,-525 165.5,-525 165.5,-531 159.5,-537 153.5,-537 153.5,-537 12.5,-537 12.5,-537 6.5,-537 0.5,-531 0.5,-525 0.5,-525 0.5,-455 0.5,-455 0.5,-449 6.5,-443 12.5,-443"/>
<text text-anchor="middle" x="83" y="-521.8" font-family="Times,serif" font-size="14.00">Admin::DepositsController</text>
<polyline fill="none" stroke="black" points="0.5,-514 165.5,-514 "/>
<polyline fill="none" stroke="black" points="0.5,-490 165.5,-490 "/>
<polyline fill="none" stroke="black" points="0.5,-466 165.5,-466 "/>
<text text-anchor="start" x="8.5" y="-450.8" font-family="Times,serif" font-size="14.00">_layout</text>
</g>
<!-- Admin::ShareholderIntermediariesController -->
<g id="node11" class="node"><title>Admin::ShareholderIntermediariesController</title>
<path fill="none" stroke="black" d="M165,152C165,152 403,152 403,152 409,152 415,146 415,140 415,140 415,70 415,70 415,64 409,58 403,58 403,58 165,58 165,58 159,58 153,64 153,70 153,70 153,140 153,140 153,146 159,152 165,152"/>
<text text-anchor="middle" x="284" y="73.2" font-family="Times,serif" font-size="14.00">Admin::ShareholderIntermediariesController</text>
<polyline fill="none" stroke="black" points="153,81 415,81 "/>
<polyline fill="none" stroke="black" points="153,105 415,105 "/>
<polyline fill="none" stroke="black" points="153,129 415,129 "/>
<text text-anchor="start" x="161" y="144.2" font-family="Times,serif" font-size="14.00">_layout</text>
</g>
<!-- Admin::ReportsController -->
<g id="node12" class="node"><title>Admin::ReportsController</title>
<path fill="none" stroke="black" d="M-175,-443C-175,-443 -39,-443 -39,-443 -33,-443 -27,-449 -27,-455 -27,-455 -27,-525 -27,-525 -27,-531 -33,-537 -39,-537 -39,-537 -175,-537 -175,-537 -181,-537 -187,-531 -187,-525 -187,-525 -187,-455 -187,-455 -187,-449 -181,-443 -175,-443"/>
<text text-anchor="middle" x="-107" y="-521.8" font-family="Times,serif" font-size="14.00">Admin::ReportsController</text>
<polyline fill="none" stroke="black" points="-187,-514 -27,-514 "/>
<polyline fill="none" stroke="black" points="-187,-490 -27,-490 "/>
<polyline fill="none" stroke="black" points="-187,-466 -27,-466 "/>
<text text-anchor="start" x="-179" y="-450.8" font-family="Times,serif" font-size="14.00">_layout</text>
</g>
<!-- Admin::StockExchangesController -->
<g id="node13" class="node"><title>Admin::StockExchangesController</title>
<path fill="none" stroke="black" d="M352.5,339C352.5,339 535.5,339 535.5,339 541.5,339 547.5,333 547.5,327 547.5,327 547.5,257 547.5,257 547.5,251 541.5,245 535.5,245 535.5,245 352.5,245 352.5,245 346.5,245 340.5,251 340.5,257 340.5,257 340.5,327 340.5,327 340.5,333 346.5,339 352.5,339"/>
<text text-anchor="middle" x="444" y="260.2" font-family="Times,serif" font-size="14.00">Admin::StockExchangesController</text>
<polyline fill="none" stroke="black" points="340.5,268 547.5,268 "/>
<polyline fill="none" stroke="black" points="340.5,292 547.5,292 "/>
<polyline fill="none" stroke="black" points="340.5,316 547.5,316 "/>
<text text-anchor="start" x="348.5" y="331.2" font-family="Times,serif" font-size="14.00">_layout</text>
</g>
<!-- Admin::FlowsPayableUnderContractsController -->
<g id="node14" class="node"><title>Admin::FlowsPayableUnderContractsController</title>
<path fill="none" stroke="black" d="M131.5,-120C131.5,-120 386.5,-120 386.5,-120 392.5,-120 398.5,-126 398.5,-132 398.5,-132 398.5,-202 398.5,-202 398.5,-208 392.5,-214 386.5,-214 386.5,-214 131.5,-214 131.5,-214 125.5,-214 119.5,-208 119.5,-202 119.5,-202 119.5,-132 119.5,-132 119.5,-126 125.5,-120 131.5,-120"/>
<text text-anchor="middle" x="259" y="-198.8" font-family="Times,serif" font-size="14.00">Admin::FlowsPayableUnderContractsController</text>
<polyline fill="none" stroke="black" points="119.5,-191 398.5,-191 "/>
<polyline fill="none" stroke="black" points="119.5,-167 398.5,-167 "/>
<polyline fill="none" stroke="black" points="119.5,-143 398.5,-143 "/>
<text text-anchor="start" x="127.5" y="-127.8" font-family="Times,serif" font-size="14.00">_layout</text>
</g>
<!-- Admin::SocialProjectsController -->
<g id="node15" class="node"><title>Admin::SocialProjectsController</title>
<path fill="none" stroke="black" d="M436.5,-120C436.5,-120 607.5,-120 607.5,-120 613.5,-120 619.5,-126 619.5,-132 619.5,-132 619.5,-202 619.5,-202 619.5,-208 613.5,-214 607.5,-214 607.5,-214 436.5,-214 436.5,-214 430.5,-214 424.5,-208 424.5,-202 424.5,-202 424.5,-132 424.5,-132 424.5,-126 430.5,-120 436.5,-120"/>
<text text-anchor="middle" x="522" y="-198.8" font-family="Times,serif" font-size="14.00">Admin::SocialProjectsController</text>
<polyline fill="none" stroke="black" points="424.5,-191 619.5,-191 "/>
<polyline fill="none" stroke="black" points="424.5,-167 619.5,-167 "/>
<polyline fill="none" stroke="black" points="424.5,-143 619.5,-143 "/>
<text text-anchor="start" x="432.5" y="-127.8" font-family="Times,serif" font-size="14.00">_layout</text>
</g>
<!-- Admin::AuthorsController -->
<g id="node16" class="node"><title>Admin::AuthorsController</title>
<path fill="none" stroke="black" d="M-361.5,-443C-361.5,-443 -224.5,-443 -224.5,-443 -218.5,-443 -212.5,-449 -212.5,-455 -212.5,-455 -212.5,-525 -212.5,-525 -212.5,-531 -218.5,-537 -224.5,-537 -224.5,-537 -361.5,-537 -361.5,-537 -367.5,-537 -373.5,-531 -373.5,-525 -373.5,-525 -373.5,-455 -373.5,-455 -373.5,-449 -367.5,-443 -361.5,-443"/>
<text text-anchor="middle" x="-293" y="-521.8" font-family="Times,serif" font-size="14.00">Admin::AuthorsController</text>
<polyline fill="none" stroke="black" points="-373.5,-514 -212.5,-514 "/>
<polyline fill="none" stroke="black" points="-373.5,-490 -212.5,-490 "/>
<polyline fill="none" stroke="black" points="-373.5,-466 -212.5,-466 "/>
<text text-anchor="start" x="-365.5" y="-450.8" font-family="Times,serif" font-size="14.00">_layout</text>
</g>
<!-- Admin::EnvAndSocialObligationsController -->
<g id="node17" class="node"><title>Admin::EnvAndSocialObligationsController</title>
<path fill="none" stroke="black" d="M165,16C165,16 401,16 401,16 407,16 413,10 413,4 413,4 413,-66 413,-66 413,-72 407,-78 401,-78 401,-78 165,-78 165,-78 159,-78 153,-72 153,-66 153,-66 153,4 153,4 153,10 159,16 165,16"/>
<text text-anchor="middle" x="283" y="-62.8" font-family="Times,serif" font-size="14.00">Admin::EnvAndSocialObligationsController</text>
<polyline fill="none" stroke="black" points="153,-55 413,-55 "/>
<polyline fill="none" stroke="black" points="153,-31 413,-31 "/>
<polyline fill="none" stroke="black" points="153,-7 413,-7 "/>
<text text-anchor="start" x="161" y="8.2" font-family="Times,serif" font-size="14.00">_layout</text>
</g>
<!-- Admin::StockExchangeCountriesController -->
<g id="node18" class="node"><title>Admin::StockExchangeCountriesController</title>
<path fill="none" stroke="black" d="M63,288C63,288 293,288 293,288 299,288 305,282 305,276 305,276 305,206 305,206 305,200 299,194 293,194 293,194 63,194 63,194 57,194 51,200 51,206 51,206 51,276 51,276 51,282 57,288 63,288"/>
<text text-anchor="middle" x="178" y="209.2" font-family="Times,serif" font-size="14.00">Admin::StockExchangeCountriesController</text>
<polyline fill="none" stroke="black" points="51,217 305,217 "/>
<polyline fill="none" stroke="black" points="51,241 305,241 "/>
<polyline fill="none" stroke="black" points="51,265 305,265 "/>
<text text-anchor="start" x="59" y="280.2" font-family="Times,serif" font-size="14.00">_layout</text>
</g>
<!-- Admin::ShareholderRelationshipsController -->
<g id="node19" class="node"><title>Admin::ShareholderRelationshipsController</title>
<path fill="none" stroke="black" d="M-157.5,-171C-157.5,-171 75.5,-171 75.5,-171 81.5,-171 87.5,-177 87.5,-183 87.5,-183 87.5,-253 87.5,-253 87.5,-259 81.5,-265 75.5,-265 75.5,-265 -157.5,-265 -157.5,-265 -163.5,-265 -169.5,-259 -169.5,-253 -169.5,-253 -169.5,-183 -169.5,-183 -169.5,-177 -163.5,-171 -157.5,-171"/>
<text text-anchor="middle" x="-41" y="-249.8" font-family="Times,serif" font-size="14.00">Admin::ShareholderRelationshipsController</text>
<polyline fill="none" stroke="black" points="-169.5,-242 87.5,-242 "/>
<polyline fill="none" stroke="black" points="-169.5,-218 87.5,-218 "/>
<polyline fill="none" stroke="black" points="-169.5,-194 87.5,-194 "/>
<text text-anchor="start" x="-161.5" y="-178.8" font-family="Times,serif" font-size="14.00">_layout</text>
</g>
<!-- Admin::ReportRelationsController -->
<g id="node20" class="node"><title>Admin::ReportRelationsController</title>
<path fill="none" stroke="black" d="M-345,-35C-345,-35 -163,-35 -163,-35 -157,-35 -151,-41 -151,-47 -151,-47 -151,-117 -151,-117 -151,-123 -157,-129 -163,-129 -163,-129 -345,-129 -345,-129 -351,-129 -357,-123 -357,-117 -357,-117 -357,-47 -357,-47 -357,-41 -351,-35 -345,-35"/>
<text text-anchor="middle" x="-254" y="-113.8" font-family="Times,serif" font-size="14.00">Admin::ReportRelationsController</text>
<polyline fill="none" stroke="black" points="-357,-106 -151,-106 "/>
<polyline fill="none" stroke="black" points="-357,-82 -151,-82 "/>
<polyline fill="none" stroke="black" points="-357,-58 -151,-58 "/>
<text text-anchor="start" x="-349" y="-42.8" font-family="Times,serif" font-size="14.00">_layout</text>
</g>
<!-- Admin::IntermediaryCompaniesController -->
<g id="node21" class="node"><title>Admin::IntermediaryCompaniesController</title>
<path fill="none" stroke="black" d="M-22,-307C-22,-307 204,-307 204,-307 210,-307 216,-313 216,-319 216,-319 216,-389 216,-389 216,-395 210,-401 204,-401 204,-401 -22,-401 -22,-401 -28,-401 -34,-395 -34,-389 -34,-389 -34,-319 -34,-319 -34,-313 -28,-307 -22,-307"/>
<text text-anchor="middle" x="91" y="-385.8" font-family="Times,serif" font-size="14.00">Admin::IntermediaryCompaniesController</text>
<polyline fill="none" stroke="black" points="-34,-378 216,-378 "/>
<polyline fill="none" stroke="black" points="-34,-354 216,-354 "/>
<polyline fill="none" stroke="black" points="-34,-330 216,-330 "/>
<text text-anchor="start" x="-26" y="-314.8" font-family="Times,serif" font-size="14.00">_layout</text>
</g>
<!-- Admin::PagesController -->
<g id="node22" class="node"><title>Admin::PagesController</title>
<path fill="none" stroke="black" d="M249.5,475C249.5,475 374.5,475 374.5,475 380.5,475 386.5,469 386.5,463 386.5,463 386.5,393 386.5,393 386.5,387 380.5,381 374.5,381 374.5,381 249.5,381 249.5,381 243.5,381 237.5,387 237.5,393 237.5,393 237.5,463 237.5,463 237.5,469 243.5,475 249.5,475"/>
<text text-anchor="middle" x="312" y="396.2" font-family="Times,serif" font-size="14.00">Admin::PagesController</text>
<polyline fill="none" stroke="black" points="237.5,404 386.5,404 "/>
<polyline fill="none" stroke="black" points="237.5,428 386.5,428 "/>
<polyline fill="none" stroke="black" points="237.5,452 386.5,452 "/>
<text text-anchor="start" x="245.5" y="467.2" font-family="Times,serif" font-size="14.00">_layout</text>
</g>
<!-- Admin::ProductionExportsController -->
<g id="node23" class="node"><title>Admin::ProductionExportsController</title>
<path fill="none" stroke="black" d="M-361.5,101C-361.5,101 -166.5,101 -166.5,101 -160.5,101 -154.5,95 -154.5,89 -154.5,89 -154.5,19 -154.5,19 -154.5,13 -160.5,7 -166.5,7 -166.5,7 -361.5,7 -361.5,7 -367.5,7 -373.5,13 -373.5,19 -373.5,19 -373.5,89 -373.5,89 -373.5,95 -367.5,101 -361.5,101"/>
<text text-anchor="middle" x="-264" y="22.2" font-family="Times,serif" font-size="14.00">Admin::ProductionExportsController</text>
<polyline fill="none" stroke="black" points="-373.5,30 -154.5,30 "/>
<polyline fill="none" stroke="black" points="-373.5,54 -154.5,54 "/>
<polyline fill="none" stroke="black" points="-373.5,78 -154.5,78 "/>
<text text-anchor="start" x="-365.5" y="93.2" font-family="Times,serif" font-size="14.00">_layout</text>
</g>
<!-- Admin::EmployeesController -->
<g id="node24" class="node"><title>Admin::EmployeesController</title>
<path fill="none" stroke="black" d="M216.5,-443C216.5,-443 371.5,-443 371.5,-443 377.5,-443 383.5,-449 383.5,-455 383.5,-455 383.5,-525 383.5,-525 383.5,-531 377.5,-537 371.5,-537 371.5,-537 216.5,-537 216.5,-537 210.5,-537 204.5,-531 204.5,-525 204.5,-525 204.5,-455 204.5,-455 204.5,-449 210.5,-443 216.5,-443"/>
<text text-anchor="middle" x="294" y="-521.8" font-family="Times,serif" font-size="14.00">Admin::EmployeesController</text>
<polyline fill="none" stroke="black" points="204.5,-514 383.5,-514 "/>
<polyline fill="none" stroke="black" points="204.5,-490 383.5,-490 "/>
<polyline fill="none" stroke="black" points="204.5,-466 383.5,-466 "/>
<text text-anchor="start" x="212.5" y="-450.8" font-family="Times,serif" font-size="14.00">_layout</text>
</g>
<!-- Admin::TaxObligationsController -->
<g id="node25" class="node"><title>Admin::TaxObligationsController</title>
<path fill="none" stroke="black" d="M437,-426C437,-426 615,-426 615,-426 621,-426 627,-432 627,-438 627,-438 627,-508 627,-508 627,-514 621,-520 615,-520 615,-520 437,-520 437,-520 431,-520 425,-514 425,-508 425,-508 425,-438 425,-438 425,-432 431,-426 437,-426"/>
<text text-anchor="middle" x="526" y="-504.8" font-family="Times,serif" font-size="14.00">Admin::TaxObligationsController</text>
<polyline fill="none" stroke="black" points="425,-497 627,-497 "/>
<polyline fill="none" stroke="black" points="425,-473 627,-473 "/>
<polyline fill="none" stroke="black" points="425,-449 627,-449 "/>
<text text-anchor="start" x="433" y="-433.8" font-family="Times,serif" font-size="14.00">_layout</text>
</g>
<!-- CategoriesController -->
<g id="node26" class="node"><title>CategoriesController</title>
<path fill="none" stroke="black" d="M-464,475.5C-464,475.5 -358,475.5 -358,475.5 -352,475.5 -346,469.5 -346,463.5 -346,463.5 -346,394.5 -346,394.5 -346,388.5 -352,382.5 -358,382.5 -358,382.5 -464,382.5 -464,382.5 -470,382.5 -476,388.5 -476,394.5 -476,394.5 -476,463.5 -476,463.5 -476,469.5 -470,475.5 -464,475.5"/>
<text text-anchor="middle" x="-411" y="397.7" font-family="Times,serif" font-size="14.00">CategoriesController</text>
<polyline fill="none" stroke="black" points="-476,405.5 -346,405.5 "/>
<text text-anchor="start" x="-468" y="420.7" font-family="Times,serif" font-size="14.00">show</text>
<polyline fill="none" stroke="black" points="-476,428.5 -346,428.5 "/>
<polyline fill="none" stroke="black" points="-476,452.5 -346,452.5 "/>
<text text-anchor="start" x="-468" y="467.7" font-family="Times,serif" font-size="14.00">_layout</text>
</g>
<!-- ShareholdersController -->
<g id="node27" class="node"><title>ShareholdersController</title>
<path fill="none" stroke="black" d="M437.5,458.5C437.5,458.5 556.5,458.5 556.5,458.5 562.5,458.5 568.5,452.5 568.5,446.5 568.5,446.5 568.5,377.5 568.5,377.5 568.5,371.5 562.5,365.5 556.5,365.5 556.5,365.5 437.5,365.5 437.5,365.5 431.5,365.5 425.5,371.5 425.5,377.5 425.5,377.5 425.5,446.5 425.5,446.5 425.5,452.5 431.5,458.5 437.5,458.5"/>
<text text-anchor="middle" x="497" y="380.7" font-family="Times,serif" font-size="14.00">ShareholdersController</text>
<polyline fill="none" stroke="black" points="425.5,388.5 568.5,388.5 "/>
<text text-anchor="start" x="433.5" y="403.7" font-family="Times,serif" font-size="14.00">show</text>
<polyline fill="none" stroke="black" points="425.5,411.5 568.5,411.5 "/>
<polyline fill="none" stroke="black" points="425.5,435.5 568.5,435.5 "/>
<text text-anchor="start" x="433.5" y="450.7" font-family="Times,serif" font-size="14.00">_layout</text>
</g>
<!-- DrcCompaniesController -->
<g id="node28" class="node"><title>DrcCompaniesController</title>
<path fill="none" stroke="black" d="M-107.5,101.5C-107.5,101.5 99.5,101.5 99.5,101.5 105.5,101.5 111.5,95.5 111.5,89.5 111.5,89.5 111.5,-69.5 111.5,-69.5 111.5,-75.5 105.5,-81.5 99.5,-81.5 99.5,-81.5 -107.5,-81.5 -107.5,-81.5 -113.5,-81.5 -119.5,-75.5 -119.5,-69.5 -119.5,-69.5 -119.5,89.5 -119.5,89.5 -119.5,95.5 -113.5,101.5 -107.5,101.5"/>
<text text-anchor="middle" x="-4" y="-66.3" font-family="Times,serif" font-size="14.00">DrcCompaniesController</text>
<polyline fill="none" stroke="black" points="-119.5,-58.5 111.5,-58.5 "/>
<text text-anchor="start" x="-111.5" y="-43.3" font-family="Times,serif" font-size="14.00">get_deposits_geodata</text>
<text text-anchor="start" x="-111.5" y="-28.3" font-family="Times,serif" font-size="14.00">get_geodata</text>
<text text-anchor="start" x="-111.5" y="-13.3" font-family="Times,serif" font-size="14.00">get_processing_infrastructures_geodata</text>
<text text-anchor="start" x="-111.5" y="1.7" font-family="Times,serif" font-size="14.00">get_social_projects_geodata</text>
<text text-anchor="start" x="-111.5" y="16.7" font-family="Times,serif" font-size="14.00">index</text>
<text text-anchor="start" x="-111.5" y="31.7" font-family="Times,serif" font-size="14.00">show</text>
<polyline fill="none" stroke="black" points="-119.5,39.5 111.5,39.5 "/>
<polyline fill="none" stroke="black" points="-119.5,63.5 111.5,63.5 "/>
<text text-anchor="start" x="-111.5" y="78.7" font-family="Times,serif" font-size="14.00">_layout</text>
<text text-anchor="start" x="-111.5" y="93.7" font-family="Times,serif" font-size="14.00">drc_company_params</text>
</g>
<!-- ApplicationController -->
<g id="node29" class="node"><title>ApplicationController</title>
<path fill="none" stroke="black" d="M-294,475.5C-294,475.5 -182,475.5 -182,475.5 -176,475.5 -170,469.5 -170,463.5 -170,463.5 -170,394.5 -170,394.5 -170,388.5 -176,382.5 -182,382.5 -182,382.5 -294,382.5 -294,382.5 -300,382.5 -306,388.5 -306,394.5 -306,394.5 -306,463.5 -306,463.5 -306,469.5 -300,475.5 -294,475.5"/>
<text text-anchor="middle" x="-238" y="397.7" font-family="Times,serif" font-size="14.00">ApplicationController</text>
<polyline fill="none" stroke="black" points="-306,405.5 -170,405.5 "/>
<text text-anchor="start" x="-298" y="420.7" font-family="Times,serif" font-size="14.00">set_locale</text>
<polyline fill="none" stroke="black" points="-306,428.5 -170,428.5 "/>
<polyline fill="none" stroke="black" points="-306,452.5 -170,452.5 "/>
<text text-anchor="start" x="-298" y="467.7" font-family="Times,serif" font-size="14.00">_layout</text>
</g>
<!-- ReportsController -->
<g id="node30" class="node"><title>ReportsController</title>
<path fill="none" stroke="black" d="M505,-255.5C505,-255.5 595,-255.5 595,-255.5 601,-255.5 607,-261.5 607,-267.5 607,-267.5 607,-366.5 607,-366.5 607,-372.5 601,-378.5 595,-378.5 595,-378.5 505,-378.5 505,-378.5 499,-378.5 493,-372.5 493,-366.5 493,-366.5 493,-267.5 493,-267.5 493,-261.5 499,-255.5 505,-255.5"/>
<text text-anchor="middle" x="550" y="-363.3" font-family="Times,serif" font-size="14.00">ReportsController</text>
<polyline fill="none" stroke="black" points="493,-355.5 607,-355.5 "/>
<text text-anchor="start" x="501" y="-340.3" font-family="Times,serif" font-size="14.00">index</text>
<text text-anchor="start" x="501" y="-325.3" font-family="Times,serif" font-size="14.00">show</text>
<polyline fill="none" stroke="black" points="493,-317.5 607,-317.5 "/>
<polyline fill="none" stroke="black" points="493,-293.5 607,-293.5 "/>
<text text-anchor="start" x="501" y="-278.3" font-family="Times,serif" font-size="14.00">_layout</text>
<text text-anchor="start" x="501" y="-263.3" font-family="Times,serif" font-size="14.00">report_params</text>
</g>
<!-- SearchesController -->
<g id="node31" class="node"><title>SearchesController</title>
<path fill="none" stroke="black" d="M-498,-51C-498,-51 -402,-51 -402,-51 -396,-51 -390,-57 -390,-63 -390,-63 -390,-131 -390,-131 -390,-137 -396,-143 -402,-143 -402,-143 -498,-143 -498,-143 -504,-143 -510,-137 -510,-131 -510,-131 -510,-63 -510,-63 -510,-57 -504,-51 -498,-51"/>
<text text-anchor="middle" x="-450" y="-127.8" font-family="Times,serif" font-size="14.00">SearchesController</text>
<polyline fill="none" stroke="black" points="-510,-120 -390,-120 "/>
<text text-anchor="start" x="-502" y="-104.8" font-family="Times,serif" font-size="14.00">show</text>
<polyline fill="none" stroke="black" points="-510,-97 -390,-97 "/>
<text text-anchor="start" x="-502" y="-81.8" font-family="Times,serif" font-size="14.00">search</text>
<polyline fill="none" stroke="black" points="-510,-74 -390,-74 "/>
<text text-anchor="start" x="-502" y="-58.8" font-family="Times,serif" font-size="14.00">_layout</text>
</g>
<!-- PagesController -->
<g id="node32" class="node"><title>PagesController</title>
<path fill="none" stroke="black" d="M-124,475.5C-124,475.5 -44,475.5 -44,475.5 -38,475.5 -32,469.5 -32,463.5 -32,463.5 -32,394.5 -32,394.5 -32,388.5 -38,382.5 -44,382.5 -44,382.5 -124,382.5 -124,382.5 -130,382.5 -136,388.5 -136,394.5 -136,394.5 -136,463.5 -136,463.5 -136,469.5 -130,475.5 -124,475.5"/>
<text text-anchor="middle" x="-84" y="397.7" font-family="Times,serif" font-size="14.00">PagesController</text>
<polyline fill="none" stroke="black" points="-136,405.5 -32,405.5 "/>
<text text-anchor="start" x="-128" y="420.7" font-family="Times,serif" font-size="14.00">show</text>
<polyline fill="none" stroke="black" points="-136,428.5 -32,428.5 "/>
<polyline fill="none" stroke="black" points="-136,452.5 -32,452.5 "/>
<text text-anchor="start" x="-128" y="467.7" font-family="Times,serif" font-size="14.00">_layout</text>
</g>
<!-- StaticPagesController -->
<g id="node33" class="node"><title>StaticPagesController</title>
<path fill="none" stroke="black" d="M-447,-307C-447,-307 -337,-307 -337,-307 -331,-307 -325,-313 -325,-319 -325,-319 -325,-403 -325,-403 -325,-409 -331,-415 -337,-415 -337,-415 -447,-415 -447,-415 -453,-415 -459,-409 -459,-403 -459,-403 -459,-319 -459,-319 -459,-313 -453,-307 -447,-307"/>
<text text-anchor="middle" x="-392" y="-399.8" font-family="Times,serif" font-size="14.00">StaticPagesController</text>
<polyline fill="none" stroke="black" points="-459,-392 -325,-392 "/>
<text text-anchor="start" x="-451" y="-376.8" font-family="Times,serif" font-size="14.00">about</text>
<text text-anchor="start" x="-451" y="-361.8" font-family="Times,serif" font-size="14.00">home</text>
<polyline fill="none" stroke="black" points="-459,-354 -325,-354 "/>
<polyline fill="none" stroke="black" points="-459,-330 -325,-330 "/>
<text text-anchor="start" x="-451" y="-314.8" font-family="Times,serif" font-size="14.00">_layout</text>
</g>
</g>
</svg>
