<?xml version="1.0" encoding="UTF-8" standalone="no"?>
<!DOCTYPE svg PUBLIC "-//W3C//DTD SVG 1.1//EN"
 "http://www.w3.org/Graphics/SVG/1.1/DTD/svg11.dtd">
<!-- Generated by graphviz version 2.38.0 (20140413.2041)
 -->
<!-- Title: controllers_diagram Pages: 1 -->
<svg width="751pt" height="643pt"
 viewBox="0.00 0.00 751.00 643.00" xmlns="http://www.w3.org/2000/svg" xmlns:xlink="http://www.w3.org/1999/xlink">
<g id="graph0" class="graph" transform="scale(1 1) rotate(0) translate(303.5 399.5)">
<title>controllers_diagram</title>
<polygon fill="white" stroke="none" points="-303.5,243.5 -303.5,-399.5 447.5,-399.5 447.5,243.5 -303.5,243.5"/>
<!-- _diagram_info -->
<g id="node1" class="node"><title>_diagram_info</title>
<text text-anchor="start" x="128" y="56.4" font-family="Times,serif" font-size="13.00">Controllers diagram</text>
<text text-anchor="start" x="128" y="70.4" font-family="Times,serif" font-size="13.00">Date: Mar 27 2015 &#45; 06:44</text>
<text text-anchor="start" x="128" y="84.4" font-family="Times,serif" font-size="13.00">Migration version: 20150226155606</text>
<text text-anchor="start" x="128" y="98.4" font-family="Times,serif" font-size="13.00">Generated by RailRoady 1.3.0</text>
<text text-anchor="start" x="128" y="112.4" font-family="Times,serif" font-size="13.00">http://railroady.prestonlee.com</text>
</g>
<!-- AttachmentsController -->
<g id="node2" class="node"><title>AttachmentsController</title>
<path fill="none" stroke="black" d="M-212.5,-226C-212.5,-226 -95.5,-226 -95.5,-226 -89.5,-226 -83.5,-232 -83.5,-238 -83.5,-238 -83.5,-308 -83.5,-308 -83.5,-314 -89.5,-320 -95.5,-320 -95.5,-320 -212.5,-320 -212.5,-320 -218.5,-320 -224.5,-314 -224.5,-308 -224.5,-308 -224.5,-238 -224.5,-238 -224.5,-232 -218.5,-226 -212.5,-226"/>
<text text-anchor="middle" x="-154" y="-304.8" font-family="Times,serif" font-size="14.00">AttachmentsController</text>
<polyline fill="none" stroke="black" points="-224.5,-297 -83.5,-297 "/>
<polyline fill="none" stroke="black" points="-224.5,-273 -83.5,-273 "/>
<polyline fill="none" stroke="black" points="-224.5,-249 -83.5,-249 "/>
<text text-anchor="start" x="-216.5" y="-233.8" font-family="Times,serif" font-size="14.00">_layout</text>
</g>
<!-- SourcesController -->
<g id="node3" class="node"><title>SourcesController</title>
<path fill="none" stroke="black" d="M311.5,-301C311.5,-301 402.5,-301 402.5,-301 408.5,-301 414.5,-307 414.5,-313 414.5,-313 414.5,-383 414.5,-383 414.5,-389 408.5,-395 402.5,-395 402.5,-395 311.5,-395 311.5,-395 305.5,-395 299.5,-389 299.5,-383 299.5,-383 299.5,-313 299.5,-313 299.5,-307 305.5,-301 311.5,-301"/>
<text text-anchor="middle" x="357" y="-379.8" font-family="Times,serif" font-size="14.00">SourcesController</text>
<polyline fill="none" stroke="black" points="299.5,-372 414.5,-372 "/>
<polyline fill="none" stroke="black" points="299.5,-348 414.5,-348 "/>
<polyline fill="none" stroke="black" points="299.5,-324 414.5,-324 "/>
<text text-anchor="start" x="307.5" y="-308.8" font-family="Times,serif" font-size="14.00">_layout</text>
</g>
<!-- ShareholdersController -->
<g id="node4" class="node"><title>ShareholdersController</title>
<path fill="none" stroke="black" d="M312.5,14C312.5,14 431.5,14 431.5,14 437.5,14 443.5,8 443.5,2 443.5,2 443.5,-68 443.5,-68 443.5,-74 437.5,-80 431.5,-80 431.5,-80 312.5,-80 312.5,-80 306.5,-80 300.5,-74 300.5,-68 300.5,-68 300.5,2 300.5,2 300.5,8 306.5,14 312.5,14"/>
<text text-anchor="middle" x="372" y="-64.8" font-family="Times,serif" font-size="14.00">ShareholdersController</text>
<polyline fill="none" stroke="black" points="300.5,-57 443.5,-57 "/>
<polyline fill="none" stroke="black" points="300.5,-33 443.5,-33 "/>
<polyline fill="none" stroke="black" points="300.5,-9 443.5,-9 "/>
<text text-anchor="start" x="308.5" y="6.2" font-family="Times,serif" font-size="14.00">_layout</text>
</g>
<!-- MultinationalCompaniesController -->
<g id="node5" class="node"><title>MultinationalCompaniesController</title>
<path fill="none" stroke="black" d="M192,-181C192,-181 376,-181 376,-181 382,-181 388,-187 388,-193 388,-193 388,-263 388,-263 388,-269 382,-275 376,-275 376,-275 192,-275 192,-275 186,-275 180,-269 180,-263 180,-263 180,-193 180,-193 180,-187 186,-181 192,-181"/>
<text text-anchor="middle" x="284" y="-259.8" font-family="Times,serif" font-size="14.00">MultinationalCompaniesController</text>
<polyline fill="none" stroke="black" points="180,-252 388,-252 "/>
<polyline fill="none" stroke="black" points="180,-228 388,-228 "/>
<polyline fill="none" stroke="black" points="180,-204 388,-204 "/>
<text text-anchor="start" x="188" y="-188.8" font-family="Times,serif" font-size="14.00">_layout</text>
</g>
<!-- PostsController -->
<g id="node6" class="node"><title>PostsController</title>
<path fill="none" stroke="black" d="M-287.5,-106C-287.5,-106 -210.5,-106 -210.5,-106 -204.5,-106 -198.5,-112 -198.5,-118 -198.5,-118 -198.5,-188 -198.5,-188 -198.5,-194 -204.5,-200 -210.5,-200 -210.5,-200 -287.5,-200 -287.5,-200 -293.5,-200 -299.5,-194 -299.5,-188 -299.5,-188 -299.5,-118 -299.5,-118 -299.5,-112 -293.5,-106 -287.5,-106"/>
<text text-anchor="middle" x="-249" y="-184.8" font-family="Times,serif" font-size="14.00">PostsController</text>
<polyline fill="none" stroke="black" points="-299.5,-177 -198.5,-177 "/>
<polyline fill="none" stroke="black" points="-299.5,-153 -198.5,-153 "/>
<polyline fill="none" stroke="black" points="-299.5,-129 -198.5,-129 "/>
<text text-anchor="start" x="-291.5" y="-113.8" font-family="Times,serif" font-size="14.00">_layout</text>
</g>
<!-- ApplicationController -->
<g id="node7" class="node"><title>ApplicationController</title>
<path fill="none" stroke="black" d="M-273,59.5C-273,59.5 -161,59.5 -161,59.5 -155,59.5 -149,53.5 -149,47.5 -149,47.5 -149,-21.5 -149,-21.5 -149,-27.5 -155,-33.5 -161,-33.5 -161,-33.5 -273,-33.5 -273,-33.5 -279,-33.5 -285,-27.5 -285,-21.5 -285,-21.5 -285,47.5 -285,47.5 -285,53.5 -279,59.5 -273,59.5"/>
<text text-anchor="middle" x="-217" y="-18.3" font-family="Times,serif" font-size="14.00">ApplicationController</text>
<polyline fill="none" stroke="black" points="-285,-10.5 -149,-10.5 "/>
<text text-anchor="start" x="-277" y="4.7" font-family="Times,serif" font-size="14.00">set_locale</text>
<polyline fill="none" stroke="black" points="-285,12.5 -149,12.5 "/>
<polyline fill="none" stroke="black" points="-285,36.5 -149,36.5 "/>
<text text-anchor="start" x="-277" y="51.7" font-family="Times,serif" font-size="14.00">_layout</text>
</g>
<!-- ReportsController -->
<g id="node8" class="node"><title>ReportsController</title>
<path fill="none" stroke="black" d="M162,-301C162,-301 252,-301 252,-301 258,-301 264,-307 264,-313 264,-313 264,-383 264,-383 264,-389 258,-395 252,-395 252,-395 162,-395 162,-395 156,-395 150,-389 150,-383 150,-383 150,-313 150,-313 150,-307 156,-301 162,-301"/>
<text text-anchor="middle" x="207" y="-379.8" font-family="Times,serif" font-size="14.00">ReportsController</text>
<polyline fill="none" stroke="black" points="150,-372 264,-372 "/>
<polyline fill="none" stroke="black" points="150,-348 264,-348 "/>
<polyline fill="none" stroke="black" points="150,-324 264,-324 "/>
<text text-anchor="start" x="158" y="-308.8" font-family="Times,serif" font-size="14.00">_layout</text>
</g>
<!-- StockExchangesController -->
<g id="node9" class="node"><title>StockExchangesController</title>
<path fill="none" stroke="black" d="M42.5,239C42.5,239 179.5,239 179.5,239 185.5,239 191.5,233 191.5,227 191.5,227 191.5,157 191.5,157 191.5,151 185.5,145 179.5,145 179.5,145 42.5,145 42.5,145 36.5,145 30.5,151 30.5,157 30.5,157 30.5,227 30.5,227 30.5,233 36.5,239 42.5,239"/>
<text text-anchor="middle" x="111" y="160.2" font-family="Times,serif" font-size="14.00">StockExchangesController</text>
<polyline fill="none" stroke="black" points="30.5,168 191.5,168 "/>
<polyline fill="none" stroke="black" points="30.5,192 191.5,192 "/>
<polyline fill="none" stroke="black" points="30.5,216 191.5,216 "/>
<text text-anchor="start" x="38.5" y="231.2" font-family="Times,serif" font-size="14.00">_layout</text>
</g>
<!-- CongoleseCompaniesController -->
<g id="node10" class="node"><title>CongoleseCompaniesController</title>
<path fill="none" stroke="black" d="M-152.5,-61C-152.5,-61 14.5,-61 14.5,-61 20.5,-61 26.5,-67 26.5,-73 26.5,-73 26.5,-143 26.5,-143 26.5,-149 20.5,-155 14.5,-155 14.5,-155 -152.5,-155 -152.5,-155 -158.5,-155 -164.5,-149 -164.5,-143 -164.5,-143 -164.5,-73 -164.5,-73 -164.5,-67 -158.5,-61 -152.5,-61"/>
<text text-anchor="middle" x="-69" y="-139.8" font-family="Times,serif" font-size="14.00">CongoleseCompaniesController</text>
<polyline fill="none" stroke="black" points="-164.5,-132 26.5,-132 "/>
<polyline fill="none" stroke="black" points="-164.5,-108 26.5,-108 "/>
<polyline fill="none" stroke="black" points="-164.5,-84 26.5,-84 "/>
<text text-anchor="start" x="-156.5" y="-68.8" font-family="Times,serif" font-size="14.00">_layout</text>
</g>
<!-- AuthorsController -->
<g id="node11" class="node"><title>AuthorsController</title>
<path fill="none" stroke="black" d="M12,-301C12,-301 104,-301 104,-301 110,-301 116,-307 116,-313 116,-313 116,-383 116,-383 116,-389 110,-395 104,-395 104,-395 12,-395 12,-395 6,-395 0,-389 0,-383 0,-383 0,-313 0,-313 0,-307 6,-301 12,-301"/>
<text text-anchor="middle" x="58" y="-379.8" font-family="Times,serif" font-size="14.00">AuthorsController</text>
<polyline fill="none" stroke="black" points="0,-372 116,-372 "/>
<polyline fill="none" stroke="black" points="0,-348 116,-348 "/>
<polyline fill="none" stroke="black" points="0,-324 116,-324 "/>
<text text-anchor="start" x="8" y="-308.8" font-family="Times,serif" font-size="14.00">_layout</text>
</g>
<!-- EnvAndSocialObligationsController -->
<g id="node12" class="node"><title>EnvAndSocialObligationsController</title>
<path fill="none" stroke="black" d="M-108,59C-108,59 82,59 82,59 88,59 94,53 94,47 94,47 94,-23 94,-23 94,-29 88,-35 82,-35 82,-35 -108,-35 -108,-35 -114,-35 -120,-29 -120,-23 -120,-23 -120,47 -120,47 -120,53 -114,59 -108,59"/>
<text text-anchor="middle" x="-13" y="-19.8" font-family="Times,serif" font-size="14.00">EnvAndSocialObligationsController</text>
<polyline fill="none" stroke="black" points="-120,-12 94,-12 "/>
<polyline fill="none" stroke="black" points="-120,12 94,12 "/>
<polyline fill="none" stroke="black" points="-120,36 94,36 "/>
<text text-anchor="start" x="-112" y="51.2" font-family="Times,serif" font-size="14.00">_layout</text>
</g>
<!-- StockExchangeCountriesController -->
<g id="node13" class="node"><title>StockExchangeCountriesController</title>
<path fill="none" stroke="black" d="M-47.5,-181C-47.5,-181 137.5,-181 137.5,-181 143.5,-181 149.5,-187 149.5,-193 149.5,-193 149.5,-263 149.5,-263 149.5,-269 143.5,-275 137.5,-275 137.5,-275 -47.5,-275 -47.5,-275 -53.5,-275 -59.5,-269 -59.5,-263 -59.5,-263 -59.5,-193 -59.5,-193 -59.5,-187 -53.5,-181 -47.5,-181"/>
<text text-anchor="middle" x="45" y="-259.8" font-family="Times,serif" font-size="14.00">StockExchangeCountriesController</text>
<polyline fill="none" stroke="black" points="-59.5,-252 149.5,-252 "/>
<polyline fill="none" stroke="black" points="-59.5,-228 149.5,-228 "/>
<polyline fill="none" stroke="black" points="-59.5,-204 149.5,-204 "/>
<text text-anchor="start" x="-51.5" y="-188.8" font-family="Times,serif" font-size="14.00">_layout</text>
</g>
<!-- ShareholderRelationshipsController -->
<g id="node14" class="node"><title>ShareholderRelationshipsController</title>
<path fill="none" stroke="black" d="M72.5,-61C72.5,-61 259.5,-61 259.5,-61 265.5,-61 271.5,-67 271.5,-73 271.5,-73 271.5,-143 271.5,-143 271.5,-149 265.5,-155 259.5,-155 259.5,-155 72.5,-155 72.5,-155 66.5,-155 60.5,-149 60.5,-143 60.5,-143 60.5,-73 60.5,-73 60.5,-67 66.5,-61 72.5,-61"/>
<text text-anchor="middle" x="166" y="-139.8" font-family="Times,serif" font-size="14.00">ShareholderRelationshipsController</text>
<polyline fill="none" stroke="black" points="60.5,-132 271.5,-132 "/>
<polyline fill="none" stroke="black" points="60.5,-108 271.5,-108 "/>
<polyline fill="none" stroke="black" points="60.5,-84 271.5,-84 "/>
<text text-anchor="start" x="68.5" y="-68.8" font-family="Times,serif" font-size="14.00">_layout</text>
</g>
<!-- ProductionExportsController -->
<g id="node15" class="node"><title>ProductionExportsController</title>
<path fill="none" stroke="black" d="M-167.5,179C-167.5,179 -18.5,179 -18.5,179 -12.5,179 -6.5,173 -6.5,167 -6.5,167 -6.5,97 -6.5,97 -6.5,91 -12.5,85 -18.5,85 -18.5,85 -167.5,85 -167.5,85 -173.5,85 -179.5,91 -179.5,97 -179.5,97 -179.5,167 -179.5,167 -179.5,173 -173.5,179 -167.5,179"/>
<text text-anchor="middle" x="-93" y="100.2" font-family="Times,serif" font-size="14.00">ProductionExportsController</text>
<polyline fill="none" stroke="black" points="-179.5,108 -6.5,108 "/>
<polyline fill="none" stroke="black" points="-179.5,132 -6.5,132 "/>
<polyline fill="none" stroke="black" points="-179.5,156 -6.5,156 "/>
<text text-anchor="start" x="-171.5" y="171.2" font-family="Times,serif" font-size="14.00">_layout</text>
</g>
<!-- TaxObligationsController -->
<g id="node16" class="node"><title>TaxObligationsController</title>
<path fill="none" stroke="black" d="M237,239C237,239 369,239 369,239 375,239 381,233 381,227 381,227 381,157 381,157 381,151 375,145 369,145 369,145 237,145 237,145 231,145 225,151 225,157 225,157 225,227 225,227 225,233 231,239 237,239"/>
<text text-anchor="middle" x="303" y="160.2" font-family="Times,serif" font-size="14.00">TaxObligationsController</text>
<polyline fill="none" stroke="black" points="225,168 381,168 "/>
<polyline fill="none" stroke="black" points="225,192 381,192 "/>
<polyline fill="none" stroke="black" points="225,216 381,216 "/>
<text text-anchor="start" x="233" y="231.2" font-family="Times,serif" font-size="14.00">_layout</text>
</g>
</g>
</svg>
