<?xml version="1.0" encoding="UTF-8" standalone="no"?>
<!DOCTYPE svg PUBLIC "-//W3C//DTD SVG 1.1//EN"
 "http://www.w3.org/Graphics/SVG/1.1/DTD/svg11.dtd">
<!-- Generated by graphviz version 2.38.0 (20140413.2041)
 -->
<!-- Title: controllers_diagram Pages: 1 -->
<svg width="1196pt" height="1073pt"
 viewBox="0.00 0.00 1196.00 1072.50" xmlns="http://www.w3.org/2000/svg" xmlns:xlink="http://www.w3.org/1999/xlink">
<g id="graph0" class="graph" transform="scale(1 1) rotate(0) translate(548 541.5)">
<title>controllers_diagram</title>
<polygon fill="white" stroke="none" points="-548,531 -548,-541.5 648,-541.5 648,531 -548,531"/>
<!-- _diagram_info -->
<g id="node1" class="node"><title>_diagram_info</title>
<text text-anchor="start" x="8" y="344.4" font-family="Times,serif" font-size="13.00">Controllers diagram</text>
<text text-anchor="start" x="8" y="358.4" font-family="Times,serif" font-size="13.00">Date: Jun 11 2015 &#45; 10:24</text>
<text text-anchor="start" x="8" y="372.4" font-family="Times,serif" font-size="13.00">Migration version: 20150610163459</text>
<text text-anchor="start" x="8" y="386.4" font-family="Times,serif" font-size="13.00">Generated by RailRoady 1.3.0</text>
<text text-anchor="start" x="8" y="400.4" font-family="Times,serif" font-size="13.00">http://railroady.prestonlee.com</text>
</g>
<!-- MapsController -->
<g id="node2" class="node"><title>MapsController</title>
<path fill="none" stroke="black" d="M266.5,-256C266.5,-256 445.5,-256 445.5,-256 451.5,-256 457.5,-262 457.5,-268 457.5,-268 457.5,-382 457.5,-382 457.5,-388 451.5,-394 445.5,-394 445.5,-394 266.5,-394 266.5,-394 260.5,-394 254.5,-388 254.5,-382 254.5,-382 254.5,-268 254.5,-268 254.5,-262 260.5,-256 266.5,-256"/>
<text text-anchor="middle" x="356" y="-378.8" font-family="Times,serif" font-size="14.00">MapsController</text>
<polyline fill="none" stroke="black" points="254.5,-371 457.5,-371 "/>
<text text-anchor="start" x="262.5" y="-355.8" font-family="Times,serif" font-size="14.00">get_all_deposits</text>
<text text-anchor="start" x="262.5" y="-340.8" font-family="Times,serif" font-size="14.00">get_all_processing_infrastructures</text>
<text text-anchor="start" x="262.5" y="-325.8" font-family="Times,serif" font-size="14.00">get_all_social_projects</text>
<text text-anchor="start" x="262.5" y="-310.8" font-family="Times,serif" font-size="14.00">show</text>
<polyline fill="none" stroke="black" points="254.5,-303 457.5,-303 "/>
<polyline fill="none" stroke="black" points="254.5,-279 457.5,-279 "/>
<text text-anchor="start" x="262.5" y="-263.8" font-family="Times,serif" font-size="14.00">_layout</text>
</g>
<!-- Admin::MineralResourcesController -->
<g id="node3" class="node"><title>Admin::MineralResourcesController</title>
<path fill="none" stroke="black" d="M-276.5,-307C-276.5,-307 -83.5,-307 -83.5,-307 -77.5,-307 -71.5,-313 -71.5,-319 -71.5,-319 -71.5,-389 -71.5,-389 -71.5,-395 -77.5,-401 -83.5,-401 -83.5,-401 -276.5,-401 -276.5,-401 -282.5,-401 -288.5,-395 -288.5,-389 -288.5,-389 -288.5,-319 -288.5,-319 -288.5,-313 -282.5,-307 -276.5,-307"/>
<text text-anchor="middle" x="-180" y="-385.8" font-family="Times,serif" font-size="14.00">Admin::MineralResourcesController</text>
<polyline fill="none" stroke="black" points="-288.5,-378 -71.5,-378 "/>
<polyline fill="none" stroke="black" points="-288.5,-354 -71.5,-354 "/>
<polyline fill="none" stroke="black" points="-288.5,-330 -71.5,-330 "/>
<text text-anchor="start" x="-280.5" y="-314.8" font-family="Times,serif" font-size="14.00">_layout</text>
</g>
<!-- Admin::CategoriesController -->
<g id="node4" class="node"><title>Admin::CategoriesController</title>
<path fill="none" stroke="black" d="M-362,-171C-362,-171 -210,-171 -210,-171 -204,-171 -198,-177 -198,-183 -198,-183 -198,-267 -198,-267 -198,-273 -204,-279 -210,-279 -210,-279 -362,-279 -362,-279 -368,-279 -374,-273 -374,-267 -374,-267 -374,-183 -374,-183 -374,-177 -368,-171 -362,-171"/>
<text text-anchor="middle" x="-286" y="-263.8" font-family="Times,serif" font-size="14.00">Admin::CategoriesController</text>
<polyline fill="none" stroke="black" points="-374,-256 -198,-256 "/>
<polyline fill="none" stroke="black" points="-374,-232 -198,-232 "/>
<text text-anchor="start" x="-366" y="-216.8" font-family="Times,serif" font-size="14.00">after_create_save</text>
<text text-anchor="start" x="-366" y="-201.8" font-family="Times,serif" font-size="14.00">beginning_of_chain</text>
<polyline fill="none" stroke="black" points="-374,-194 -198,-194 "/>
<text text-anchor="start" x="-366" y="-178.8" font-family="Times,serif" font-size="14.00">_layout</text>
</g>
<!-- Admin::AttachmentsController -->
<g id="node5" class="node"><title>Admin::AttachmentsController</title>
<path fill="none" stroke="black" d="M215.5,-443C215.5,-443 378.5,-443 378.5,-443 384.5,-443 390.5,-449 390.5,-455 390.5,-455 390.5,-525 390.5,-525 390.5,-531 384.5,-537 378.5,-537 378.5,-537 215.5,-537 215.5,-537 209.5,-537 203.5,-531 203.5,-525 203.5,-525 203.5,-455 203.5,-455 203.5,-449 209.5,-443 215.5,-443"/>
<text text-anchor="middle" x="297" y="-521.8" font-family="Times,serif" font-size="14.00">Admin::AttachmentsController</text>
<polyline fill="none" stroke="black" points="203.5,-514 390.5,-514 "/>
<polyline fill="none" stroke="black" points="203.5,-490 390.5,-490 "/>
<polyline fill="none" stroke="black" points="203.5,-466 390.5,-466 "/>
<text text-anchor="start" x="211.5" y="-450.8" font-family="Times,serif" font-size="14.00">_layout</text>
</g>
<!-- Admin::SourcesController -->
<g id="node6" class="node"><title>Admin::SourcesController</title>
<path fill="none" stroke="black" d="M-412.5,237C-412.5,237 -275.5,237 -275.5,237 -269.5,237 -263.5,231 -263.5,225 -263.5,225 -263.5,155 -263.5,155 -263.5,149 -269.5,143 -275.5,143 -275.5,143 -412.5,143 -412.5,143 -418.5,143 -424.5,149 -424.5,155 -424.5,155 -424.5,225 -424.5,225 -424.5,231 -418.5,237 -412.5,237"/>
<text text-anchor="middle" x="-344" y="158.2" font-family="Times,serif" font-size="14.00">Admin::SourcesController</text>
<polyline fill="none" stroke="black" points="-424.5,166 -263.5,166 "/>
<polyline fill="none" stroke="black" points="-424.5,190 -263.5,190 "/>
<polyline fill="none" stroke="black" points="-424.5,214 -263.5,214 "/>
<text text-anchor="start" x="-416.5" y="229.2" font-family="Times,serif" font-size="14.00">_layout</text>
</g>
<!-- Admin::TileLayersController -->
<g id="node7" class="node"><title>Admin::TileLayersController</title>
<path fill="none" stroke="black" d="M12,-443C12,-443 164,-443 164,-443 170,-443 176,-449 176,-455 176,-455 176,-525 176,-525 176,-531 170,-537 164,-537 164,-537 12,-537 12,-537 6,-537 0,-531 0,-525 0,-525 0,-455 0,-455 0,-449 6,-443 12,-443"/>
<text text-anchor="middle" x="88" y="-521.8" font-family="Times,serif" font-size="14.00">Admin::TileLayersController</text>
<polyline fill="none" stroke="black" points="0,-514 176,-514 "/>
<polyline fill="none" stroke="black" points="0,-490 176,-490 "/>
<polyline fill="none" stroke="black" points="0,-466 176,-466 "/>
<text text-anchor="start" x="8" y="-450.8" font-family="Times,serif" font-size="14.00">_layout</text>
</g>
<!-- Admin::ShareholdersController -->
<g id="node8" class="node"><title>Admin::ShareholdersController</title>
<path fill="none" stroke="black" d="M-209,-443C-209,-443 -45,-443 -45,-443 -39,-443 -33,-449 -33,-455 -33,-455 -33,-525 -33,-525 -33,-531 -39,-537 -45,-537 -45,-537 -209,-537 -209,-537 -215,-537 -221,-531 -221,-525 -221,-525 -221,-455 -221,-455 -221,-449 -215,-443 -209,-443"/>
<text text-anchor="middle" x="-127" y="-521.8" font-family="Times,serif" font-size="14.00">Admin::ShareholdersController</text>
<polyline fill="none" stroke="black" points="-221,-514 -33,-514 "/>
<polyline fill="none" stroke="black" points="-221,-490 -33,-490 "/>
<polyline fill="none" stroke="black" points="-221,-466 -33,-466 "/>
<text text-anchor="start" x="-213" y="-450.8" font-family="Times,serif" font-size="14.00">_layout</text>
</g>
<!-- Admin::DepositSourcesController -->
<g id="node9" class="node"><title>Admin::DepositSourcesController</title>
<path fill="none" stroke="black" d="M436.5,-120C436.5,-120 615.5,-120 615.5,-120 621.5,-120 627.5,-126 627.5,-132 627.5,-132 627.5,-202 627.5,-202 627.5,-208 621.5,-214 615.5,-214 615.5,-214 436.5,-214 436.5,-214 430.5,-214 424.5,-208 424.5,-202 424.5,-202 424.5,-132 424.5,-132 424.5,-126 430.5,-120 436.5,-120"/>
<text text-anchor="middle" x="526" y="-198.8" font-family="Times,serif" font-size="14.00">Admin::DepositSourcesController</text>
<polyline fill="none" stroke="black" points="424.5,-191 627.5,-191 "/>
<polyline fill="none" stroke="black" points="424.5,-167 627.5,-167 "/>
<polyline fill="none" stroke="black" points="424.5,-143 627.5,-143 "/>
<text text-anchor="start" x="432.5" y="-127.8" font-family="Times,serif" font-size="14.00">_layout</text>
</g>
<!-- Admin::DrcCompaniesController -->
<g id="node10" class="node"><title>Admin::DrcCompaniesController</title>
<path fill="none" stroke="black" d="M437,-426C437,-426 613,-426 613,-426 619,-426 625,-432 625,-438 625,-438 625,-508 625,-508 625,-514 619,-520 613,-520 613,-520 437,-520 437,-520 431,-520 425,-514 425,-508 425,-508 425,-438 425,-438 425,-432 431,-426 437,-426"/>
<text text-anchor="middle" x="525" y="-504.8" font-family="Times,serif" font-size="14.00">Admin::DrcCompaniesController</text>
<polyline fill="none" stroke="black" points="425,-497 625,-497 "/>
<polyline fill="none" stroke="black" points="425,-473 625,-473 "/>
<polyline fill="none" stroke="black" points="425,-449 625,-449 "/>
<text text-anchor="start" x="433" y="-433.8" font-family="Times,serif" font-size="14.00">_layout</text>
</g>
<!-- Admin::ProcessingInfrastructuresController -->
<g id="node11" class="node"><title>Admin::ProcessingInfrastructuresController</title>
<path fill="none" stroke="black" d="M-225.5,237C-225.5,237 5.5,237 5.5,237 11.5,237 17.5,231 17.5,225 17.5,225 17.5,155 17.5,155 17.5,149 11.5,143 5.5,143 5.5,143 -225.5,143 -225.5,143 -231.5,143 -237.5,149 -237.5,155 -237.5,155 -237.5,225 -237.5,225 -237.5,231 -231.5,237 -225.5,237"/>
<text text-anchor="middle" x="-110" y="158.2" font-family="Times,serif" font-size="14.00">Admin::ProcessingInfrastructuresController</text>
<polyline fill="none" stroke="black" points="-237.5,166 17.5,166 "/>
<polyline fill="none" stroke="black" points="-237.5,190 17.5,190 "/>
<polyline fill="none" stroke="black" points="-237.5,214 17.5,214 "/>
<text text-anchor="start" x="-229.5" y="229.2" font-family="Times,serif" font-size="14.00">_layout</text>
</g>
<!-- Admin::DepositResourcesController -->
<g id="node12" class="node"><title>Admin::DepositResourcesController</title>
<path fill="none" stroke="black" d="M352.5,339C352.5,339 543.5,339 543.5,339 549.5,339 555.5,333 555.5,327 555.5,327 555.5,257 555.5,257 555.5,251 549.5,245 543.5,245 543.5,245 352.5,245 352.5,245 346.5,245 340.5,251 340.5,257 340.5,257 340.5,327 340.5,327 340.5,333 346.5,339 352.5,339"/>
<text text-anchor="middle" x="448" y="260.2" font-family="Times,serif" font-size="14.00">Admin::DepositResourcesController</text>
<polyline fill="none" stroke="black" points="340.5,268 555.5,268 "/>
<polyline fill="none" stroke="black" points="340.5,292 555.5,292 "/>
<polyline fill="none" stroke="black" points="340.5,316 555.5,316 "/>
<text text-anchor="start" x="348.5" y="331.2" font-family="Times,serif" font-size="14.00">_layout</text>
</g>
<!-- Admin::DepositsController -->
<g id="node13" class="node"><title>Admin::DepositsController</title>
<path fill="none" stroke="black" d="M267.5,458.5C267.5,458.5 408.5,458.5 408.5,458.5 414.5,458.5 420.5,452.5 420.5,446.5 420.5,446.5 420.5,377.5 420.5,377.5 420.5,371.5 414.5,365.5 408.5,365.5 408.5,365.5 267.5,365.5 267.5,365.5 261.5,365.5 255.5,371.5 255.5,377.5 255.5,377.5 255.5,446.5 255.5,446.5 255.5,452.5 261.5,458.5 267.5,458.5"/>
<text text-anchor="middle" x="338" y="380.7" font-family="Times,serif" font-size="14.00">Admin::DepositsController</text>
<polyline fill="none" stroke="black" points="255.5,388.5 420.5,388.5 "/>
<text text-anchor="start" x="263.5" y="403.7" font-family="Times,serif" font-size="14.00">attributes_hash_is_empty?</text>
<polyline fill="none" stroke="black" points="255.5,411.5 420.5,411.5 "/>
<polyline fill="none" stroke="black" points="255.5,435.5 420.5,435.5 "/>
<text text-anchor="start" x="263.5" y="450.7" font-family="Times,serif" font-size="14.00">_layout</text>
</g>
<!-- Admin::ShareholderIntermediariesController -->
<g id="node14" class="node"><title>Admin::ShareholderIntermediariesController</title>
<path fill="none" stroke="black" d="M165,152C165,152 403,152 403,152 409,152 415,146 415,140 415,140 415,70 415,70 415,64 409,58 403,58 403,58 165,58 165,58 159,58 153,64 153,70 153,70 153,140 153,140 153,146 159,152 165,152"/>
<text text-anchor="middle" x="284" y="73.2" font-family="Times,serif" font-size="14.00">Admin::ShareholderIntermediariesController</text>
<polyline fill="none" stroke="black" points="153,81 415,81 "/>
<polyline fill="none" stroke="black" points="153,105 415,105 "/>
<polyline fill="none" stroke="black" points="153,129 415,129 "/>
<text text-anchor="start" x="161" y="144.2" font-family="Times,serif" font-size="14.00">_layout</text>
</g>
<!-- Admin::ReportsController -->
<g id="node15" class="node"><title>Admin::ReportsController</title>
<path fill="none" stroke="black" d="M471,475C471,475 607,475 607,475 613,475 619,469 619,463 619,463 619,393 619,393 619,387 613,381 607,381 607,381 471,381 471,381 465,381 459,387 459,393 459,393 459,463 459,463 459,469 465,475 471,475"/>
<text text-anchor="middle" x="539" y="396.2" font-family="Times,serif" font-size="14.00">Admin::ReportsController</text>
<polyline fill="none" stroke="black" points="459,404 619,404 "/>
<polyline fill="none" stroke="black" points="459,428 619,428 "/>
<polyline fill="none" stroke="black" points="459,452 619,452 "/>
<text text-anchor="start" x="467" y="467.2" font-family="Times,serif" font-size="14.00">_layout</text>
</g>
<!-- Admin::StockExchangesController -->
<g id="node16" class="node"><title>Admin::StockExchangesController</title>
<path fill="none" stroke="black" d="M-344.5,-35C-344.5,-35 -161.5,-35 -161.5,-35 -155.5,-35 -149.5,-41 -149.5,-47 -149.5,-47 -149.5,-117 -149.5,-117 -149.5,-123 -155.5,-129 -161.5,-129 -161.5,-129 -344.5,-129 -344.5,-129 -350.5,-129 -356.5,-123 -356.5,-117 -356.5,-117 -356.5,-47 -356.5,-47 -356.5,-41 -350.5,-35 -344.5,-35"/>
<text text-anchor="middle" x="-253" y="-113.8" font-family="Times,serif" font-size="14.00">Admin::StockExchangesController</text>
<polyline fill="none" stroke="black" points="-356.5,-106 -149.5,-106 "/>
<polyline fill="none" stroke="black" points="-356.5,-82 -149.5,-82 "/>
<polyline fill="none" stroke="black" points="-356.5,-58 -149.5,-58 "/>
<text text-anchor="start" x="-348.5" y="-42.8" font-family="Times,serif" font-size="14.00">_layout</text>
</g>
<!-- Admin::FlowsPayableUnderContractsController -->
<g id="node17" class="node"><title>Admin::FlowsPayableUnderContractsController</title>
<path fill="none" stroke="black" d="M131.5,-120C131.5,-120 386.5,-120 386.5,-120 392.5,-120 398.5,-126 398.5,-132 398.5,-132 398.5,-202 398.5,-202 398.5,-208 392.5,-214 386.5,-214 386.5,-214 131.5,-214 131.5,-214 125.5,-214 119.5,-208 119.5,-202 119.5,-202 119.5,-132 119.5,-132 119.5,-126 125.5,-120 131.5,-120"/>
<text text-anchor="middle" x="259" y="-198.8" font-family="Times,serif" font-size="14.00">Admin::FlowsPayableUnderContractsController</text>
<polyline fill="none" stroke="black" points="119.5,-191 398.5,-191 "/>
<polyline fill="none" stroke="black" points="119.5,-167 398.5,-167 "/>
<polyline fill="none" stroke="black" points="119.5,-143 398.5,-143 "/>
<text text-anchor="start" x="127.5" y="-127.8" font-family="Times,serif" font-size="14.00">_layout</text>
</g>
<!-- Admin::SocialProjectsController -->
<g id="node18" class="node"><title>Admin::SocialProjectsController</title>
<path fill="none" stroke="black" d="M453.5,203C453.5,203 624.5,203 624.5,203 630.5,203 636.5,197 636.5,191 636.5,191 636.5,121 636.5,121 636.5,115 630.5,109 624.5,109 624.5,109 453.5,109 453.5,109 447.5,109 441.5,115 441.5,121 441.5,121 441.5,191 441.5,191 441.5,197 447.5,203 453.5,203"/>
<text text-anchor="middle" x="539" y="124.2" font-family="Times,serif" font-size="14.00">Admin::SocialProjectsController</text>
<polyline fill="none" stroke="black" points="441.5,132 636.5,132 "/>
<polyline fill="none" stroke="black" points="441.5,156 636.5,156 "/>
<polyline fill="none" stroke="black" points="441.5,180 636.5,180 "/>
<text text-anchor="start" x="449.5" y="195.2" font-family="Times,serif" font-size="14.00">_layout</text>
</g>
<!-- Admin::AuthorsController -->
<g id="node19" class="node"><title>Admin::AuthorsController</title>
<path fill="none" stroke="black" d="M-463.5,-307C-463.5,-307 -326.5,-307 -326.5,-307 -320.5,-307 -314.5,-313 -314.5,-319 -314.5,-319 -314.5,-389 -314.5,-389 -314.5,-395 -320.5,-401 -326.5,-401 -326.5,-401 -463.5,-401 -463.5,-401 -469.5,-401 -475.5,-395 -475.5,-389 -475.5,-389 -475.5,-319 -475.5,-319 -475.5,-313 -469.5,-307 -463.5,-307"/>
<text text-anchor="middle" x="-395" y="-385.8" font-family="Times,serif" font-size="14.00">Admin::AuthorsController</text>
<polyline fill="none" stroke="black" points="-475.5,-378 -314.5,-378 "/>
<polyline fill="none" stroke="black" points="-475.5,-354 -314.5,-354 "/>
<polyline fill="none" stroke="black" points="-475.5,-330 -314.5,-330 "/>
<text text-anchor="start" x="-467.5" y="-314.8" font-family="Times,serif" font-size="14.00">_layout</text>
</g>
<!-- Admin::EnvAndSocialObligationsController -->
<g id="node20" class="node"><title>Admin::EnvAndSocialObligationsController</title>
<path fill="none" stroke="black" d="M165,16C165,16 401,16 401,16 407,16 413,10 413,4 413,4 413,-66 413,-66 413,-72 407,-78 401,-78 401,-78 165,-78 165,-78 159,-78 153,-72 153,-66 153,-66 153,4 153,4 153,10 159,16 165,16"/>
<text text-anchor="middle" x="283" y="-62.8" font-family="Times,serif" font-size="14.00">Admin::EnvAndSocialObligationsController</text>
<polyline fill="none" stroke="black" points="153,-55 413,-55 "/>
<polyline fill="none" stroke="black" points="153,-31 413,-31 "/>
<polyline fill="none" stroke="black" points="153,-7 413,-7 "/>
<text text-anchor="start" x="161" y="8.2" font-family="Times,serif" font-size="14.00">_layout</text>
</g>
<!-- Admin::StockExchangeCountriesController -->
<g id="node21" class="node"><title>Admin::StockExchangeCountriesController</title>
<path fill="none" stroke="black" d="M63,288C63,288 293,288 293,288 299,288 305,282 305,276 305,276 305,206 305,206 305,200 299,194 293,194 293,194 63,194 63,194 57,194 51,200 51,206 51,206 51,276 51,276 51,282 57,288 63,288"/>
<text text-anchor="middle" x="178" y="209.2" font-family="Times,serif" font-size="14.00">Admin::StockExchangeCountriesController</text>
<polyline fill="none" stroke="black" points="51,217 305,217 "/>
<polyline fill="none" stroke="black" points="51,241 305,241 "/>
<polyline fill="none" stroke="black" points="51,265 305,265 "/>
<text text-anchor="start" x="59" y="280.2" font-family="Times,serif" font-size="14.00">_layout</text>
</g>
<!-- Admin::ShareholderRelationshipsController -->
<g id="node22" class="node"><title>Admin::ShareholderRelationshipsController</title>
<path fill="none" stroke="black" d="M-157.5,-171C-157.5,-171 75.5,-171 75.5,-171 81.5,-171 87.5,-177 87.5,-183 87.5,-183 87.5,-253 87.5,-253 87.5,-259 81.5,-265 75.5,-265 75.5,-265 -157.5,-265 -157.5,-265 -163.5,-265 -169.5,-259 -169.5,-253 -169.5,-253 -169.5,-183 -169.5,-183 -169.5,-177 -163.5,-171 -157.5,-171"/>
<text text-anchor="middle" x="-41" y="-249.8" font-family="Times,serif" font-size="14.00">Admin::ShareholderRelationshipsController</text>
<polyline fill="none" stroke="black" points="-169.5,-242 87.5,-242 "/>
<polyline fill="none" stroke="black" points="-169.5,-218 87.5,-218 "/>
<polyline fill="none" stroke="black" points="-169.5,-194 87.5,-194 "/>
<text text-anchor="start" x="-161.5" y="-178.8" font-family="Times,serif" font-size="14.00">_layout</text>
</g>
<!-- Admin::ReportRelationsController -->
<g id="node23" class="node"><title>Admin::ReportRelationsController</title>
<path fill="none" stroke="black" d="M-345,101C-345,101 -163,101 -163,101 -157,101 -151,95 -151,89 -151,89 -151,19 -151,19 -151,13 -157,7 -163,7 -163,7 -345,7 -345,7 -351,7 -357,13 -357,19 -357,19 -357,89 -357,89 -357,95 -351,101 -345,101"/>
<text text-anchor="middle" x="-254" y="22.2" font-family="Times,serif" font-size="14.00">Admin::ReportRelationsController</text>
<polyline fill="none" stroke="black" points="-357,30 -151,30 "/>
<polyline fill="none" stroke="black" points="-357,54 -151,54 "/>
<polyline fill="none" stroke="black" points="-357,78 -151,78 "/>
<text text-anchor="start" x="-349" y="93.2" font-family="Times,serif" font-size="14.00">_layout</text>
</g>
<!-- Admin::IntermediaryCompaniesController -->
<g id="node24" class="node"><title>Admin::IntermediaryCompaniesController</title>
<path fill="none" stroke="black" d="M-22,-307C-22,-307 204,-307 204,-307 210,-307 216,-313 216,-319 216,-319 216,-389 216,-389 216,-395 210,-401 204,-401 204,-401 -22,-401 -22,-401 -28,-401 -34,-395 -34,-389 -34,-389 -34,-319 -34,-319 -34,-313 -28,-307 -22,-307"/>
<text text-anchor="middle" x="91" y="-385.8" font-family="Times,serif" font-size="14.00">Admin::IntermediaryCompaniesController</text>
<polyline fill="none" stroke="black" points="-34,-378 216,-378 "/>
<polyline fill="none" stroke="black" points="-34,-354 216,-354 "/>
<polyline fill="none" stroke="black" points="-34,-330 216,-330 "/>
<text text-anchor="start" x="-26" y="-314.8" font-family="Times,serif" font-size="14.00">_layout</text>
</g>
<!-- Admin::PagesController -->
<g id="node25" class="node"><title>Admin::PagesController</title>
<path fill="none" stroke="black" d="M504.5,-256C504.5,-256 629.5,-256 629.5,-256 635.5,-256 641.5,-262 641.5,-268 641.5,-268 641.5,-338 641.5,-338 641.5,-344 635.5,-350 629.5,-350 629.5,-350 504.5,-350 504.5,-350 498.5,-350 492.5,-344 492.5,-338 492.5,-338 492.5,-268 492.5,-268 492.5,-262 498.5,-256 504.5,-256"/>
<text text-anchor="middle" x="567" y="-334.8" font-family="Times,serif" font-size="14.00">Admin::PagesController</text>
<polyline fill="none" stroke="black" points="492.5,-327 641.5,-327 "/>
<polyline fill="none" stroke="black" points="492.5,-303 641.5,-303 "/>
<polyline fill="none" stroke="black" points="492.5,-279 641.5,-279 "/>
<text text-anchor="start" x="500.5" y="-263.8" font-family="Times,serif" font-size="14.00">_layout</text>
</g>
<!-- Admin::ProductionExportsController -->
<g id="node26" class="node"><title>Admin::ProductionExportsController</title>
<path fill="none" stroke="black" d="M-361.5,373C-361.5,373 -166.5,373 -166.5,373 -160.5,373 -154.5,367 -154.5,361 -154.5,361 -154.5,291 -154.5,291 -154.5,285 -160.5,279 -166.5,279 -166.5,279 -361.5,279 -361.5,279 -367.5,279 -373.5,285 -373.5,291 -373.5,291 -373.5,361 -373.5,361 -373.5,367 -367.5,373 -361.5,373"/>
<text text-anchor="middle" x="-264" y="294.2" font-family="Times,serif" font-size="14.00">Admin::ProductionExportsController</text>
<polyline fill="none" stroke="black" points="-373.5,302 -154.5,302 "/>
<polyline fill="none" stroke="black" points="-373.5,326 -154.5,326 "/>
<polyline fill="none" stroke="black" points="-373.5,350 -154.5,350 "/>
<text text-anchor="start" x="-365.5" y="365.2" font-family="Times,serif" font-size="14.00">_layout</text>
</g>
<!-- Admin::EmployeesController -->
<g id="node27" class="node"><title>Admin::EmployeesController</title>
<path fill="none" stroke="black" d="M-429.5,-443C-429.5,-443 -274.5,-443 -274.5,-443 -268.5,-443 -262.5,-449 -262.5,-455 -262.5,-455 -262.5,-525 -262.5,-525 -262.5,-531 -268.5,-537 -274.5,-537 -274.5,-537 -429.5,-537 -429.5,-537 -435.5,-537 -441.5,-531 -441.5,-525 -441.5,-525 -441.5,-455 -441.5,-455 -441.5,-449 -435.5,-443 -429.5,-443"/>
<text text-anchor="middle" x="-352" y="-521.8" font-family="Times,serif" font-size="14.00">Admin::EmployeesController</text>
<polyline fill="none" stroke="black" points="-441.5,-514 -262.5,-514 "/>
<polyline fill="none" stroke="black" points="-441.5,-490 -262.5,-490 "/>
<polyline fill="none" stroke="black" points="-441.5,-466 -262.5,-466 "/>
<text text-anchor="start" x="-433.5" y="-450.8" font-family="Times,serif" font-size="14.00">_layout</text>
</g>
<!-- Admin::TaxObligationsController -->
<g id="node28" class="node"><title>Admin::TaxObligationsController</title>
<path fill="none" stroke="black" d="M454,67C454,67 632,67 632,67 638,67 644,61 644,55 644,55 644,-15 644,-15 644,-21 638,-27 632,-27 632,-27 454,-27 454,-27 448,-27 442,-21 442,-15 442,-15 442,55 442,55 442,61 448,67 454,67"/>
<text text-anchor="middle" x="543" y="-11.8" font-family="Times,serif" font-size="14.00">Admin::TaxObligationsController</text>
<polyline fill="none" stroke="black" points="442,-4 644,-4 "/>
<polyline fill="none" stroke="black" points="442,20 644,20 "/>
<polyline fill="none" stroke="black" points="442,44 644,44 "/>
<text text-anchor="start" x="450" y="59.2" font-family="Times,serif" font-size="14.00">_layout</text>
</g>
<!-- CategoriesController -->
<g id="node29" class="node"><title>CategoriesController</title>
<path fill="none" stroke="black" d="M12,526.5C12,526.5 118,526.5 118,526.5 124,526.5 130,520.5 130,514.5 130,514.5 130,445.5 130,445.5 130,439.5 124,433.5 118,433.5 118,433.5 12,433.5 12,433.5 6,433.5 0,439.5 0,445.5 0,445.5 0,514.5 0,514.5 0,520.5 6,526.5 12,526.5"/>
<text text-anchor="middle" x="65" y="448.7" font-family="Times,serif" font-size="14.00">CategoriesController</text>
<polyline fill="none" stroke="black" points="0,456.5 130,456.5 "/>
<text text-anchor="start" x="8" y="471.7" font-family="Times,serif" font-size="14.00">show</text>
<polyline fill="none" stroke="black" points="0,479.5 130,479.5 "/>
<polyline fill="none" stroke="black" points="0,503.5 130,503.5 "/>
<text text-anchor="start" x="8" y="518.7" font-family="Times,serif" font-size="14.00">_layout</text>
</g>
<!-- ShareholdersController -->
<g id="node30" class="node"><title>ShareholdersController</title>
<path fill="none" stroke="black" d="M-480.5,492.5C-480.5,492.5 -361.5,492.5 -361.5,492.5 -355.5,492.5 -349.5,486.5 -349.5,480.5 -349.5,480.5 -349.5,411.5 -349.5,411.5 -349.5,405.5 -355.5,399.5 -361.5,399.5 -361.5,399.5 -480.5,399.5 -480.5,399.5 -486.5,399.5 -492.5,405.5 -492.5,411.5 -492.5,411.5 -492.5,480.5 -492.5,480.5 -492.5,486.5 -486.5,492.5 -480.5,492.5"/>
<text text-anchor="middle" x="-421" y="414.7" font-family="Times,serif" font-size="14.00">ShareholdersController</text>
<polyline fill="none" stroke="black" points="-492.5,422.5 -349.5,422.5 "/>
<text text-anchor="start" x="-484.5" y="437.7" font-family="Times,serif" font-size="14.00">show</text>
<polyline fill="none" stroke="black" points="-492.5,445.5 -349.5,445.5 "/>
<polyline fill="none" stroke="black" points="-492.5,469.5 -349.5,469.5 "/>
<text text-anchor="start" x="-484.5" y="484.7" font-family="Times,serif" font-size="14.00">_layout</text>
</g>
<!-- DrcCompaniesController -->
<g id="node31" class="node"><title>DrcCompaniesController</title>
<path fill="none" stroke="black" d="M-107.5,101.5C-107.5,101.5 99.5,101.5 99.5,101.5 105.5,101.5 111.5,95.5 111.5,89.5 111.5,89.5 111.5,-69.5 111.5,-69.5 111.5,-75.5 105.5,-81.5 99.5,-81.5 99.5,-81.5 -107.5,-81.5 -107.5,-81.5 -113.5,-81.5 -119.5,-75.5 -119.5,-69.5 -119.5,-69.5 -119.5,89.5 -119.5,89.5 -119.5,95.5 -113.5,101.5 -107.5,101.5"/>
<text text-anchor="middle" x="-4" y="-66.3" font-family="Times,serif" font-size="14.00">DrcCompaniesController</text>
<polyline fill="none" stroke="black" points="-119.5,-58.5 111.5,-58.5 "/>
<text text-anchor="start" x="-111.5" y="-43.3" font-family="Times,serif" font-size="14.00">get_deposits_geodata</text>
<text text-anchor="start" x="-111.5" y="-28.3" font-family="Times,serif" font-size="14.00">get_geodata</text>
<text text-anchor="start" x="-111.5" y="-13.3" font-family="Times,serif" font-size="14.00">get_processing_infrastructures_geodata</text>
<text text-anchor="start" x="-111.5" y="1.7" font-family="Times,serif" font-size="14.00">get_social_projects_geodata</text>
<text text-anchor="start" x="-111.5" y="16.7" font-family="Times,serif" font-size="14.00">index</text>
<text text-anchor="start" x="-111.5" y="31.7" font-family="Times,serif" font-size="14.00">show</text>
<polyline fill="none" stroke="black" points="-119.5,39.5 111.5,39.5 "/>
<polyline fill="none" stroke="black" points="-119.5,63.5 111.5,63.5 "/>
<text text-anchor="start" x="-111.5" y="78.7" font-family="Times,serif" font-size="14.00">_layout</text>
<text text-anchor="start" x="-111.5" y="93.7" font-family="Times,serif" font-size="14.00">drc_company_params</text>
</g>
<!-- ApplicationController -->
<g id="node32" class="node"><title>ApplicationController</title>
<path fill="none" stroke="black" d="M-532,-187.5C-532,-187.5 -420,-187.5 -420,-187.5 -414,-187.5 -408,-193.5 -408,-199.5 -408,-199.5 -408,-268.5 -408,-268.5 -408,-274.5 -414,-280.5 -420,-280.5 -420,-280.5 -532,-280.5 -532,-280.5 -538,-280.5 -544,-274.5 -544,-268.5 -544,-268.5 -544,-199.5 -544,-199.5 -544,-193.5 -538,-187.5 -532,-187.5"/>
<text text-anchor="middle" x="-476" y="-265.3" font-family="Times,serif" font-size="14.00">ApplicationController</text>
<polyline fill="none" stroke="black" points="-544,-257.5 -408,-257.5 "/>
<text text-anchor="start" x="-536" y="-242.3" font-family="Times,serif" font-size="14.00">set_locale</text>
<polyline fill="none" stroke="black" points="-544,-234.5 -408,-234.5 "/>
<polyline fill="none" stroke="black" points="-544,-210.5 -408,-210.5 "/>
<text text-anchor="start" x="-536" y="-195.3" font-family="Times,serif" font-size="14.00">_layout</text>
</g>
<!-- ReportsController -->
<g id="node33" class="node"><title>ReportsController</title>
<path fill="none" stroke="black" d="M-498,-0.5C-498,-0.5 -408,-0.5 -408,-0.5 -402,-0.5 -396,-6.5 -396,-12.5 -396,-12.5 -396,-111.5 -396,-111.5 -396,-117.5 -402,-123.5 -408,-123.5 -408,-123.5 -498,-123.5 -498,-123.5 -504,-123.5 -510,-117.5 -510,-111.5 -510,-111.5 -510,-12.5 -510,-12.5 -510,-6.5 -504,-0.5 -498,-0.5"/>
<text text-anchor="middle" x="-453" y="-108.3" font-family="Times,serif" font-size="14.00">ReportsController</text>
<polyline fill="none" stroke="black" points="-510,-100.5 -396,-100.5 "/>
<text text-anchor="start" x="-502" y="-85.3" font-family="Times,serif" font-size="14.00">index</text>
<text text-anchor="start" x="-502" y="-70.3" font-family="Times,serif" font-size="14.00">show</text>
<polyline fill="none" stroke="black" points="-510,-62.5 -396,-62.5 "/>
<polyline fill="none" stroke="black" points="-510,-38.5 -396,-38.5 "/>
<text text-anchor="start" x="-502" y="-23.3" font-family="Times,serif" font-size="14.00">_layout</text>
<text text-anchor="start" x="-502" y="-8.3" font-family="Times,serif" font-size="14.00">report_params</text>
</g>
<!-- SearchesController -->
<g id="node34" class="node"><title>SearchesController</title>
<path fill="none" stroke="black" d="M-515,357C-515,357 -419,357 -419,357 -413,357 -407,351 -407,345 -407,345 -407,277 -407,277 -407,271 -413,265 -419,265 -419,265 -515,265 -515,265 -521,265 -527,271 -527,277 -527,277 -527,345 -527,345 -527,351 -521,357 -515,357"/>
<text text-anchor="middle" x="-467" y="280.2" font-family="Times,serif" font-size="14.00">SearchesController</text>
<polyline fill="none" stroke="black" points="-527,288 -407,288 "/>
<text text-anchor="start" x="-519" y="303.2" font-family="Times,serif" font-size="14.00">show</text>
<polyline fill="none" stroke="black" points="-527,311 -407,311 "/>
<text text-anchor="start" x="-519" y="326.2" font-family="Times,serif" font-size="14.00">search</text>
<polyline fill="none" stroke="black" points="-527,334 -407,334 "/>
<text text-anchor="start" x="-519" y="349.2" font-family="Times,serif" font-size="14.00">_layout</text>
</g>
<!-- PagesController -->
<g id="node35" class="node"><title>PagesController</title>
<path fill="none" stroke="black" d="M-310.5,526C-310.5,526 -221.5,526 -221.5,526 -215.5,526 -209.5,520 -209.5,514 -209.5,514 -209.5,416 -209.5,416 -209.5,410 -215.5,404 -221.5,404 -221.5,404 -310.5,404 -310.5,404 -316.5,404 -322.5,410 -322.5,416 -322.5,416 -322.5,514 -322.5,514 -322.5,520 -316.5,526 -310.5,526"/>
<text text-anchor="middle" x="-266" y="419.2" font-family="Times,serif" font-size="14.00">PagesController</text>
<polyline fill="none" stroke="black" points="-322.5,427 -209.5,427 "/>
<text text-anchor="start" x="-314.5" y="442.2" font-family="Times,serif" font-size="14.00">show</text>
<text text-anchor="start" x="-314.5" y="457.2" font-family="Times,serif" font-size="14.00">show_sicomines</text>
<polyline fill="none" stroke="black" points="-322.5,465 -209.5,465 "/>
<text text-anchor="start" x="-314.5" y="480.2" font-family="Times,serif" font-size="14.00">sicomines?</text>
<text text-anchor="start" x="-314.5" y="495.2" font-family="Times,serif" font-size="14.00">sicomines_search</text>
<polyline fill="none" stroke="black" points="-322.5,503 -209.5,503 "/>
<text text-anchor="start" x="-314.5" y="518.2" font-family="Times,serif" font-size="14.00">_layout</text>
</g>
<!-- StaticPagesController -->
<g id="node36" class="node"><title>StaticPagesController</title>
<path fill="none" stroke="black" d="M-158,509C-158,509 -48,509 -48,509 -42,509 -36,503 -36,497 -36,497 -36,413 -36,413 -36,407 -42,401 -48,401 -48,401 -158,401 -158,401 -164,401 -170,407 -170,413 -170,413 -170,497 -170,497 -170,503 -164,509 -158,509"/>
<text text-anchor="middle" x="-103" y="416.2" font-family="Times,serif" font-size="14.00">StaticPagesController</text>
<polyline fill="none" stroke="black" points="-170,424 -36,424 "/>
<text text-anchor="start" x="-162" y="439.2" font-family="Times,serif" font-size="14.00">about</text>
<text text-anchor="start" x="-162" y="454.2" font-family="Times,serif" font-size="14.00">home</text>
<polyline fill="none" stroke="black" points="-170,462 -36,462 "/>
<polyline fill="none" stroke="black" points="-170,486 -36,486 "/>
<text text-anchor="start" x="-162" y="501.2" font-family="Times,serif" font-size="14.00">_layout</text>
</g>
</g>
</svg>
