<?xml version="1.0" encoding="UTF-8" standalone="no"?>
<!DOCTYPE svg PUBLIC "-//W3C//DTD SVG 1.1//EN"
 "http://www.w3.org/Graphics/SVG/1.1/DTD/svg11.dtd">
<!-- Generated by graphviz version 2.38.0 (20140413.2041)
 -->
<!-- Title: models_diagram Pages: 1 -->
<svg width="907pt" height="302pt"
 viewBox="0.00 0.00 907.04 302.00" xmlns="http://www.w3.org/2000/svg" xmlns:xlink="http://www.w3.org/1999/xlink">
<g id="graph0" class="graph" transform="scale(1 1) rotate(0) translate(4 298)">
<title>models_diagram</title>
<polygon fill="white" stroke="none" points="-4,4 -4,-298 903.042,-298 903.042,4 -4,4"/>
<!-- _diagram_info -->
<g id="node1" class="node"><title>_diagram_info</title>
<text text-anchor="start" x="52.2953" y="-279.6" font-family="Times,serif" font-size="13.00">Models diagram</text>
<text text-anchor="start" x="52.2953" y="-265.6" font-family="Times,serif" font-size="13.00">Date: Mar 27 2015 &#45; 06:44</text>
<text text-anchor="start" x="52.2953" y="-251.6" font-family="Times,serif" font-size="13.00">Migration version: 20150226155606</text>
<text text-anchor="start" x="52.2953" y="-237.6" font-family="Times,serif" font-size="13.00">Generated by RailRoady 1.3.0</text>
<text text-anchor="start" x="52.2953" y="-223.6" font-family="Times,serif" font-size="13.00">http://railroady.prestonlee.com</text>
</g>
<!-- StockExchangeCountry -->
<g id="node2" class="node"><title>StockExchangeCountry</title>
<ellipse fill="none" stroke="black" cx="175.295" cy="-162" rx="94.4839" ry="18"/>
<text text-anchor="middle" x="175.295" y="-158.3" font-family="Times,serif" font-size="14.00">StockExchangeCountry</text>
</g>
<!-- ProductionExport -->
<g id="node3" class="node"><title>ProductionExport</title>
<ellipse fill="none" stroke="black" cx="198.295" cy="-90" rx="73.387" ry="18"/>
<text text-anchor="middle" x="198.295" y="-86.3" font-family="Times,serif" font-size="14.00">ProductionExport</text>
</g>
<!-- Source -->
<g id="node4" class="node"><title>Source</title>
<ellipse fill="none" stroke="black" cx="542.295" cy="-255" rx="35.194" ry="18"/>
<text text-anchor="middle" x="542.295" y="-251.3" font-family="Times,serif" font-size="14.00">Source</text>
</g>
<!-- CongoleseCompany -->
<g id="node5" class="node"><title>CongoleseCompany</title>
<ellipse fill="none" stroke="black" cx="370.295" cy="-162" rx="82.5854" ry="18"/>
<text text-anchor="middle" x="370.295" y="-158.3" font-family="Times,serif" font-size="14.00">CongoleseCompany</text>
</g>
<!-- CongoleseCompany&#45;&gt;ProductionExport -->
<g id="edge1" class="edge"><title>CongoleseCompany&#45;&gt;ProductionExport</title>
<path fill="none" stroke="#913a0a" d="M325.563,-142.795C300.387,-132.549 269.026,-119.786 243.735,-109.493"/>
<ellipse fill="none" stroke="#913a0a" cx="329.269" cy="-144.303" rx="4.00002" ry="4.00002"/>
<polygon fill="#913a0a" stroke="#913a0a" points="243.628,-109.449 236.062,-101.512 238.996,-107.564 234.365,-105.68 234.365,-105.68 234.365,-105.68 238.996,-107.564 232.669,-109.848 243.628,-109.449 243.628,-109.449"/>
</g>
<!-- ShareholderRelationship -->
<g id="node7" class="node"><title>ShareholderRelationship</title>
<ellipse fill="none" stroke="black" cx="299.295" cy="-18" rx="97.4827" ry="18"/>
<text text-anchor="middle" x="299.295" y="-14.3" font-family="Times,serif" font-size="14.00">ShareholderRelationship</text>
</g>
<!-- CongoleseCompany&#45;&gt;ShareholderRelationship -->
<g id="edge4" class="edge"><title>CongoleseCompany&#45;&gt;ShareholderRelationship</title>
<path fill="none" stroke="#3cbb08" d="M343.163,-139.038C333.986,-130.289 324.502,-119.55 318.295,-108 307.98,-88.8038 303.264,-64.457 301.109,-46.0822"/>
<ellipse fill="none" stroke="#3cbb08" cx="346.163" cy="-141.786" rx="4.00002" ry="4.00002"/>
<polygon fill="#3cbb08" stroke="#3cbb08" points="301.1,-45.9888 304.591,-35.5934 300.607,-41.0132 300.113,-36.0376 300.113,-36.0376 300.113,-36.0376 300.607,-41.0132 295.635,-36.4817 301.1,-45.9888 301.1,-45.9888"/>
</g>
<!-- Shareholder -->
<g id="node8" class="node"><title>Shareholder</title>
<ellipse fill="none" stroke="black" cx="53.2953" cy="-90" rx="53.0913" ry="18"/>
<text text-anchor="middle" x="53.2953" y="-86.3" font-family="Times,serif" font-size="14.00">Shareholder</text>
</g>
<!-- CongoleseCompany&#45;&gt;Shareholder -->
<g id="edge5" class="edge"><title>CongoleseCompany&#45;&gt;Shareholder</title>
<path fill="none" stroke="#10ab75" d="M300.586,-147.584C249.415,-137.462 178.318,-122.826 116.295,-108 111.964,-106.965 107.477,-105.846 102.984,-104.695"/>
<polygon fill="#10ab75" stroke="#10ab75" points="300.735,-147.613 309.676,-153.962 305.64,-148.58 310.546,-149.547 310.546,-149.547 310.546,-149.547 305.64,-148.58 311.416,-145.132 300.735,-147.613 300.735,-147.613"/>
<polygon fill="#10ab75" stroke="#10ab75" points="102.875,-104.667 94.3358,-97.787 98.0373,-103.404 93.1993,-102.141 93.1993,-102.141 93.1993,-102.141 98.0373,-103.404 92.0629,-106.495 102.875,-104.667 102.875,-104.667"/>
</g>
<!-- TaxObligation -->
<g id="node10" class="node"><title>TaxObligation</title>
<ellipse fill="none" stroke="black" cx="389.295" cy="-90" rx="61.99" ry="18"/>
<text text-anchor="middle" x="389.295" y="-86.3" font-family="Times,serif" font-size="14.00">TaxObligation</text>
</g>
<!-- CongoleseCompany&#45;&gt;TaxObligation -->
<g id="edge2" class="edge"><title>CongoleseCompany&#45;&gt;TaxObligation</title>
<path fill="none" stroke="#2b2a3e" d="M377.103,-135.92C378.668,-130.154 380.339,-123.997 381.927,-118.148"/>
<ellipse fill="none" stroke="#2b2a3e" cx="376.04" cy="-139.836" rx="4.00001" ry="4.00001"/>
<polygon fill="#2b2a3e" stroke="#2b2a3e" points="382.033,-117.755 388.996,-109.283 383.343,-112.93 384.653,-108.104 384.653,-108.104 384.653,-108.104 383.343,-112.93 380.31,-106.926 382.033,-117.755 382.033,-117.755"/>
</g>
<!-- EnvAndSocialObligation -->
<g id="node12" class="node"><title>EnvAndSocialObligation</title>
<ellipse fill="none" stroke="black" cx="568.295" cy="-90" rx="99.3824" ry="18"/>
<text text-anchor="middle" x="568.295" y="-86.3" font-family="Times,serif" font-size="14.00">EnvAndSocialObligation</text>
</g>
<!-- CongoleseCompany&#45;&gt;EnvAndSocialObligation -->
<g id="edge3" class="edge"><title>CongoleseCompany&#45;&gt;EnvAndSocialObligation</title>
<path fill="none" stroke="#6f8306" d="M419.408,-143.637C448.557,-133.332 485.517,-120.265 515.32,-109.729"/>
<ellipse fill="none" stroke="#6f8306" cx="415.574" cy="-144.992" rx="4.00001" ry="4.00001"/>
<polygon fill="#6f8306" stroke="#6f8306" points="515.703,-109.593 526.631,-110.503 520.417,-107.927 525.131,-106.26 525.131,-106.26 525.131,-106.26 520.417,-107.927 523.631,-102.017 515.703,-109.593 515.703,-109.593"/>
</g>
<!-- StockExchange -->
<g id="node6" class="node"><title>StockExchange</title>
<ellipse fill="none" stroke="black" cx="536.295" cy="-162" rx="65.7887" ry="18"/>
<text text-anchor="middle" x="536.295" y="-158.3" font-family="Times,serif" font-size="14.00">StockExchange</text>
</g>
<!-- Shareholder&#45;&gt;ShareholderRelationship -->
<g id="edge6" class="edge"><title>Shareholder&#45;&gt;ShareholderRelationship</title>
<path fill="none" stroke="#eeb5f7" d="M100.755,-75.4952C140.047,-64.3144 196.124,-48.3578 238.664,-36.2527"/>
<ellipse fill="none" stroke="#eeb5f7" cx="96.6667" cy="-76.6585" rx="4.00001" ry="4.00001"/>
<polygon fill="#eeb5f7" stroke="#eeb5f7" points="238.727,-36.235 249.577,-37.8263 243.536,-34.8665 248.345,-33.4981 248.345,-33.4981 248.345,-33.4981 243.536,-34.8665 247.113,-29.1699 238.727,-36.235 238.727,-36.235"/>
</g>
<!-- MultinationalCompany -->
<g id="node9" class="node"><title>MultinationalCompany</title>
<ellipse fill="none" stroke="black" cx="370.295" cy="-255" rx="93.6835" ry="18"/>
<text text-anchor="middle" x="370.295" y="-251.3" font-family="Times,serif" font-size="14.00">MultinationalCompany</text>
</g>
<!-- Shareholder&#45;&gt;MultinationalCompany -->
<g id="edge7" class="edge"><title>Shareholder&#45;&gt;MultinationalCompany</title>
<path fill="none" stroke="#b0a607" d="M51.6574,-118.049C52.0072,-137.923 55.9743,-164.126 72.2953,-180 135.473,-241.447 182.31,-192.663 267.295,-216 285.905,-221.11 305.906,-228.122 323.287,-234.733"/>
<polygon fill="#b0a607" stroke="#b0a607" points="51.6573,-118.043 56.2683,-108.094 51.7129,-113.043 51.7686,-108.043 51.7686,-108.043 51.7686,-108.043 51.7129,-113.043 47.2688,-107.993 51.6573,-118.043 51.6573,-118.043"/>
<polygon fill="#b0a607" stroke="#b0a607" points="323.319,-234.745 331.026,-242.547 327.983,-236.547 332.647,-238.349 332.647,-238.349 332.647,-238.349 327.983,-236.547 334.269,-234.151 323.319,-234.745 323.319,-234.745"/>
</g>
<!-- MultinationalCompany&#45;&gt;StockExchangeCountry -->
<g id="edge10" class="edge"><title>MultinationalCompany&#45;&gt;StockExchangeCountry</title>
<path fill="none" stroke="#7370e1" d="M327.164,-233.872C294.822,-218.779 250.748,-198.211 218.41,-183.12"/>
<polygon fill="#7370e1" stroke="#7370e1" points="327.267,-233.92 334.426,-242.227 331.798,-236.035 336.329,-238.149 336.329,-238.149 336.329,-238.149 331.798,-236.035 338.232,-234.071 327.267,-233.92 327.267,-233.92"/>
<polygon fill="#7370e1" stroke="#7370e1" points="218.261,-183.051 211.102,-174.744 213.73,-180.936 209.199,-178.822 209.199,-178.822 209.199,-178.822 213.73,-180.936 207.296,-182.9 218.261,-183.051 218.261,-183.051"/>
</g>
<!-- MultinationalCompany&#45;&gt;CongoleseCompany -->
<g id="edge9" class="edge"><title>MultinationalCompany&#45;&gt;CongoleseCompany</title>
<path fill="none" stroke="#054ca6" d="M370.295,-226.549C370.295,-215.083 370.295,-201.792 370.295,-190.339"/>
<polygon fill="#054ca6" stroke="#054ca6" points="370.295,-226.884 365.795,-236.884 370.295,-231.884 370.295,-236.884 370.295,-236.884 370.295,-236.884 370.295,-231.884 374.795,-236.884 370.295,-226.884 370.295,-226.884"/>
<polygon fill="#054ca6" stroke="#054ca6" points="370.295,-190.04 374.795,-180.04 370.295,-185.04 370.295,-180.04 370.295,-180.04 370.295,-180.04 370.295,-185.04 365.795,-180.04 370.295,-190.04 370.295,-190.04"/>
</g>
<!-- MultinationalCompany&#45;&gt;StockExchange -->
<g id="edge11" class="edge"><title>MultinationalCompany&#45;&gt;StockExchange</title>
<path fill="none" stroke="#d73bd6" d="M409.018,-232.772C436.208,-217.867 472.362,-198.048 499.188,-183.342"/>
<polygon fill="#d73bd6" stroke="#d73bd6" points="408.742,-232.924 397.81,-233.785 404.357,-235.327 399.973,-237.731 399.973,-237.731 399.973,-237.731 404.357,-235.327 402.136,-241.677 408.742,-232.924 408.742,-232.924"/>
<polygon fill="#d73bd6" stroke="#d73bd6" points="499.489,-183.177 510.421,-182.316 503.873,-180.774 508.257,-178.37 508.257,-178.37 508.257,-178.37 503.873,-180.774 506.094,-174.424 499.489,-183.177 499.489,-183.177"/>
</g>
<!-- MultinationalCompany&#45;&gt;ShareholderRelationship -->
<g id="edge8" class="edge"><title>MultinationalCompany&#45;&gt;ShareholderRelationship</title>
<path fill="none" stroke="#856d73" d="M426.479,-237.151C496.42,-216.117 607.263,-182.568 611.295,-180 658.546,-149.901 713.049,-114.282 676.295,-72 641.972,-32.514 505.924,-21.5962 407.093,-19.0136"/>
<ellipse fill="none" stroke="#856d73" cx="422.414" cy="-238.373" rx="4.00001" ry="4.00001"/>
<polygon fill="#856d73" stroke="#856d73" points="407.045,-19.0126 397.154,-14.2775 402.046,-18.8944 397.047,-18.7762 397.047,-18.7762 397.047,-18.7762 402.046,-18.8944 396.941,-23.2749 407.045,-19.0126 407.045,-19.0126"/>
</g>
<!-- Post -->
<g id="node11" class="node"><title>Post</title>
<ellipse fill="none" stroke="black" cx="671.295" cy="-255" rx="27" ry="18"/>
<text text-anchor="middle" x="671.295" y="-251.3" font-family="Times,serif" font-size="14.00">Post</text>
</g>
<!-- Attachment -->
<g id="node13" class="node"><title>Attachment</title>
<ellipse fill="none" stroke="black" cx="775.295" cy="-162" rx="51.9908" ry="18"/>
<text text-anchor="middle" x="775.295" y="-158.3" font-family="Times,serif" font-size="14.00">Attachment</text>
</g>
<!-- Author -->
<g id="node14" class="node"><title>Author</title>
<ellipse fill="none" stroke="black" cx="863.295" cy="-255" rx="35.9954" ry="18"/>
<text text-anchor="middle" x="863.295" y="-251.3" font-family="Times,serif" font-size="14.00">Author</text>
</g>
<!-- Report -->
<g id="node15" class="node"><title>Report</title>
<ellipse fill="none" stroke="black" cx="775.295" cy="-255" rx="34.394" ry="18"/>
<text text-anchor="middle" x="775.295" y="-251.3" font-family="Times,serif" font-size="14.00">Report</text>
</g>
<!-- Report&#45;&gt;Attachment -->
<g id="edge12" class="edge"><title>Report&#45;&gt;Attachment</title>
<path fill="none" stroke="#16859d" d="M775.295,-228.729C775.295,-216.725 775.295,-202.362 775.295,-190.129"/>
<ellipse fill="none" stroke="#16859d" cx="775.295" cy="-232.884" rx="4" ry="4"/>
<polygon fill="#16859d" stroke="#16859d" points="775.295,-190.04 779.795,-180.04 775.295,-185.04 775.295,-180.04 775.295,-180.04 775.295,-180.04 775.295,-185.04 770.795,-180.04 775.295,-190.04 775.295,-190.04"/>
</g>
</g>
</svg>
