<?xml version="1.0" encoding="UTF-8" standalone="no"?>
<!DOCTYPE svg PUBLIC "-//W3C//DTD SVG 1.1//EN"
 "http://www.w3.org/Graphics/SVG/1.1/DTD/svg11.dtd">
<!-- Generated by graphviz version 2.38.0 (20140413.2041)
 -->
<!-- Title: models_diagram Pages: 1 -->
<svg width="2269pt" height="392pt"
 viewBox="0.00 0.00 2268.59 392.00" xmlns="http://www.w3.org/2000/svg" xmlns:xlink="http://www.w3.org/1999/xlink">
<g id="graph0" class="graph" transform="scale(1 1) rotate(0) translate(4 388)">
<title>models_diagram</title>
<polygon fill="white" stroke="none" points="-4,4 -4,-388 2264.59,-388 2264.59,4 -4,4"/>
<!-- _diagram_info -->
<g id="node1" class="node"><title>_diagram_info</title>
<text text-anchor="start" x="1462.84" y="-369.6" font-family="Times,serif" font-size="13.00">Models diagram</text>
<text text-anchor="start" x="1462.84" y="-355.6" font-family="Times,serif" font-size="13.00">Date: May 23 2015 &#45; 10:14</text>
<text text-anchor="start" x="1462.84" y="-341.6" font-family="Times,serif" font-size="13.00">Migration version: 20150522211441</text>
<text text-anchor="start" x="1462.84" y="-327.6" font-family="Times,serif" font-size="13.00">Generated by RailRoady 1.3.0</text>
<text text-anchor="start" x="1462.84" y="-313.6" font-family="Times,serif" font-size="13.00">http://railroady.prestonlee.com</text>
</g>
<!-- IntermediaryCompany -->
<g id="node2" class="node"><title>IntermediaryCompany</title>
<ellipse fill="none" stroke="black" cx="217.844" cy="-178" rx="90.9839" ry="18"/>
<text text-anchor="middle" x="217.844" y="-174.3" font-family="Times,serif" font-size="14.00">IntermediaryCompany</text>
</g>
<!-- ShareholderIntermediary -->
<g id="node10" class="node"><title>ShareholderIntermediary</title>
<ellipse fill="none" stroke="black" cx="583.844" cy="-18" rx="98.5829" ry="18"/>
<text text-anchor="middle" x="583.844" y="-14.3" font-family="Times,serif" font-size="14.00">ShareholderIntermediary</text>
</g>
<!-- IntermediaryCompany&#45;&gt;ShareholderIntermediary -->
<g id="edge1" class="edge"><title>IntermediaryCompany&#45;&gt;ShareholderIntermediary</title>
<path fill="none" stroke="#e2098f" d="M261.611,-158.106C331.209,-128.061 466.495,-69.6587 537.611,-38.9584"/>
<ellipse fill="none" stroke="#e2098f" cx="257.611" cy="-159.833" rx="4.00002" ry="4.00002"/>
<polygon fill="#e2098f" stroke="#e2098f" points="538.025,-38.7796 548.99,-38.9477 542.616,-36.7979 547.206,-34.8162 547.206,-34.8162 547.206,-34.8162 542.616,-36.7979 545.423,-30.6847 538.025,-38.7796 538.025,-38.7796"/>
</g>
<!-- ShareholderRelationship -->
<g id="node14" class="node"><title>ShareholderRelationship</title>
<ellipse fill="none" stroke="black" cx="868.844" cy="-91" rx="97.4827" ry="18"/>
<text text-anchor="middle" x="868.844" y="-87.3" font-family="Times,serif" font-size="14.00">ShareholderRelationship</text>
</g>
<!-- IntermediaryCompany&#45;&gt;ShareholderRelationship -->
<g id="edge2" class="edge"><title>IntermediaryCompany&#45;&gt;ShareholderRelationship</title>
<path fill="none" stroke="#f74a6d" d="M292.527,-163.741C301.053,-162.394 309.628,-161.115 317.844,-160 396.198,-149.368 416.313,-151.24 494.844,-142 594.466,-130.278 708.72,-114.69 784.459,-104.055"/>
<polygon fill="#f74a6d" stroke="#f74a6d" points="292.439,-163.755 281.851,-160.903 287.503,-164.55 282.567,-165.346 282.567,-165.346 282.567,-165.346 287.503,-164.55 283.283,-169.788 292.439,-163.755 292.439,-163.755"/>
<polygon fill="#f74a6d" stroke="#f74a6d" points="784.52,-104.046 795.05,-107.109 789.472,-103.35 794.423,-102.653 794.423,-102.653 794.423,-102.653 789.472,-103.35 793.796,-98.197 784.52,-104.046 784.52,-104.046"/>
</g>
<!-- StockExchangeCountry -->
<g id="node3" class="node"><title>StockExchangeCountry</title>
<ellipse fill="none" stroke="black" cx="1854.84" cy="-345" rx="94.4839" ry="18"/>
<text text-anchor="middle" x="1854.84" y="-341.3" font-family="Times,serif" font-size="14.00">StockExchangeCountry</text>
</g>
<!-- Employee -->
<g id="node4" class="node"><title>Employee</title>
<ellipse fill="none" stroke="black" cx="1077.84" cy="-178" rx="46.5926" ry="18"/>
<text text-anchor="middle" x="1077.84" y="-174.3" font-family="Times,serif" font-size="14.00">Employee</text>
</g>
<!-- FlowsPayableUnderContract -->
<g id="node5" class="node"><title>FlowsPayableUnderContract</title>
<ellipse fill="none" stroke="black" cx="1254.84" cy="-178" rx="112.38" ry="18"/>
<text text-anchor="middle" x="1254.84" y="-174.3" font-family="Times,serif" font-size="14.00">FlowsPayableUnderContract</text>
</g>
<!-- Deposit -->
<g id="node6" class="node"><title>Deposit</title>
<ellipse fill="none" stroke="black" cx="70.8437" cy="-178" rx="38.1938" ry="18"/>
<text text-anchor="middle" x="70.8437" y="-174.3" font-family="Times,serif" font-size="14.00">Deposit</text>
</g>
<!-- DepositResource -->
<g id="node20" class="node"><title>DepositResource</title>
<ellipse fill="none" stroke="black" cx="70.8437" cy="-91" rx="70.6878" ry="18"/>
<text text-anchor="middle" x="70.8437" y="-87.3" font-family="Times,serif" font-size="14.00">DepositResource</text>
</g>
<!-- Deposit&#45;&gt;DepositResource -->
<g id="edge3" class="edge"><title>Deposit&#45;&gt;DepositResource</title>
<path fill="none" stroke="#e496f0" d="M70.8437,-151.694C70.8437,-141.512 70.8437,-129.747 70.8437,-119.367"/>
<ellipse fill="none" stroke="#e496f0" cx="70.8438" cy="-155.799" rx="4" ry="4"/>
<polygon fill="#e496f0" stroke="#e496f0" points="70.8438,-119.175 75.3437,-109.175 70.8438,-114.175 70.8437,-109.175 70.8437,-109.175 70.8437,-109.175 70.8438,-114.175 66.3437,-109.175 70.8438,-119.175 70.8438,-119.175"/>
<text text-anchor="middle" x="96.8437" y="-130.8" font-family="Times,serif" font-size="14.00">resources</text>
</g>
<!-- ProductionExport -->
<g id="node7" class="node"><title>ProductionExport</title>
<ellipse fill="none" stroke="black" cx="1495.84" cy="-178" rx="73.387" ry="18"/>
<text text-anchor="middle" x="1495.84" y="-174.3" font-family="Times,serif" font-size="14.00">ProductionExport</text>
</g>
<!-- ReportRelation -->
<g id="node8" class="node"><title>ReportRelation</title>
<ellipse fill="none" stroke="black" cx="1711.84" cy="-91" rx="64.189" ry="18"/>
<text text-anchor="middle" x="1711.84" y="-87.3" font-family="Times,serif" font-size="14.00">ReportRelation</text>
</g>
<!-- Source -->
<g id="node9" class="node"><title>Source</title>
<ellipse fill="none" stroke="black" cx="1957.84" cy="-251" rx="35.194" ry="18"/>
<text text-anchor="middle" x="1957.84" y="-247.3" font-family="Times,serif" font-size="14.00">Source</text>
</g>
<!-- Report -->
<g id="node27" class="node"><title>Report</title>
<ellipse fill="none" stroke="black" cx="1860.84" cy="-178" rx="34.394" ry="18"/>
<text text-anchor="middle" x="1860.84" y="-174.3" font-family="Times,serif" font-size="14.00">Report</text>
</g>
<!-- Source&#45;&gt;Report -->
<g id="edge4" class="edge"><title>Source&#45;&gt;Report</title>
<path fill="none" stroke="#a69109" d="M1931.54,-230.75C1918.23,-221.002 1902.06,-209.17 1888.55,-199.281"/>
<ellipse fill="none" stroke="#a69109" cx="1934.99" cy="-233.27" rx="4.00002" ry="4.00002"/>
<polygon fill="#a69109" stroke="#a69109" points="1888.18,-199.011 1882.77,-189.473 1884.15,-196.057 1880.11,-193.104 1880.11,-193.104 1880.11,-193.104 1884.15,-196.057 1877.45,-196.735 1888.18,-199.011 1888.18,-199.011"/>
</g>
<!-- DrcCompany -->
<g id="node11" class="node"><title>DrcCompany</title>
<ellipse fill="none" stroke="black" cx="1165.84" cy="-251" rx="58.4896" ry="18"/>
<text text-anchor="middle" x="1165.84" y="-247.3" font-family="Times,serif" font-size="14.00">DrcCompany</text>
</g>
<!-- DrcCompany&#45;&gt;Employee -->
<g id="edge15" class="edge"><title>DrcCompany&#45;&gt;Employee</title>
<path fill="none" stroke="#3cc4f1" d="M1139.44,-228.697C1128.6,-219.949 1116.05,-209.824 1105.12,-201.005"/>
<ellipse fill="none" stroke="#3cc4f1" cx="1142.76" cy="-231.377" rx="4.00002" ry="4.00002"/>
<polygon fill="#3cc4f1" stroke="#3cc4f1" points="1104.91,-200.839 1099.95,-191.057 1101.02,-197.699 1097.13,-194.559 1097.13,-194.559 1097.13,-194.559 1101.02,-197.699 1094.3,-198.062 1104.91,-200.839 1104.91,-200.839"/>
</g>
<!-- DrcCompany&#45;&gt;FlowsPayableUnderContract -->
<g id="edge16" class="edge"><title>DrcCompany&#45;&gt;FlowsPayableUnderContract</title>
<path fill="none" stroke="#3960c4" d="M1192.31,-228.884C1203.39,-220.046 1216.27,-209.776 1227.44,-200.86"/>
<ellipse fill="none" stroke="#3960c4" cx="1189.17" cy="-231.394" rx="4.00002" ry="4.00002"/>
<ellipse fill="#3960c4" stroke="#3960c4" cx="1230.67" cy="-198.283" rx="4.00002" ry="4.00002"/>
</g>
<!-- DrcCompany&#45;&gt;Deposit -->
<g id="edge14" class="edge"><title>DrcCompany&#45;&gt;Deposit</title>
<path fill="none" stroke="#0b0c77" d="M1099.51,-249.138C899.889,-246.139 306.863,-234.173 117.844,-196 114.654,-195.356 111.391,-194.536 108.143,-193.605"/>
<ellipse fill="none" stroke="#0b0c77" cx="1103.59" cy="-249.198" rx="4" ry="4"/>
<polygon fill="#0b0c77" stroke="#0b0c77" points="108.067,-193.581 99.9046,-186.258 103.303,-192.063 98.5388,-190.546 98.5388,-190.546 98.5388,-190.546 103.303,-192.063 97.173,-194.833 108.067,-193.581 108.067,-193.581"/>
</g>
<!-- DrcCompany&#45;&gt;ProductionExport -->
<g id="edge5" class="edge"><title>DrcCompany&#45;&gt;ProductionExport</title>
<path fill="none" stroke="#54ad77" d="M1230.22,-245.132C1279.72,-240.337 1349.46,-231.286 1408.84,-215 1424.21,-210.784 1440.5,-204.558 1454.77,-198.464"/>
<ellipse fill="none" stroke="#54ad77" cx="1226.13" cy="-245.518" rx="4" ry="4"/>
<polygon fill="#54ad77" stroke="#54ad77" points="1455.13,-198.305 1466.09,-198.414 1459.71,-196.299 1464.29,-194.292 1464.29,-194.292 1464.29,-194.292 1459.71,-196.299 1462.48,-190.171 1455.13,-198.305 1455.13,-198.305"/>
</g>
<!-- DrcCompany&#45;&gt;ReportRelation -->
<g id="edge10" class="edge"><title>DrcCompany&#45;&gt;ReportRelation</title>
<path fill="none" stroke="#1484ec" d="M1232.34,-247.98C1368.79,-243.176 1670.38,-228.918 1702.84,-196 1722.38,-176.194 1721.72,-142.751 1718.07,-119.144"/>
<ellipse fill="none" stroke="#1484ec" cx="1227.99" cy="-248.131" rx="4" ry="4"/>
<polygon fill="#1484ec" stroke="#1484ec" points="1718.02,-118.913 1720.66,-108.27 1717.13,-113.994 1716.24,-109.074 1716.24,-109.074 1716.24,-109.074 1717.13,-113.994 1711.81,-109.879 1718.02,-118.913 1718.02,-118.913"/>
</g>
<!-- DrcCompany&#45;&gt;ShareholderRelationship -->
<g id="edge8" class="edge"><title>DrcCompany&#45;&gt;ShareholderRelationship</title>
<path fill="none" stroke="#191385" d="M1229.82,-244.304C1307.11,-235.023 1421.45,-212.136 1375.84,-160 1349.55,-129.943 1109.9,-108.553 969.703,-98.4894"/>
<ellipse fill="none" stroke="#191385" cx="1225.5" cy="-244.805" rx="4.00001" ry="4.00001"/>
<polygon fill="#191385" stroke="#191385" points="969.344,-98.4639 959.688,-93.2665 964.357,-98.1095 959.369,-97.7552 959.369,-97.7552 959.369,-97.7552 964.357,-98.1095 959.05,-102.244 969.344,-98.4639 969.344,-98.4639"/>
</g>
<!-- Shareholder -->
<g id="node16" class="node"><title>Shareholder</title>
<ellipse fill="none" stroke="black" cx="1640.84" cy="-178" rx="53.0913" ry="18"/>
<text text-anchor="middle" x="1640.84" y="-174.3" font-family="Times,serif" font-size="14.00">Shareholder</text>
</g>
<!-- DrcCompany&#45;&gt;Shareholder -->
<g id="edge9" class="edge"><title>DrcCompany&#45;&gt;Shareholder</title>
<path fill="none" stroke="#3a99f4" d="M1231.33,-244.135C1312.98,-236.201 1456.57,-220.197 1577.84,-196 1582.46,-195.079 1587.24,-194.008 1592.01,-192.862"/>
<polygon fill="#3a99f4" stroke="#3a99f4" points="1231.16,-244.152 1220.77,-240.63 1226.18,-244.63 1221.21,-245.109 1221.21,-245.109 1221.21,-245.109 1226.18,-244.63 1221.64,-249.588 1231.16,-244.152 1231.16,-244.152"/>
<polygon fill="#3a99f4" stroke="#3a99f4" points="1592.02,-192.859 1602.81,-194.789 1596.87,-191.642 1601.71,-190.425 1601.71,-190.425 1601.71,-190.425 1596.87,-191.642 1600.62,-186.06 1592.02,-192.859 1592.02,-192.859"/>
</g>
<!-- SocialProject -->
<g id="node17" class="node"><title>SocialProject</title>
<ellipse fill="none" stroke="black" cx="384.844" cy="-178" rx="57.6901" ry="18"/>
<text text-anchor="middle" x="384.844" y="-174.3" font-family="Times,serif" font-size="14.00">SocialProject</text>
</g>
<!-- DrcCompany&#45;&gt;SocialProject -->
<g id="edge12" class="edge"><title>DrcCompany&#45;&gt;SocialProject</title>
<path fill="none" stroke="#13e4f5" d="M1099.48,-248.806C972.793,-245.682 688.04,-234.599 451.844,-196 446.72,-195.163 441.414,-194.123 436.134,-192.973"/>
<ellipse fill="none" stroke="#13e4f5" cx="1103.6" cy="-248.904" rx="4" ry="4"/>
<polygon fill="#13e4f5" stroke="#13e4f5" points="435.811,-192.898 427.079,-186.265 430.939,-191.774 426.067,-190.65 426.067,-190.65 426.067,-190.65 430.939,-191.774 425.056,-195.034 435.811,-192.898 435.811,-192.898"/>
</g>
<!-- TaxObligation -->
<g id="node19" class="node"><title>TaxObligation</title>
<ellipse fill="none" stroke="black" cx="522.844" cy="-178" rx="61.99" ry="18"/>
<text text-anchor="middle" x="522.844" y="-174.3" font-family="Times,serif" font-size="14.00">TaxObligation</text>
</g>
<!-- DrcCompany&#45;&gt;TaxObligation -->
<g id="edge6" class="edge"><title>DrcCompany&#45;&gt;TaxObligation</title>
<path fill="none" stroke="#204396" d="M1100.14,-246.813C993.375,-240.959 775.816,-226.22 593.844,-196 588.452,-195.105 582.861,-194.028 577.293,-192.858"/>
<ellipse fill="none" stroke="#204396" cx="1104.27" cy="-247.036" rx="4" ry="4"/>
<polygon fill="#204396" stroke="#204396" points="577.106,-192.817 568.307,-186.272 572.223,-191.742 567.34,-190.667 567.34,-190.667 567.34,-190.667 572.223,-191.742 566.373,-195.062 577.106,-192.817 577.106,-192.817"/>
</g>
<!-- EnvAndSocialObligation -->
<g id="node22" class="node"><title>EnvAndSocialObligation</title>
<ellipse fill="none" stroke="black" cx="701.844" cy="-178" rx="99.3824" ry="18"/>
<text text-anchor="middle" x="701.844" y="-174.3" font-family="Times,serif" font-size="14.00">EnvAndSocialObligation</text>
</g>
<!-- DrcCompany&#45;&gt;EnvAndSocialObligation -->
<g id="edge7" class="edge"><title>DrcCompany&#45;&gt;EnvAndSocialObligation</title>
<path fill="none" stroke="#766b2a" d="M1106.6,-241.117C1035.94,-230.498 914.243,-212.134 809.844,-196 801.552,-194.719 792.904,-193.373 784.269,-192.023"/>
<ellipse fill="none" stroke="#766b2a" cx="1110.58" cy="-241.716" rx="4.00001" ry="4.00001"/>
<polygon fill="#766b2a" stroke="#766b2a" points="784.041,-191.988 774.858,-185.995 779.102,-191.214 774.162,-190.441 774.162,-190.441 774.162,-190.441 779.102,-191.214 773.466,-194.886 784.041,-191.988 784.041,-191.988"/>
</g>
<!-- ProcessingInfrastructure -->
<g id="node25" class="node"><title>ProcessingInfrastructure</title>
<ellipse fill="none" stroke="black" cx="915.844" cy="-178" rx="96.6831" ry="18"/>
<text text-anchor="middle" x="915.844" y="-174.3" font-family="Times,serif" font-size="14.00">ProcessingInfrastructure</text>
</g>
<!-- DrcCompany&#45;&gt;ProcessingInfrastructure -->
<g id="edge13" class="edge"><title>DrcCompany&#45;&gt;ProcessingInfrastructure</title>
<path fill="none" stroke="#9533e7" d="M1116.42,-235.964C1076.21,-224.543 1019.28,-208.377 976.346,-196.183"/>
<ellipse fill="none" stroke="#9533e7" cx="1120.43" cy="-237.103" rx="4.00001" ry="4.00001"/>
<polygon fill="#9533e7" stroke="#9533e7" points="976.2,-196.141 967.81,-189.081 971.391,-194.775 966.581,-193.409 966.581,-193.409 966.581,-193.409 971.391,-194.775 965.351,-197.738 976.2,-196.141 976.2,-196.141"/>
</g>
<!-- DrcCompany&#45;&gt;Report -->
<g id="edge11" class="edge"><title>DrcCompany&#45;&gt;Report</title>
<path fill="none" stroke="#b545c2" d="M1234.68,-250.611C1342.39,-250.484 1556.96,-245.867 1735.84,-215 1765.77,-209.836 1798.75,-200.164 1823.31,-192.145"/>
<polygon fill="#b545c2" stroke="#b545c2" points="1234.59,-250.611 1224.59,-246.11 1229.59,-250.611 1224.59,-250.61 1224.59,-250.61 1224.59,-250.61 1229.59,-250.611 1224.59,-255.11 1234.59,-250.611 1234.59,-250.611"/>
<polygon fill="#b545c2" stroke="#b545c2" points="1823.47,-192.093 1834.38,-193.211 1828.21,-190.517 1832.96,-188.94 1832.96,-188.94 1832.96,-188.94 1828.21,-190.517 1831.54,-184.67 1823.47,-192.093 1823.47,-192.093"/>
</g>
<!-- StockExchange -->
<g id="node12" class="node"><title>StockExchange</title>
<ellipse fill="none" stroke="black" cx="2032.84" cy="-345" rx="65.7887" ry="18"/>
<text text-anchor="middle" x="2032.84" y="-341.3" font-family="Times,serif" font-size="14.00">StockExchange</text>
</g>
<!-- PageCategory -->
<g id="node13" class="node"><title>PageCategory</title>
<ellipse fill="none" stroke="black" cx="1677.84" cy="-251" rx="59.5901" ry="18"/>
<text text-anchor="middle" x="1677.84" y="-247.3" font-family="Times,serif" font-size="14.00">PageCategory</text>
</g>
<!-- ShareholderRelationship&#45;&gt;ShareholderIntermediary -->
<g id="edge17" class="edge"><title>ShareholderRelationship&#45;&gt;ShareholderIntermediary</title>
<path fill="none" stroke="#acc421" d="M805.418,-74.1991C759.083,-62.6562 696.428,-47.0472 649.566,-35.3728"/>
<ellipse fill="none" stroke="#acc421" cx="809.335" cy="-75.175" rx="4.00001" ry="4.00001"/>
<polygon fill="#acc421" stroke="#acc421" points="649.521,-35.3617 640.905,-28.5777 644.669,-34.153 639.817,-32.9443 639.817,-32.9443 639.817,-32.9443 644.669,-34.153 638.729,-37.3108 649.521,-35.3617 649.521,-35.3617"/>
</g>
<!-- Page -->
<g id="node15" class="node"><title>Page</title>
<ellipse fill="none" stroke="black" cx="1714.84" cy="-345" rx="27.8951" ry="18"/>
<text text-anchor="middle" x="1714.84" y="-341.3" font-family="Times,serif" font-size="14.00">Page</text>
</g>
<!-- Page&#45;&gt;PageCategory -->
<g id="edge18" class="edge"><title>Page&#45;&gt;PageCategory</title>
<path fill="none" stroke="#5b20bf" d="M1704.9,-319.274C1699.86,-306.747 1693.74,-291.52 1688.59,-278.723"/>
<ellipse fill="none" stroke="#5b20bf" cx="1706.56" cy="-323.415" rx="4.00001" ry="4.00001"/>
<polygon fill="#5b20bf" stroke="#5b20bf" points="1688.44,-278.357 1688.89,-267.4 1686.58,-273.718 1684.71,-269.079 1684.71,-269.079 1684.71,-269.079 1686.58,-273.718 1680.54,-270.758 1688.44,-278.357 1688.44,-278.357"/>
</g>
<!-- Category -->
<g id="node26" class="node"><title>Category</title>
<ellipse fill="none" stroke="black" cx="1798.84" cy="-251" rx="42.7926" ry="18"/>
<text text-anchor="middle" x="1798.84" y="-247.3" font-family="Times,serif" font-size="14.00">Category</text>
</g>
<!-- Page&#45;&gt;Category -->
<g id="edge19" class="edge"><title>Page&#45;&gt;Category</title>
<path fill="none" stroke="#490dd1" d="M1735.31,-321.583C1748.09,-307.587 1764.51,-289.598 1777.46,-275.418"/>
<polygon fill="#490dd1" stroke="#490dd1" points="1735.08,-321.834 1725.02,-326.184 1731.71,-325.526 1728.34,-329.219 1728.34,-329.219 1728.34,-329.219 1731.71,-325.526 1731.66,-332.253 1735.08,-321.834 1735.08,-321.834"/>
<polygon fill="#490dd1" stroke="#490dd1" points="1777.51,-275.366 1787.58,-271.015 1780.88,-271.673 1784.25,-267.981 1784.25,-267.981 1784.25,-267.981 1780.88,-271.673 1780.93,-264.947 1777.51,-275.366 1777.51,-275.366"/>
</g>
<!-- Shareholder&#45;&gt;ShareholderRelationship -->
<g id="edge20" class="edge"><title>Shareholder&#45;&gt;ShareholderRelationship</title>
<path fill="none" stroke="#b23e40" d="M1593.22,-163.766C1588.04,-162.442 1582.84,-161.16 1577.84,-160 1503.3,-142.687 1484.74,-136.828 1408.84,-127 1258.87,-107.578 1083.99,-98.7425 974.824,-94.8591"/>
<ellipse fill="none" stroke="#b23e40" cx="1597.42" cy="-164.862" rx="4.00001" ry="4.00001"/>
<polygon fill="#b23e40" stroke="#b23e40" points="974.789,-94.858 964.952,-90.0124 969.792,-94.6839 964.795,-94.5097 964.795,-94.5097 964.795,-94.5097 969.792,-94.6839 964.639,-99.007 974.789,-94.858 974.789,-94.858"/>
</g>
<!-- Admin -->
<g id="node18" class="node"><title>Admin</title>
<polygon fill="none" stroke="black" stroke-dasharray="1,5" points="2171.34,-363 2116.34,-363 2116.34,-327 2171.34,-327 2171.34,-363"/>
<text text-anchor="middle" x="2143.84" y="-341.3" font-family="Times,serif" font-size="14.00">Admin</text>
</g>
<!-- ReportCategory -->
<g id="node21" class="node"><title>ReportCategory</title>
<ellipse fill="none" stroke="black" cx="1860.84" cy="-91" rx="66.8882" ry="18"/>
<text text-anchor="middle" x="1860.84" y="-87.3" font-family="Times,serif" font-size="14.00">ReportCategory</text>
</g>
<!-- Attachment -->
<g id="node23" class="node"><title>Attachment</title>
<ellipse fill="none" stroke="black" cx="1997.84" cy="-91" rx="51.9908" ry="18"/>
<text text-anchor="middle" x="1997.84" y="-87.3" font-family="Times,serif" font-size="14.00">Attachment</text>
</g>
<!-- Author -->
<g id="node24" class="node"><title>Author</title>
<ellipse fill="none" stroke="black" cx="2224.84" cy="-345" rx="35.9954" ry="18"/>
<text text-anchor="middle" x="2224.84" y="-341.3" font-family="Times,serif" font-size="14.00">Author</text>
</g>
<!-- Category&#45;&gt;ReportCategory -->
<g id="edge22" class="edge"><title>Category&#45;&gt;ReportCategory</title>
<path fill="none" stroke="#3a0559" d="M1801.7,-224.937C1804.38,-206.48 1809.29,-181.041 1817.84,-160 1823.98,-144.901 1833.45,-129.44 1841.95,-117.083"/>
<ellipse fill="none" stroke="#3a0559" cx="1801.16" cy="-228.921" rx="4.00001" ry="4.00001"/>
<polygon fill="#3a0559" stroke="#3a0559" points="1842.12,-116.843 1851.57,-111.285 1845.01,-112.763 1847.9,-108.684 1847.9,-108.684 1847.9,-108.684 1845.01,-112.763 1844.23,-106.082 1842.12,-116.843 1842.12,-116.843"/>
</g>
<!-- Category&#45;&gt;Category -->
<g id="edge21" class="edge"><title>Category&#45;&gt;Category</title>
<path fill="none" stroke="#f5aac3" d="M1846.96,-257.201C1854.55,-256.284 1859.74,-254.217 1859.74,-251 1859.74,-248.051 1855.38,-246.069 1848.81,-245.052"/>
<ellipse fill="none" stroke="#f5aac3" cx="1842.66" cy="-257.478" rx="4" ry="4"/>
<polygon fill="#f5aac3" stroke="#f5aac3" points="1848.64,-245.039 1839.02,-239.778 1843.66,-244.652 1838.67,-244.265 1838.67,-244.265 1838.67,-244.265 1843.66,-244.652 1838.32,-248.751 1848.64,-245.039 1848.64,-245.039"/>
<text text-anchor="middle" x="1882.24" y="-247.3" font-family="Times,serif" font-size="14.00">children</text>
</g>
<!-- Category&#45;&gt;Report -->
<g id="edge23" class="edge"><title>Category&#45;&gt;Report</title>
<path fill="none" stroke="#9a2ea6" d="M1827.73,-228.377C1832.4,-224.215 1836.97,-219.684 1840.84,-215 1843.49,-211.808 1845.96,-208.215 1848.2,-204.567"/>
<polygon fill="#9a2ea6" stroke="#9a2ea6" points="1827.53,-228.548 1816.98,-231.553 1823.7,-231.771 1819.88,-234.994 1819.88,-234.994 1819.88,-234.994 1823.7,-231.771 1822.78,-238.434 1827.53,-228.548 1827.53,-228.548"/>
<polygon fill="#9a2ea6" stroke="#9a2ea6" points="1848.36,-204.292 1857.19,-197.793 1850.81,-199.937 1853.27,-195.583 1853.27,-195.583 1853.27,-195.583 1850.81,-199.937 1849.35,-193.372 1848.36,-204.292 1848.36,-204.292"/>
</g>
<!-- Report&#45;&gt;ReportRelation -->
<g id="edge26" class="edge"><title>Report&#45;&gt;ReportRelation</title>
<path fill="none" stroke="#859647" d="M1831.3,-160.145C1807.32,-146.467 1773.42,-127.13 1747.86,-112.547"/>
<ellipse fill="none" stroke="#859647" cx="1835.06" cy="-162.293" rx="4.00002" ry="4.00002"/>
<polygon fill="#859647" stroke="#859647" points="1747.54,-112.363 1741.08,-103.5 1743.2,-109.886 1738.85,-107.408 1738.85,-107.408 1738.85,-107.408 1743.2,-109.886 1736.62,-111.317 1747.54,-112.363 1747.54,-112.363"/>
</g>
<!-- Report&#45;&gt;ReportCategory -->
<g id="edge25" class="edge"><title>Report&#45;&gt;ReportCategory</title>
<path fill="none" stroke="#aedf7e" d="M1860.84,-151.694C1860.84,-141.512 1860.84,-129.747 1860.84,-119.367"/>
<ellipse fill="none" stroke="#aedf7e" cx="1860.84" cy="-155.799" rx="4" ry="4"/>
<polygon fill="#aedf7e" stroke="#aedf7e" points="1860.84,-119.175 1865.34,-109.175 1860.84,-114.175 1860.84,-109.175 1860.84,-109.175 1860.84,-109.175 1860.84,-114.175 1856.34,-109.175 1860.84,-119.175 1860.84,-119.175"/>
</g>
<!-- Report&#45;&gt;Attachment -->
<g id="edge24" class="edge"><title>Report&#45;&gt;Attachment</title>
<path fill="none" stroke="#40dcca" d="M1889.26,-159.367C1911.18,-145.767 1941.55,-126.927 1964.6,-112.628"/>
<ellipse fill="none" stroke="#40dcca" cx="1885.65" cy="-161.61" rx="4.00002" ry="4.00002"/>
<polygon fill="#40dcca" stroke="#40dcca" points="1964.85,-112.468 1975.72,-111.02 1969.1,-109.832 1973.35,-107.196 1973.35,-107.196 1973.35,-107.196 1969.1,-109.832 1970.98,-103.372 1964.85,-112.468 1964.85,-112.468"/>
</g>
</g>
</svg>
