<?xml version="1.0" encoding="UTF-8" standalone="no"?>
<!DOCTYPE svg PUBLIC "-//W3C//DTD SVG 1.1//EN"
 "http://www.w3.org/Graphics/SVG/1.1/DTD/svg11.dtd">
<!-- Generated by graphviz version 2.38.0 (20140413.2041)
 -->
<!-- Title: models_diagram Pages: 1 -->
<svg width="2088pt" height="392pt"
 viewBox="0.00 0.00 2087.74 392.00" xmlns="http://www.w3.org/2000/svg" xmlns:xlink="http://www.w3.org/1999/xlink">
<g id="graph0" class="graph" transform="scale(1 1) rotate(0) translate(4 388)">
<title>models_diagram</title>
<polygon fill="white" stroke="none" points="-4,4 -4,-388 2083.74,-388 2083.74,4 -4,4"/>
<!-- _diagram_info -->
<g id="node1" class="node"><title>_diagram_info</title>
<text text-anchor="start" x="807.992" y="-369.6" font-family="Times,serif" font-size="13.00">Models diagram</text>
<text text-anchor="start" x="807.992" y="-355.6" font-family="Times,serif" font-size="13.00">Date: Jun 19 2015 &#45; 06:33</text>
<text text-anchor="start" x="807.992" y="-341.6" font-family="Times,serif" font-size="13.00">Migration version: 20150618213950</text>
<text text-anchor="start" x="807.992" y="-327.6" font-family="Times,serif" font-size="13.00">Generated by RailRoady 1.3.0</text>
<text text-anchor="start" x="807.992" y="-313.6" font-family="Times,serif" font-size="13.00">http://railroady.prestonlee.com</text>
</g>
<!-- IntermediaryCompany -->
<g id="node2" class="node"><title>IntermediaryCompany</title>
<ellipse fill="none" stroke="black" cx="90.9919" cy="-251" rx="90.9839" ry="18"/>
<text text-anchor="middle" x="90.9919" y="-247.3" font-family="Times,serif" font-size="14.00">IntermediaryCompany</text>
</g>
<!-- ShareholderIntermediary -->
<g id="node13" class="node"><title>ShareholderIntermediary</title>
<ellipse fill="none" stroke="black" cx="121.992" cy="-91" rx="98.5829" ry="18"/>
<text text-anchor="middle" x="121.992" y="-87.3" font-family="Times,serif" font-size="14.00">ShareholderIntermediary</text>
</g>
<!-- IntermediaryCompany&#45;&gt;ShareholderIntermediary -->
<g id="edge1" class="edge"><title>IntermediaryCompany&#45;&gt;ShareholderIntermediary</title>
<path fill="none" stroke="#500813" d="M94.8726,-224.871C98.2458,-203.754 103.45,-172.812 108.992,-146 110.796,-137.272 112.992,-127.808 115.061,-119.277"/>
<ellipse fill="none" stroke="#500813" cx="94.2114" cy="-229.053" rx="4.00001" ry="4.00001"/>
<polygon fill="#500813" stroke="#500813" points="115.091,-119.154 121.857,-110.524 116.29,-114.3 117.488,-109.446 117.488,-109.446 117.488,-109.446 116.29,-114.3 113.119,-108.367 115.091,-119.154 115.091,-119.154"/>
</g>
<!-- ShareholderRelationship -->
<g id="node17" class="node"><title>ShareholderRelationship</title>
<ellipse fill="none" stroke="black" cx="214.992" cy="-164" rx="97.4827" ry="18"/>
<text text-anchor="middle" x="214.992" y="-160.3" font-family="Times,serif" font-size="14.00">ShareholderRelationship</text>
</g>
<!-- IntermediaryCompany&#45;&gt;ShareholderRelationship -->
<g id="edge2" class="edge"><title>IntermediaryCompany&#45;&gt;ShareholderRelationship</title>
<path fill="none" stroke="#5f1516" d="M123.242,-227.893C141.373,-215.464 163.954,-199.986 182.177,-187.494"/>
<polygon fill="#5f1516" stroke="#5f1516" points="123.149,-227.957 112.356,-229.899 119.024,-230.784 114.9,-233.611 114.9,-233.611 114.9,-233.611 119.024,-230.784 117.445,-237.323 123.149,-227.957 123.149,-227.957"/>
<polygon fill="#5f1516" stroke="#5f1516" points="182.486,-187.283 193.278,-185.34 186.61,-184.456 190.734,-181.629 190.734,-181.629 190.734,-181.629 186.61,-184.456 188.189,-177.917 182.486,-187.283 182.486,-187.283"/>
</g>
<!-- StockExchangeCountry -->
<g id="node3" class="node"><title>StockExchangeCountry</title>
<ellipse fill="none" stroke="black" cx="1260.99" cy="-345" rx="94.4839" ry="18"/>
<text text-anchor="middle" x="1260.99" y="-341.3" font-family="Times,serif" font-size="14.00">StockExchangeCountry</text>
</g>
<!-- Employee -->
<g id="node4" class="node"><title>Employee</title>
<ellipse fill="none" stroke="black" cx="467.992" cy="-251" rx="46.5926" ry="18"/>
<text text-anchor="middle" x="467.992" y="-247.3" font-family="Times,serif" font-size="14.00">Employee</text>
</g>
<!-- FlowsPayableUnderContract -->
<g id="node5" class="node"><title>FlowsPayableUnderContract</title>
<ellipse fill="none" stroke="black" cx="644.992" cy="-251" rx="112.38" ry="18"/>
<text text-anchor="middle" x="644.992" y="-247.3" font-family="Times,serif" font-size="14.00">FlowsPayableUnderContract</text>
</g>
<!-- Deposit -->
<g id="node6" class="node"><title>Deposit</title>
<ellipse fill="none" stroke="black" cx="813.992" cy="-251" rx="38.1938" ry="18"/>
<text text-anchor="middle" x="813.992" y="-247.3" font-family="Times,serif" font-size="14.00">Deposit</text>
</g>
<!-- DepositResource -->
<g id="node23" class="node"><title>DepositResource</title>
<ellipse fill="none" stroke="black" cx="611.992" cy="-164" rx="70.6878" ry="18"/>
<text text-anchor="middle" x="611.992" y="-160.3" font-family="Times,serif" font-size="14.00">DepositResource</text>
</g>
<!-- Deposit&#45;&gt;DepositResource -->
<g id="edge3" class="edge"><title>Deposit&#45;&gt;DepositResource</title>
<path fill="none" stroke="#52da83" d="M778.206,-236.138C774.131,-234.916 770.001,-233.83 765.992,-233 737.092,-227.018 521.141,-236.564 500.992,-215 482.815,-195.546 509.403,-183.131 541.102,-175.538"/>
<ellipse fill="none" stroke="#52da83" cx="782.122" cy="-237.399" rx="4.00001" ry="4.00001"/>
<polygon fill="#52da83" stroke="#52da83" points="541.296,-175.495 552.032,-177.728 546.178,-174.414 551.06,-173.334 551.06,-173.334 551.06,-173.334 546.178,-174.414 550.087,-168.94 541.296,-175.495 541.296,-175.495"/>
<text text-anchor="middle" x="545.492" y="-203.8" font-family="Times,serif" font-size="14.00">proven_reserves</text>
</g>
<!-- Deposit&#45;&gt;DepositResource -->
<g id="edge4" class="edge"><title>Deposit&#45;&gt;DepositResource</title>
<path fill="none" stroke="#e777cb" d="M778.002,-236.287C773.987,-235.047 769.927,-233.916 765.992,-233 732.649,-225.237 635.996,-240.354 612.992,-215 607.495,-208.942 605.909,-200.57 606.099,-192.409"/>
<ellipse fill="none" stroke="#e777cb" cx="781.82" cy="-237.535" rx="4.00001" ry="4.00001"/>
<polygon fill="#e777cb" stroke="#e777cb" points="606.108,-192.321 611.607,-182.833 606.619,-187.347 607.13,-182.373 607.13,-182.373 607.13,-182.373 606.619,-187.347 602.654,-181.913 606.108,-192.321 606.108,-192.321"/>
<text text-anchor="middle" x="662.492" y="-203.8" font-family="Times,serif" font-size="14.00">probable_reserves</text>
</g>
<!-- Deposit&#45;&gt;DepositResource -->
<g id="edge5" class="edge"><title>Deposit&#45;&gt;DepositResource</title>
<path fill="none" stroke="#ae89ef" d="M778.26,-235.616C764.498,-229.703 748.784,-222.49 734.992,-215 724.267,-209.176 722.942,-205.388 711.992,-200 697.641,-192.938 681.502,-186.636 666.446,-181.392"/>
<ellipse fill="none" stroke="#ae89ef" cx="781.996" cy="-237.199" rx="4.00002" ry="4.00002"/>
<polygon fill="#ae89ef" stroke="#ae89ef" points="666.208,-181.311 658.182,-173.839 661.473,-179.706 656.737,-178.101 656.737,-178.101 656.737,-178.101 661.473,-179.706 655.293,-182.363 666.208,-181.311 666.208,-181.311"/>
<text text-anchor="middle" x="772.992" y="-203.8" font-family="Times,serif" font-size="14.00">total_reserves</text>
</g>
<!-- Deposit&#45;&gt;DepositResource -->
<g id="edge6" class="edge"><title>Deposit&#45;&gt;DepositResource</title>
<path fill="none" stroke="#20076e" d="M818.452,-224.557C818.557,-215.82 816.87,-206.59 810.992,-200 795.052,-182.128 739.507,-173.364 691.138,-169.076"/>
<ellipse fill="none" stroke="#20076e" cx="818.162" cy="-228.692" rx="4" ry="4"/>
<polygon fill="#20076e" stroke="#20076e" points="690.908,-169.057 681.315,-163.743 685.925,-168.642 680.942,-168.227 680.942,-168.227 680.942,-168.227 685.925,-168.642 680.569,-172.712 690.908,-169.057 690.908,-169.057"/>
<text text-anchor="middle" x="873.492" y="-203.8" font-family="Times,serif" font-size="14.00">measured_resources</text>
</g>
<!-- Deposit&#45;&gt;DepositResource -->
<g id="edge7" class="edge"><title>Deposit&#45;&gt;DepositResource</title>
<path fill="none" stroke="#018cac" d="M857.561,-242.794C887.615,-236.831 923.754,-227.346 932.992,-215 936.986,-209.662 937.443,-204.963 932.992,-200 917.134,-182.319 781.601,-172.709 691.788,-168.233"/>
<ellipse fill="none" stroke="#018cac" cx="853.602" cy="-243.553" rx="4.00001" ry="4.00001"/>
<polygon fill="#018cac" stroke="#018cac" points="691.606,-168.224 681.836,-163.243 686.612,-167.981 681.618,-167.738 681.618,-167.738 681.618,-167.738 686.612,-167.981 681.399,-172.233 691.606,-168.224 691.606,-168.224"/>
<text text-anchor="middle" x="990.992" y="-203.8" font-family="Times,serif" font-size="14.00">indicated_resources</text>
</g>
<!-- Deposit&#45;&gt;DepositResource -->
<g id="edge8" class="edge"><title>Deposit&#45;&gt;DepositResource</title>
<path fill="none" stroke="#c39229" d="M778.392,-236.059C774.26,-234.84 770.067,-233.777 765.992,-233 739.015,-227.857 291.054,-234.769 271.992,-215 267.365,-210.201 267.526,-204.95 271.992,-200 289.108,-181.031 437.077,-171.744 532.089,-167.697"/>
<ellipse fill="none" stroke="#c39229" cx="782.405" cy="-237.341" rx="4.00001" ry="4.00001"/>
<polygon fill="#c39229" stroke="#c39229" points="532.264,-167.69 542.442,-171.772 537.259,-167.483 542.255,-167.276 542.255,-167.276 542.255,-167.276 537.259,-167.483 542.068,-162.779 532.264,-167.69 532.264,-167.69"/>
<text text-anchor="middle" x="322.492" y="-203.8" font-family="Times,serif" font-size="14.00">inferred_resources</text>
</g>
<!-- Deposit&#45;&gt;DepositResource -->
<g id="edge9" class="edge"><title>Deposit&#45;&gt;DepositResource</title>
<path fill="none" stroke="#d9f8e7" d="M778.22,-236.068C774.142,-234.859 770.008,-233.795 765.992,-233 727.14,-225.308 437.281,-243.704 409.992,-215 405.398,-210.168 405.699,-205.101 409.992,-200 425.751,-181.275 482.874,-172.568 532.371,-168.519"/>
<ellipse fill="none" stroke="#d9f8e7" cx="782.137" cy="-237.322" rx="4.00001" ry="4.00001"/>
<polygon fill="#d9f8e7" stroke="#d9f8e7" points="532.506,-168.509 542.82,-172.234 537.491,-168.128 542.477,-167.747 542.477,-167.747 542.477,-167.747 537.491,-168.128 542.134,-163.26 532.506,-168.509 532.506,-168.509"/>
<text text-anchor="middle" x="450.992" y="-203.8" font-family="Times,serif" font-size="14.00">total_resources</text>
</g>
<!-- DepositSource -->
<g id="node7" class="node"><title>DepositSource</title>
<ellipse fill="none" stroke="black" cx="1435.99" cy="-345" rx="62.2891" ry="18"/>
<text text-anchor="middle" x="1435.99" y="-341.3" font-family="Times,serif" font-size="14.00">DepositSource</text>
</g>
<!-- ProductionExport -->
<g id="node8" class="node"><title>ProductionExport</title>
<ellipse fill="none" stroke="black" cx="988.992" cy="-251" rx="73.387" ry="18"/>
<text text-anchor="middle" x="988.992" y="-247.3" font-family="Times,serif" font-size="14.00">ProductionExport</text>
</g>
<!-- TileLayer -->
<g id="node9" class="node"><title>TileLayer</title>
<ellipse fill="none" stroke="black" cx="1561.99" cy="-345" rx="45.4919" ry="18"/>
<text text-anchor="middle" x="1561.99" y="-341.3" font-family="Times,serif" font-size="14.00">TileLayer</text>
</g>
<!-- ReportRelation -->
<g id="node10" class="node"><title>ReportRelation</title>
<ellipse fill="none" stroke="black" cx="1080.99" cy="-18" rx="64.189" ry="18"/>
<text text-anchor="middle" x="1080.99" y="-14.3" font-family="Times,serif" font-size="14.00">ReportRelation</text>
</g>
<!-- Source -->
<g id="node11" class="node"><title>Source</title>
<ellipse fill="none" stroke="black" cx="1228.99" cy="-164" rx="35.194" ry="18"/>
<text text-anchor="middle" x="1228.99" y="-160.3" font-family="Times,serif" font-size="14.00">Source</text>
</g>
<!-- Report -->
<g id="node30" class="node"><title>Report</title>
<ellipse fill="none" stroke="black" cx="1214.99" cy="-91" rx="34.394" ry="18"/>
<text text-anchor="middle" x="1214.99" y="-87.3" font-family="Times,serif" font-size="14.00">Report</text>
</g>
<!-- Source&#45;&gt;Report -->
<g id="edge10" class="edge"><title>Source&#45;&gt;Report</title>
<path fill="none" stroke="#b8d0a7" d="M1224.02,-137.791C1222.82,-131.683 1221.52,-125.13 1220.31,-118.946"/>
<ellipse fill="none" stroke="#b8d0a7" cx="1224.83" cy="-141.888" rx="4.00001" ry="4.00001"/>
<polygon fill="#b8d0a7" stroke="#b8d0a7" points="1220.28,-118.84 1222.76,-108.158 1219.32,-113.934 1218.35,-109.029 1218.35,-109.029 1218.35,-109.029 1219.32,-113.934 1213.93,-109.899 1220.28,-118.84 1220.28,-118.84"/>
</g>
<!-- MineralResource -->
<g id="node12" class="node"><title>MineralResource</title>
<ellipse fill="none" stroke="black" cx="1696.99" cy="-345" rx="71.4873" ry="18"/>
<text text-anchor="middle" x="1696.99" y="-341.3" font-family="Times,serif" font-size="14.00">MineralResource</text>
</g>
<!-- DrcCompany -->
<g id="node14" class="node"><title>DrcCompany</title>
<ellipse fill="none" stroke="black" cx="1089.99" cy="-345" rx="58.4896" ry="18"/>
<text text-anchor="middle" x="1089.99" y="-341.3" font-family="Times,serif" font-size="14.00">DrcCompany</text>
</g>
<!-- DrcCompany&#45;&gt;Employee -->
<g id="edge20" class="edge"><title>DrcCompany&#45;&gt;Employee</title>
<path fill="none" stroke="#3b96e7" d="M1061.09,-323.898C1049.73,-317.007 1036.24,-310.024 1022.99,-306 969.796,-289.837 578.646,-279.192 523.992,-269 519.891,-268.235 515.664,-267.278 511.458,-266.211"/>
<ellipse fill="none" stroke="#3b96e7" cx="1064.49" cy="-326.025" rx="4.00002" ry="4.00002"/>
<polygon fill="#3b96e7" stroke="#3b96e7" points="511.397,-266.194 502.937,-259.216 506.574,-264.875 501.75,-263.557 501.75,-263.557 501.75,-263.557 506.574,-264.875 500.564,-267.898 511.397,-266.194 511.397,-266.194"/>
</g>
<!-- DrcCompany&#45;&gt;FlowsPayableUnderContract -->
<g id="edge21" class="edge"><title>DrcCompany&#45;&gt;FlowsPayableUnderContract</title>
<path fill="none" stroke="#78cd4a" d="M1060.35,-324.018C1049.09,-317.295 1035.87,-310.394 1022.99,-306 1019.57,-304.833 845.41,-280.199 734.709,-264.61"/>
<ellipse fill="none" stroke="#78cd4a" cx="1064.03" cy="-326.286" rx="4.00002" ry="4.00002"/>
<ellipse fill="#78cd4a" stroke="#78cd4a" cx="730.482" cy="-264.015" rx="4.00001" ry="4.00001"/>
</g>
<!-- DrcCompany&#45;&gt;Deposit -->
<g id="edge19" class="edge"><title>DrcCompany&#45;&gt;Deposit</title>
<path fill="none" stroke="#0828aa" d="M1059.24,-324.306C1048.13,-317.808 1035.3,-310.977 1022.99,-306 968.475,-283.948 902.265,-268.641 859.18,-260.095"/>
<ellipse fill="none" stroke="#0828aa" cx="1062.83" cy="-326.452" rx="4.00002" ry="4.00002"/>
<polygon fill="#0828aa" stroke="#0828aa" points="859.098,-260.08 850.141,-253.753 854.19,-259.125 849.282,-258.171 849.282,-258.171 849.282,-258.171 854.19,-259.125 848.423,-262.588 859.098,-260.08 859.098,-260.08"/>
</g>
<!-- DrcCompany&#45;&gt;ProductionExport -->
<g id="edge11" class="edge"><title>DrcCompany&#45;&gt;ProductionExport</title>
<path fill="none" stroke="#9aae9e" d="M1065.61,-321.794C1050.3,-307.849 1030.58,-289.878 1014.97,-275.665"/>
<ellipse fill="none" stroke="#9aae9e" cx="1068.98" cy="-324.859" rx="4.00002" ry="4.00002"/>
<polygon fill="#9aae9e" stroke="#9aae9e" points="1014.63,-275.35 1010.26,-265.289 1010.93,-271.983 1007.23,-268.616 1007.23,-268.616 1007.23,-268.616 1010.93,-271.983 1004.2,-271.942 1014.63,-275.35 1014.63,-275.35"/>
</g>
<!-- DrcCompany&#45;&gt;ReportRelation -->
<g id="edge15" class="edge"><title>DrcCompany&#45;&gt;ReportRelation</title>
<path fill="none" stroke="#86adfd" d="M1089.99,-318.505C1089.99,-300.039 1089.99,-274.475 1089.99,-252 1089.99,-252 1089.99,-252 1089.99,-90 1089.99,-75.3919 1088.09,-59.2263 1086.04,-46.015"/>
<ellipse fill="none" stroke="#86adfd" cx="1089.99" cy="-322.705" rx="4" ry="4"/>
<polygon fill="#86adfd" stroke="#86adfd" points="1086.04,-46.0032 1088.83,-35.3994 1085.22,-41.0713 1084.39,-36.1394 1084.39,-36.1394 1084.39,-36.1394 1085.22,-41.0713 1079.96,-36.8793 1086.04,-46.0032 1086.04,-46.0032"/>
</g>
<!-- DrcCompany&#45;&gt;ShareholderRelationship -->
<g id="edge13" class="edge"><title>DrcCompany&#45;&gt;ShareholderRelationship</title>
<path fill="none" stroke="#e47469" d="M1061.42,-323.88C1050,-316.912 1036.39,-309.882 1022.99,-306 940.506,-282.11 319.733,-320.472 250.992,-269 227.144,-251.143 218.992,-216.457 216.262,-192.066"/>
<ellipse fill="none" stroke="#e47469" cx="1064.85" cy="-326.044" rx="4.00002" ry="4.00002"/>
<polygon fill="#e47469" stroke="#e47469" points="216.253,-191.964 219.856,-181.607 215.813,-186.983 215.373,-182.003 215.373,-182.003 215.373,-182.003 215.813,-186.983 210.891,-182.399 216.253,-191.964 216.253,-191.964"/>
</g>
<!-- Page -->
<g id="node18" class="node"><title>Page</title>
<ellipse fill="none" stroke="black" cx="1183.99" cy="-251" rx="27.8951" ry="18"/>
<text text-anchor="middle" x="1183.99" y="-247.3" font-family="Times,serif" font-size="14.00">Page</text>
</g>
<!-- DrcCompany&#45;&gt;Page -->
<g id="edge23" class="edge"><title>DrcCompany&#45;&gt;Page</title>
<path fill="none" stroke="#e42d3c" d="M1112.95,-321.531C1128.28,-306.525 1148.28,-286.948 1163.16,-272.392"/>
<ellipse fill="none" stroke="#e42d3c" cx="1109.66" cy="-324.754" rx="4.00002" ry="4.00002"/>
<ellipse fill="#e42d3c" stroke="#e42d3c" cx="1166.33" cy="-269.287" rx="4.00002" ry="4.00002"/>
</g>
<!-- Shareholder -->
<g id="node19" class="node"><title>Shareholder</title>
<ellipse fill="none" stroke="black" cx="312.992" cy="-251" rx="53.0913" ry="18"/>
<text text-anchor="middle" x="312.992" y="-247.3" font-family="Times,serif" font-size="14.00">Shareholder</text>
</g>
<!-- DrcCompany&#45;&gt;Shareholder -->
<g id="edge14" class="edge"><title>DrcCompany&#45;&gt;Shareholder</title>
<path fill="none" stroke="#dc2f9a" d="M1059.44,-322.787C1048.43,-316.224 1035.61,-309.742 1022.99,-306 990.388,-296.334 445.773,-272.911 411.992,-269 397.773,-267.354 382.495,-265.016 368.299,-262.598"/>
<polygon fill="#dc2f9a" stroke="#dc2f9a" points="1059.72,-322.965 1065.82,-332.077 1063.96,-325.612 1068.2,-328.26 1068.2,-328.26 1068.2,-328.26 1063.96,-325.612 1070.59,-324.442 1059.72,-322.965 1059.72,-322.965"/>
<polygon fill="#dc2f9a" stroke="#dc2f9a" points="368.035,-262.552 358.957,-256.4 363.109,-261.693 358.184,-260.833 358.184,-260.833 358.184,-260.833 363.109,-261.693 357.41,-265.266 368.035,-262.552 368.035,-262.552"/>
</g>
<!-- SocialProject -->
<g id="node20" class="node"><title>SocialProject</title>
<ellipse fill="none" stroke="black" cx="1287.99" cy="-251" rx="57.6901" ry="18"/>
<text text-anchor="middle" x="1287.99" y="-247.3" font-family="Times,serif" font-size="14.00">SocialProject</text>
</g>
<!-- DrcCompany&#45;&gt;SocialProject -->
<g id="edge17" class="edge"><title>DrcCompany&#45;&gt;SocialProject</title>
<path fill="none" stroke="#d0d7f3" d="M1122.8,-324.659C1133.83,-318.423 1146.31,-311.665 1157.99,-306 1185.87,-292.475 1218.03,-279.1 1243.38,-269.045"/>
<ellipse fill="none" stroke="#d0d7f3" cx="1119.25" cy="-326.683" rx="4.00002" ry="4.00002"/>
<polygon fill="#d0d7f3" stroke="#d0d7f3" points="1243.44,-269.023 1254.39,-269.547 1248.09,-267.191 1252.74,-265.36 1252.74,-265.36 1252.74,-265.36 1248.09,-267.191 1251.1,-261.173 1243.44,-269.023 1243.44,-269.023"/>
</g>
<!-- TaxObligation -->
<g id="node22" class="node"><title>TaxObligation</title>
<ellipse fill="none" stroke="black" cx="1425.99" cy="-251" rx="61.99" ry="18"/>
<text text-anchor="middle" x="1425.99" y="-247.3" font-family="Times,serif" font-size="14.00">TaxObligation</text>
</g>
<!-- DrcCompany&#45;&gt;TaxObligation -->
<g id="edge12" class="edge"><title>DrcCompany&#45;&gt;TaxObligation</title>
<path fill="none" stroke="#16c9ad" d="M1120.5,-324.175C1131.88,-317.536 1145.16,-310.648 1157.99,-306 1241.75,-275.651 1267.87,-287.6 1354.99,-269 1360.05,-267.92 1365.31,-266.751 1370.56,-265.551"/>
<ellipse fill="none" stroke="#16c9ad" cx="1116.75" cy="-326.421" rx="4.00002" ry="4.00002"/>
<polygon fill="#16c9ad" stroke="#16c9ad" points="1370.88,-265.478 1381.63,-267.6 1375.75,-264.347 1380.62,-263.217 1380.62,-263.217 1380.62,-263.217 1375.75,-264.347 1379.6,-258.833 1370.88,-265.478 1370.88,-265.478"/>
</g>
<!-- EnvAndSocialObligation -->
<g id="node25" class="node"><title>EnvAndSocialObligation</title>
<ellipse fill="none" stroke="black" cx="1604.99" cy="-251" rx="99.3824" ry="18"/>
<text text-anchor="middle" x="1604.99" y="-247.3" font-family="Times,serif" font-size="14.00">EnvAndSocialObligation</text>
</g>
<!-- DrcCompany&#45;&gt;EnvAndSocialObligation -->
<g id="edge22" class="edge"><title>DrcCompany&#45;&gt;EnvAndSocialObligation</title>
<path fill="none" stroke="#d59e62" d="M1119.43,-324.148C1130.99,-317.287 1144.66,-310.259 1157.99,-306 1230.18,-282.944 1421.87,-279.006 1496.99,-269 1506.33,-267.757 1516.1,-266.357 1525.79,-264.908"/>
<ellipse fill="none" stroke="#d59e62" cx="1115.95" cy="-326.284" rx="4.00002" ry="4.00002"/>
<ellipse fill="#d59e62" stroke="#d59e62" cx="1529.94" cy="-264.28" rx="4.00001" ry="4.00001"/>
</g>
<!-- ProcessingInfrastructure -->
<g id="node28" class="node"><title>ProcessingInfrastructure</title>
<ellipse fill="none" stroke="black" cx="1818.99" cy="-251" rx="96.6831" ry="18"/>
<text text-anchor="middle" x="1818.99" y="-247.3" font-family="Times,serif" font-size="14.00">ProcessingInfrastructure</text>
</g>
<!-- DrcCompany&#45;&gt;ProcessingInfrastructure -->
<g id="edge18" class="edge"><title>DrcCompany&#45;&gt;ProcessingInfrastructure</title>
<path fill="none" stroke="#65f74a" d="M1119.07,-324.014C1130.66,-317.063 1144.46,-310.009 1157.99,-306 1217.25,-288.441 1651.58,-275.956 1712.99,-269 1722.04,-267.976 1731.49,-266.723 1740.86,-265.367"/>
<ellipse fill="none" stroke="#65f74a" cx="1115.55" cy="-326.193" rx="4.00002" ry="4.00002"/>
<polygon fill="#65f74a" stroke="#65f74a" points="1741.09,-265.334 1751.64,-268.312 1746.03,-264.598 1750.98,-263.861 1750.98,-263.861 1750.98,-263.861 1746.03,-264.598 1750.32,-259.41 1741.09,-265.334 1741.09,-265.334"/>
</g>
<!-- DrcCompany&#45;&gt;Report -->
<g id="edge16" class="edge"><title>DrcCompany&#45;&gt;Report</title>
<path fill="none" stroke="#66c736" d="M1099.62,-317.57C1114.13,-278.88 1143.37,-205.016 1175.99,-146 1181.67,-135.722 1188.98,-125.101 1195.74,-116.027"/>
<polygon fill="#66c736" stroke="#66c736" points="1099.58,-317.69 1091.88,-325.497 1097.84,-322.377 1096.09,-327.064 1096.09,-327.064 1096.09,-327.064 1097.84,-322.377 1100.31,-328.631 1099.58,-317.69 1099.58,-317.69"/>
<polygon fill="#66c736" stroke="#66c736" points="1195.9,-115.811 1205.55,-110.593 1198.94,-111.837 1201.97,-107.862 1201.97,-107.862 1201.97,-107.862 1198.94,-111.837 1198.39,-105.132 1195.9,-115.811 1195.9,-115.811"/>
</g>
<!-- StockExchange -->
<g id="node15" class="node"><title>StockExchange</title>
<ellipse fill="none" stroke="black" cx="1851.99" cy="-345" rx="65.7887" ry="18"/>
<text text-anchor="middle" x="1851.99" y="-341.3" font-family="Times,serif" font-size="14.00">StockExchange</text>
</g>
<!-- PageCategory -->
<g id="node16" class="node"><title>PageCategory</title>
<ellipse fill="none" stroke="black" cx="1508.99" cy="-164" rx="59.5901" ry="18"/>
<text text-anchor="middle" x="1508.99" y="-160.3" font-family="Times,serif" font-size="14.00">PageCategory</text>
</g>
<!-- ShareholderRelationship&#45;&gt;ShareholderIntermediary -->
<g id="edge24" class="edge"><title>ShareholderRelationship&#45;&gt;ShareholderIntermediary</title>
<path fill="none" stroke="#bf9e3e" d="M186.449,-141.209C175.529,-132.873 163.049,-123.345 151.997,-114.907"/>
<ellipse fill="none" stroke="#bf9e3e" cx="189.773" cy="-143.747" rx="4.00002" ry="4.00002"/>
<polygon fill="#bf9e3e" stroke="#bf9e3e" points="151.822,-114.773 146.604,-105.128 147.848,-111.739 143.873,-108.705 143.873,-108.705 143.873,-108.705 147.848,-111.739 141.143,-112.282 151.822,-114.773 151.822,-114.773"/>
</g>
<!-- Page&#45;&gt;PageCategory -->
<g id="edge25" class="edge"><title>Page&#45;&gt;PageCategory</title>
<path fill="none" stroke="#a12250" d="M1213.26,-235.905C1215.85,-234.856 1218.45,-233.87 1220.99,-233 1315.55,-200.64 1342.81,-205.288 1439.99,-182 1444.69,-180.873 1449.57,-179.693 1454.46,-178.503"/>
<ellipse fill="none" stroke="#a12250" cx="1209.28" cy="-237.609" rx="4.00002" ry="4.00002"/>
<polygon fill="#a12250" stroke="#a12250" points="1454.76,-178.431 1465.54,-180.429 1459.61,-177.244 1464.47,-176.057 1464.47,-176.057 1464.47,-176.057 1459.61,-177.244 1463.4,-171.686 1454.76,-178.431 1454.76,-178.431"/>
</g>
<!-- Category -->
<g id="node29" class="node"><title>Category</title>
<ellipse fill="none" stroke="black" cx="1324.99" cy="-164" rx="42.7926" ry="18"/>
<text text-anchor="middle" x="1324.99" y="-160.3" font-family="Times,serif" font-size="14.00">Category</text>
</g>
<!-- Page&#45;&gt;Category -->
<g id="edge26" class="edge"><title>Page&#45;&gt;Category</title>
<path fill="none" stroke="#5f895a" d="M1209.89,-230.928C1232.27,-216.604 1264.63,-197.114 1289.42,-183.045"/>
<polygon fill="#5f895a" stroke="#5f895a" points="1209.64,-231.092 1198.8,-232.756 1205.44,-233.812 1201.25,-236.531 1201.25,-236.531 1201.25,-236.531 1205.44,-233.812 1203.69,-240.307 1209.64,-231.092 1209.64,-231.092"/>
<polygon fill="#5f895a" stroke="#5f895a" points="1289.46,-183.024 1300.38,-182.05 1293.82,-180.575 1298.18,-178.126 1298.18,-178.126 1298.18,-178.126 1293.82,-180.575 1295.97,-174.203 1289.46,-183.024 1289.46,-183.024"/>
</g>
<!-- Page&#45;&gt;Report -->
<g id="edge27" class="edge"><title>Page&#45;&gt;Report</title>
<path fill="none" stroke="#6366eb" d="M1180.64,-222.764C1178.87,-201.494 1178.28,-171.388 1184.99,-146 1187.68,-135.842 1192.7,-125.55 1197.88,-116.715"/>
<polygon fill="#6366eb" stroke="#6366eb" points="1180.64,-222.769 1177.12,-233.156 1181.12,-227.746 1181.6,-232.723 1181.6,-232.723 1181.6,-232.723 1181.12,-227.746 1186.08,-232.289 1180.64,-222.769 1180.64,-222.769"/>
<polygon fill="#6366eb" stroke="#6366eb" points="1197.96,-116.591 1207.06,-110.479 1200.6,-112.346 1203.24,-108.101 1203.24,-108.101 1203.24,-108.101 1200.6,-112.346 1199.42,-105.723 1197.96,-116.591 1197.96,-116.591"/>
</g>
<!-- Shareholder&#45;&gt;ShareholderRelationship -->
<g id="edge28" class="edge"><title>Shareholder&#45;&gt;ShareholderRelationship</title>
<path fill="none" stroke="#a4b159" d="M276.137,-232.122C267.744,-227.187 259.188,-221.405 251.992,-215 244.089,-207.966 236.817,-198.993 230.849,-190.595"/>
<ellipse fill="none" stroke="#a4b159" cx="279.632" cy="-234.095" rx="4.00002" ry="4.00002"/>
<polygon fill="#a4b159" stroke="#a4b159" points="230.741,-190.436 228.856,-179.633 227.936,-186.297 225.131,-182.158 225.131,-182.158 225.131,-182.158 227.936,-186.297 221.406,-184.682 230.741,-190.436 230.741,-190.436"/>
</g>
<!-- Admin -->
<g id="node21" class="node"><title>Admin</title>
<polygon fill="none" stroke="black" stroke-dasharray="1,5" points="1990.49,-363 1935.49,-363 1935.49,-327 1990.49,-327 1990.49,-363"/>
<text text-anchor="middle" x="1962.99" y="-341.3" font-family="Times,serif" font-size="14.00">Admin</text>
</g>
<!-- ReportCategory -->
<g id="node24" class="node"><title>ReportCategory</title>
<ellipse fill="none" stroke="black" cx="1351.99" cy="-18" rx="66.8882" ry="18"/>
<text text-anchor="middle" x="1351.99" y="-14.3" font-family="Times,serif" font-size="14.00">ReportCategory</text>
</g>
<!-- Attachment -->
<g id="node26" class="node"><title>Attachment</title>
<ellipse fill="none" stroke="black" cx="1214.99" cy="-18" rx="51.9908" ry="18"/>
<text text-anchor="middle" x="1214.99" y="-14.3" font-family="Times,serif" font-size="14.00">Attachment</text>
</g>
<!-- Author -->
<g id="node27" class="node"><title>Author</title>
<ellipse fill="none" stroke="black" cx="2043.99" cy="-345" rx="35.9954" ry="18"/>
<text text-anchor="middle" x="2043.99" y="-341.3" font-family="Times,serif" font-size="14.00">Author</text>
</g>
<!-- Category&#45;&gt;Page -->
<g id="edge30" class="edge"><title>Category&#45;&gt;Page</title>
<path fill="none" stroke="#292f95" d="M1298.37,-184.533C1273.96,-200.132 1238.1,-221.632 1212.97,-235.671"/>
<ellipse fill="none" stroke="#292f95" cx="1301.89" cy="-182.266" rx="4.00002" ry="4.00002"/>
<ellipse fill="#292f95" stroke="#292f95" cx="1209.4" cy="-237.643" rx="4.00002" ry="4.00002"/>
</g>
<!-- Category&#45;&gt;ReportCategory -->
<g id="edge31" class="edge"><title>Category&#45;&gt;ReportCategory</title>
<path fill="none" stroke="#f7ddee" d="M1329.71,-137.838C1334.52,-112.172 1341.96,-72.4773 1346.91,-46.1235"/>
<ellipse fill="none" stroke="#f7ddee" cx="1328.93" cy="-141.984" rx="4.00001" ry="4.00001"/>
<polygon fill="#f7ddee" stroke="#f7ddee" points="1346.95,-45.8907 1353.22,-36.8913 1347.87,-40.9763 1348.79,-36.0619 1348.79,-36.0619 1348.79,-36.0619 1347.87,-40.9763 1344.37,-35.2326 1346.95,-45.8907 1346.95,-45.8907"/>
</g>
<!-- Category&#45;&gt;Category -->
<g id="edge29" class="edge"><title>Category&#45;&gt;Category</title>
<path fill="none" stroke="#700e39" d="M1373.11,-170.201C1380.7,-169.284 1385.89,-167.217 1385.89,-164 1385.89,-161.051 1381.53,-159.069 1374.96,-158.052"/>
<ellipse fill="none" stroke="#700e39" cx="1368.81" cy="-170.478" rx="4" ry="4"/>
<polygon fill="#700e39" stroke="#700e39" points="1374.79,-158.039 1365.17,-152.778 1369.8,-157.652 1364.82,-157.265 1364.82,-157.265 1364.82,-157.265 1369.8,-157.652 1364.47,-161.751 1374.79,-158.039 1374.79,-158.039"/>
<text text-anchor="middle" x="1408.39" y="-160.3" font-family="Times,serif" font-size="14.00">children</text>
</g>
<!-- Category&#45;&gt;Report -->
<g id="edge32" class="edge"><title>Category&#45;&gt;Report</title>
<path fill="none" stroke="#fd6636" d="M1294.04,-143.024C1278.55,-133.021 1259.87,-120.969 1244.57,-111.091"/>
<polygon fill="#fd6636" stroke="#fd6636" points="1294.06,-143.038 1300.03,-152.242 1298.27,-145.749 1302.47,-148.461 1302.47,-148.461 1302.47,-148.461 1298.27,-145.749 1304.91,-144.68 1294.06,-143.038 1294.06,-143.038"/>
<polygon fill="#fd6636" stroke="#fd6636" points="1244.4,-110.981 1238.44,-101.777 1240.2,-108.269 1236,-105.558 1236,-105.558 1236,-105.558 1240.2,-108.269 1233.56,-109.339 1244.4,-110.981 1244.4,-110.981"/>
</g>
<!-- Report&#45;&gt;ReportRelation -->
<g id="edge35" class="edge"><title>Report&#45;&gt;ReportRelation</title>
<path fill="none" stroke="#ac0437" d="M1184.36,-73.7692C1164.8,-63.4058 1139.31,-49.899 1118.53,-38.8918"/>
<ellipse fill="none" stroke="#ac0437" cx="1188.12" cy="-75.76" rx="4.00002" ry="4.00002"/>
<polygon fill="#ac0437" stroke="#ac0437" points="1118.49,-38.8697 1111.76,-30.2114 1114.07,-36.5287 1109.66,-34.1877 1109.66,-34.1877 1109.66,-34.1877 1114.07,-36.5287 1107.55,-38.164 1118.49,-38.8697 1118.49,-38.8697"/>
</g>
<!-- Report&#45;&gt;ReportCategory -->
<g id="edge34" class="edge"><title>Report&#45;&gt;ReportCategory</title>
<path fill="none" stroke="#dcaffe" d="M1245.69,-74.091C1265.7,-63.7212 1291.97,-50.1043 1313.39,-39.003"/>
<ellipse fill="none" stroke="#dcaffe" cx="1242.09" cy="-75.9541" rx="4.00002" ry="4.00002"/>
<polygon fill="#dcaffe" stroke="#dcaffe" points="1313.67,-38.8599 1324.62,-38.2539 1318.11,-36.5592 1322.55,-34.2585 1322.55,-34.2585 1322.55,-34.2585 1318.11,-36.5592 1320.48,-30.2632 1313.67,-38.8599 1313.67,-38.8599"/>
</g>
<!-- Report&#45;&gt;Attachment -->
<g id="edge33" class="edge"><title>Report&#45;&gt;Attachment</title>
<path fill="none" stroke="#368554" d="M1214.99,-64.791C1214.99,-58.832 1214.99,-52.4496 1214.99,-46.3988"/>
<ellipse fill="none" stroke="#368554" cx="1214.99" cy="-68.8129" rx="4" ry="4"/>
<polygon fill="#368554" stroke="#368554" points="1214.99,-46.0288 1219.49,-36.0288 1214.99,-41.0288 1214.99,-36.0288 1214.99,-36.0288 1214.99,-36.0288 1214.99,-41.0288 1210.49,-36.0289 1214.99,-46.0288 1214.99,-46.0288"/>
</g>
</g>
</svg>
