<?xml version="1.0" encoding="UTF-8" standalone="no"?>
<!DOCTYPE svg PUBLIC "-//W3C//DTD SVG 1.1//EN"
 "http://www.w3.org/Graphics/SVG/1.1/DTD/svg11.dtd">
<!-- Generated by graphviz version 2.38.0 (20140413.2041)
 -->
<!-- Title: models_diagram Pages: 1 -->
<svg width="1796pt" height="1984pt"
 viewBox="0.00 0.00 1795.50 1984.00" xmlns="http://www.w3.org/2000/svg" xmlns:xlink="http://www.w3.org/1999/xlink">
<g id="graph0" class="graph" transform="scale(1 1) rotate(0) translate(4 1980)">
<title>models_diagram</title>
<polygon fill="white" stroke="none" points="-4,4 -4,-1980 1791.5,-1980 1791.5,4 -4,4"/>
<!-- _diagram_info -->
<g id="node1" class="node"><title>_diagram_info</title>
<text text-anchor="start" x="296" y="-1444.6" font-family="Times,serif" font-size="13.00">Models diagram</text>
<text text-anchor="start" x="296" y="-1430.6" font-family="Times,serif" font-size="13.00">Date: Mar 27 2015 &#45; 06:44</text>
<text text-anchor="start" x="296" y="-1416.6" font-family="Times,serif" font-size="13.00">Migration version: 20150226155606</text>
<text text-anchor="start" x="296" y="-1402.6" font-family="Times,serif" font-size="13.00">Generated by RailRoady 1.3.0</text>
<text text-anchor="start" x="296" y="-1388.6" font-family="Times,serif" font-size="13.00">http://railroady.prestonlee.com</text>
</g>
<!-- StockExchangeCountry -->
<g id="node2" class="node"><title>StockExchangeCountry</title>
<path fill="none" stroke="black" d="M374.5,-624C374.5,-624 495.5,-624 495.5,-624 501.5,-624 507.5,-630 507.5,-636 507.5,-636 507.5,-703 507.5,-703 507.5,-709 501.5,-715 495.5,-715 495.5,-715 374.5,-715 374.5,-715 368.5,-715 362.5,-709 362.5,-703 362.5,-703 362.5,-636 362.5,-636 362.5,-630 368.5,-624 374.5,-624"/>
<text text-anchor="middle" x="435" y="-699.8" font-family="Times,serif" font-size="14.00">StockExchangeCountry</text>
<polyline fill="none" stroke="black" points="362.5,-692 507.5,-692 "/>
<text text-anchor="start" x="370.5" y="-676.8" font-family="Times,serif" font-size="14.00">id :integer</text>
<text text-anchor="start" x="370.5" y="-661.8" font-family="Times,serif" font-size="14.00">name :string</text>
<text text-anchor="start" x="370.5" y="-646.8" font-family="Times,serif" font-size="14.00">created_at :datetime</text>
<text text-anchor="start" x="370.5" y="-631.8" font-family="Times,serif" font-size="14.00">updated_at :datetime</text>
</g>
<!-- ProductionExport -->
<g id="node3" class="node"><title>ProductionExport</title>
<path fill="none" stroke="black" d="M392,-226C392,-226 558,-226 558,-226 564,-226 570,-232 570,-238 570,-238 570,-395 570,-395 570,-401 564,-407 558,-407 558,-407 392,-407 392,-407 386,-407 380,-401 380,-395 380,-395 380,-238 380,-238 380,-232 386,-226 392,-226"/>
<text text-anchor="middle" x="475" y="-391.8" font-family="Times,serif" font-size="14.00">ProductionExport</text>
<polyline fill="none" stroke="black" points="380,-384 570,-384 "/>
<text text-anchor="start" x="388" y="-368.8" font-family="Times,serif" font-size="14.00">id :integer</text>
<text text-anchor="start" x="388" y="-353.8" font-family="Times,serif" font-size="14.00">congolese_company_id :integer</text>
<text text-anchor="start" x="388" y="-338.8" font-family="Times,serif" font-size="14.00">year :integer</text>
<text text-anchor="start" x="388" y="-323.8" font-family="Times,serif" font-size="14.00">type_of_product :string</text>
<text text-anchor="start" x="388" y="-308.8" font-family="Times,serif" font-size="14.00">tonnage :string</text>
<text text-anchor="start" x="388" y="-293.8" font-family="Times,serif" font-size="14.00">grade :integer</text>
<text text-anchor="start" x="388" y="-278.8" font-family="Times,serif" font-size="14.00">metal_content :string</text>
<text text-anchor="start" x="388" y="-263.8" font-family="Times,serif" font-size="14.00">export_value :decimal</text>
<text text-anchor="start" x="388" y="-248.8" font-family="Times,serif" font-size="14.00">created_at :datetime</text>
<text text-anchor="start" x="388" y="-233.8" font-family="Times,serif" font-size="14.00">updated_at :datetime</text>
</g>
<!-- Source -->
<g id="node4" class="node"><title>Source</title>
<path fill="none" stroke="black" d="M788.5,-1367C788.5,-1367 895.5,-1367 895.5,-1367 901.5,-1367 907.5,-1373 907.5,-1379 907.5,-1379 907.5,-1461 907.5,-1461 907.5,-1467 901.5,-1473 895.5,-1473 895.5,-1473 788.5,-1473 788.5,-1473 782.5,-1473 776.5,-1467 776.5,-1461 776.5,-1461 776.5,-1379 776.5,-1379 776.5,-1373 782.5,-1367 788.5,-1367"/>
<text text-anchor="middle" x="842" y="-1457.8" font-family="Times,serif" font-size="14.00">Source</text>
<polyline fill="none" stroke="black" points="776.5,-1450 907.5,-1450 "/>
<text text-anchor="start" x="784.5" y="-1434.8" font-family="Times,serif" font-size="14.00">id :integer</text>
<text text-anchor="start" x="784.5" y="-1419.8" font-family="Times,serif" font-size="14.00">name :string</text>
<text text-anchor="start" x="784.5" y="-1404.8" font-family="Times,serif" font-size="14.00">description :text</text>
<text text-anchor="start" x="784.5" y="-1389.8" font-family="Times,serif" font-size="14.00">created_at :datetime</text>
<text text-anchor="start" x="784.5" y="-1374.8" font-family="Times,serif" font-size="14.00">updated_at :datetime</text>
</g>
<!-- CongoleseCompany -->
<g id="node5" class="node"><title>CongoleseCompany</title>
<path fill="none" stroke="black" d="M538,-511.5C538,-511.5 658,-511.5 658,-511.5 664,-511.5 670,-517.5 670,-523.5 670,-523.5 670,-815.5 670,-815.5 670,-821.5 664,-827.5 658,-827.5 658,-827.5 538,-827.5 538,-827.5 532,-827.5 526,-821.5 526,-815.5 526,-815.5 526,-523.5 526,-523.5 526,-517.5 532,-511.5 538,-511.5"/>
<text text-anchor="middle" x="598" y="-812.3" font-family="Times,serif" font-size="14.00">CongoleseCompany</text>
<polyline fill="none" stroke="black" points="526,-804.5 670,-804.5 "/>
<text text-anchor="start" x="534" y="-789.3" font-family="Times,serif" font-size="14.00">id :integer</text>
<text text-anchor="start" x="534" y="-774.3" font-family="Times,serif" font-size="14.00">name :string</text>
<text text-anchor="start" x="534" y="-759.3" font-family="Times,serif" font-size="14.00">acronym :string</text>
<text text-anchor="start" x="534" y="-744.3" font-family="Times,serif" font-size="14.00">nrc :string</text>
<text text-anchor="start" x="534" y="-729.3" font-family="Times,serif" font-size="14.00">rccm :string</text>
<text text-anchor="start" x="534" y="-714.3" font-family="Times,serif" font-size="14.00">contact :string</text>
<text text-anchor="start" x="534" y="-699.3" font-family="Times,serif" font-size="14.00">website :string</text>
<text text-anchor="start" x="534" y="-684.3" font-family="Times,serif" font-size="14.00">legal_status :string</text>
<text text-anchor="start" x="534" y="-669.3" font-family="Times,serif" font-size="14.00">project_type :string</text>
<text text-anchor="start" x="534" y="-654.3" font-family="Times,serif" font-size="14.00">project_phase :string</text>
<text text-anchor="start" x="534" y="-639.3" font-family="Times,serif" font-size="14.00">legal_regime :string</text>
<text text-anchor="start" x="534" y="-624.3" font-family="Times,serif" font-size="14.00">production_year :string</text>
<text text-anchor="start" x="534" y="-609.3" font-family="Times,serif" font-size="14.00">type_of_product :string</text>
<text text-anchor="start" x="534" y="-594.3" font-family="Times,serif" font-size="14.00">tonnage :string</text>
<text text-anchor="start" x="534" y="-579.3" font-family="Times,serif" font-size="14.00">grade_percent :string</text>
<text text-anchor="start" x="534" y="-564.3" font-family="Times,serif" font-size="14.00">metal_content :string</text>
<text text-anchor="start" x="534" y="-549.3" font-family="Times,serif" font-size="14.00">export_value :string</text>
<text text-anchor="start" x="534" y="-534.3" font-family="Times,serif" font-size="14.00">created_at :datetime</text>
<text text-anchor="start" x="534" y="-519.3" font-family="Times,serif" font-size="14.00">updated_at :datetime</text>
</g>
<!-- CongoleseCompany&#45;&gt;ProductionExport -->
<g id="edge1" class="edge"><title>CongoleseCompany&#45;&gt;ProductionExport</title>
<path fill="none" stroke="#cf272a" d="M540.326,-503.92C529.867,-474.071 519.259,-443.799 509.719,-416.576"/>
<ellipse fill="none" stroke="#cf272a" cx="541.653" cy="-507.704" rx="4.00001" ry="4.00001"/>
<polygon fill="#cf272a" stroke="#cf272a" points="509.698,-416.517 510.638,-405.592 508.045,-411.798 506.391,-407.08 506.391,-407.08 506.391,-407.08 508.045,-411.798 502.144,-408.568 509.698,-416.517 509.698,-416.517"/>
</g>
<!-- ShareholderRelationship -->
<g id="node7" class="node"><title>ShareholderRelationship</title>
<path fill="none" stroke="black" d="M505.5,-0.5C505.5,-0.5 690.5,-0.5 690.5,-0.5 696.5,-0.5 702.5,-6.5 702.5,-12.5 702.5,-12.5 702.5,-109.5 702.5,-109.5 702.5,-115.5 696.5,-121.5 690.5,-121.5 690.5,-121.5 505.5,-121.5 505.5,-121.5 499.5,-121.5 493.5,-115.5 493.5,-109.5 493.5,-109.5 493.5,-12.5 493.5,-12.5 493.5,-6.5 499.5,-0.5 505.5,-0.5"/>
<text text-anchor="middle" x="598" y="-106.3" font-family="Times,serif" font-size="14.00">ShareholderRelationship</text>
<polyline fill="none" stroke="black" points="493.5,-98.5 702.5,-98.5 "/>
<text text-anchor="start" x="501.5" y="-83.3" font-family="Times,serif" font-size="14.00">id :integer</text>
<text text-anchor="start" x="501.5" y="-68.3" font-family="Times,serif" font-size="14.00">multinational_company_id :integer</text>
<text text-anchor="start" x="501.5" y="-53.3" font-family="Times,serif" font-size="14.00">congolese_company_id :integer</text>
<text text-anchor="start" x="501.5" y="-38.3" font-family="Times,serif" font-size="14.00">shareholder_id :integer</text>
<text text-anchor="start" x="501.5" y="-23.3" font-family="Times,serif" font-size="14.00">created_at :datetime</text>
<text text-anchor="start" x="501.5" y="-8.3" font-family="Times,serif" font-size="14.00">updated_at :datetime</text>
</g>
<!-- CongoleseCompany&#45;&gt;ShareholderRelationship -->
<g id="edge4" class="edge"><title>CongoleseCompany&#45;&gt;ShareholderRelationship</title>
<path fill="none" stroke="#900fa3" d="M598,-502.855C598,-381.041 598,-221.632 598,-131.685"/>
<ellipse fill="none" stroke="#900fa3" cx="598" cy="-507.128" rx="4" ry="4"/>
<polygon fill="#900fa3" stroke="#900fa3" points="598,-131.601 602.5,-121.601 598,-126.601 598,-121.601 598,-121.601 598,-121.601 598,-126.601 593.5,-121.601 598,-131.601 598,-131.601"/>
</g>
<!-- Shareholder -->
<g id="node8" class="node"><title>Shareholder</title>
<path fill="none" stroke="black" d="M12,-233.5C12,-233.5 350,-233.5 350,-233.5 356,-233.5 362,-239.5 362,-245.5 362,-245.5 362,-387.5 362,-387.5 362,-393.5 356,-399.5 350,-399.5 350,-399.5 12,-399.5 12,-399.5 6,-399.5 0,-393.5 0,-387.5 0,-387.5 0,-245.5 0,-245.5 0,-239.5 6,-233.5 12,-233.5"/>
<text text-anchor="middle" x="181" y="-384.3" font-family="Times,serif" font-size="14.00">Shareholder</text>
<polyline fill="none" stroke="black" points="0,-376.5 362,-376.5 "/>
<text text-anchor="start" x="8" y="-361.3" font-family="Times,serif" font-size="14.00">id :integer</text>
<text text-anchor="start" x="8" y="-346.3" font-family="Times,serif" font-size="14.00">drc_company :string</text>
<text text-anchor="start" x="8" y="-331.3" font-family="Times,serif" font-size="14.00">partnership_with_the_portfolio_companies_of_the_state :string</text>
<text text-anchor="start" x="8" y="-316.3" font-family="Times,serif" font-size="14.00">state :string</text>
<text text-anchor="start" x="8" y="-301.3" font-family="Times,serif" font-size="14.00">private_direct :string</text>
<text text-anchor="start" x="8" y="-286.3" font-family="Times,serif" font-size="14.00">private_indirect :string</text>
<text text-anchor="start" x="8" y="-271.3" font-family="Times,serif" font-size="14.00">year :integer</text>
<text text-anchor="start" x="8" y="-256.3" font-family="Times,serif" font-size="14.00">created_at :datetime</text>
<text text-anchor="start" x="8" y="-241.3" font-family="Times,serif" font-size="14.00">updated_at :datetime</text>
</g>
<!-- CongoleseCompany&#45;&gt;Shareholder -->
<g id="edge5" class="edge"><title>CongoleseCompany&#45;&gt;Shareholder</title>
<path fill="none" stroke="#23f4fa" d="M518.207,-512.778C517.477,-512.177 516.742,-511.584 516,-511 463.833,-469.919 430.269,-504.939 371,-475 335.718,-457.178 301.19,-431.746 271.455,-406.505"/>
<polygon fill="#23f4fa" stroke="#23f4fa" points="518.322,-512.88 522.811,-522.885 522.06,-516.2 525.799,-519.52 525.799,-519.52 525.799,-519.52 522.06,-516.2 528.787,-516.155 518.322,-512.88 518.322,-512.88"/>
<polygon fill="#23f4fa" stroke="#23f4fa" points="271.182,-406.27 266.536,-396.337 267.392,-403.009 263.601,-399.748 263.601,-399.748 263.601,-399.748 267.392,-403.009 260.667,-403.159 271.182,-406.27 271.182,-406.27"/>
</g>
<!-- TaxObligation -->
<g id="node10" class="node"><title>TaxObligation</title>
<path fill="none" stroke="black" d="M637.5,-158.5C637.5,-158.5 1010.5,-158.5 1010.5,-158.5 1016.5,-158.5 1022.5,-164.5 1022.5,-170.5 1022.5,-170.5 1022.5,-462.5 1022.5,-462.5 1022.5,-468.5 1016.5,-474.5 1010.5,-474.5 1010.5,-474.5 637.5,-474.5 637.5,-474.5 631.5,-474.5 625.5,-468.5 625.5,-462.5 625.5,-462.5 625.5,-170.5 625.5,-170.5 625.5,-164.5 631.5,-158.5 637.5,-158.5"/>
<text text-anchor="middle" x="824" y="-459.3" font-family="Times,serif" font-size="14.00">TaxObligation</text>
<polyline fill="none" stroke="black" points="625.5,-451.5 1022.5,-451.5 "/>
<text text-anchor="start" x="633.5" y="-436.3" font-family="Times,serif" font-size="14.00">id :integer</text>
<text text-anchor="start" x="633.5" y="-421.3" font-family="Times,serif" font-size="14.00">congolese_company_id :integer</text>
<text text-anchor="start" x="633.5" y="-406.3" font-family="Times,serif" font-size="14.00">signature_bonus_payable :integer</text>
<text text-anchor="start" x="633.5" y="-391.3" font-family="Times,serif" font-size="14.00">formula_of :string</text>
<text text-anchor="start" x="633.5" y="-376.3" font-family="Times,serif" font-size="14.00">royalties_payable :string</text>
<text text-anchor="start" x="633.5" y="-361.3" font-family="Times,serif" font-size="14.00">formula_of_annuity_or_rent_to_pay :string</text>
<text text-anchor="start" x="633.5" y="-346.3" font-family="Times,serif" font-size="14.00">amount_for_transfer_of_shares :integer</text>
<text text-anchor="start" x="633.5" y="-331.3" font-family="Times,serif" font-size="14.00">recipient_of_the_contractual_cash_flows :string</text>
<text text-anchor="start" x="633.5" y="-316.3" font-family="Times,serif" font-size="14.00">year :integer</text>
<text text-anchor="start" x="633.5" y="-301.3" font-family="Times,serif" font-size="14.00">total_amount_paid_according_to_company_EITI_declaration :integer</text>
<text text-anchor="start" x="633.5" y="-286.3" font-family="Times,serif" font-size="14.00">royalties :integer</text>
<text text-anchor="start" x="633.5" y="-271.3" font-family="Times,serif" font-size="14.00">declared_IBP :integer</text>
<text text-anchor="start" x="633.5" y="-256.3" font-family="Times,serif" font-size="14.00">declared_customs_duty_on_imports :integer</text>
<text text-anchor="start" x="633.5" y="-241.3" font-family="Times,serif" font-size="14.00">surface_rights_declared :integer</text>
<text text-anchor="start" x="633.5" y="-226.3" font-family="Times,serif" font-size="14.00">signature_bonus_declared :integer</text>
<text text-anchor="start" x="633.5" y="-211.3" font-family="Times,serif" font-size="14.00">declared_royalties :integer</text>
<text text-anchor="start" x="633.5" y="-196.3" font-family="Times,serif" font-size="14.00">other_contractual_flows_reported :string</text>
<text text-anchor="start" x="633.5" y="-181.3" font-family="Times,serif" font-size="14.00">created_at :datetime</text>
<text text-anchor="start" x="633.5" y="-166.3" font-family="Times,serif" font-size="14.00">updated_at :datetime</text>
</g>
<!-- CongoleseCompany&#45;&gt;TaxObligation -->
<g id="edge2" class="edge"><title>CongoleseCompany&#45;&gt;TaxObligation</title>
<path fill="none" stroke="#55c06c" d="M674.205,-518.785C675.798,-516.159 677.397,-513.562 679,-511 684.753,-501.804 690.822,-492.493 697.085,-483.184"/>
<ellipse fill="none" stroke="#55c06c" cx="672.058" cy="-522.369" rx="4.00002" ry="4.00002"/>
<polygon fill="#55c06c" stroke="#55c06c" points="697.27,-482.912 706.61,-477.167 700.078,-478.775 702.887,-474.639 702.887,-474.639 702.887,-474.639 700.078,-478.775 699.164,-472.111 697.27,-482.912 697.27,-482.912"/>
</g>
<!-- EnvAndSocialObligation -->
<g id="node12" class="node"><title>EnvAndSocialObligation</title>
<path fill="none" stroke="black" d="M1053,-166C1053,-166 1423,-166 1423,-166 1429,-166 1435,-172 1435,-178 1435,-178 1435,-455 1435,-455 1435,-461 1429,-467 1423,-467 1423,-467 1053,-467 1053,-467 1047,-467 1041,-461 1041,-455 1041,-455 1041,-178 1041,-178 1041,-172 1047,-166 1053,-166"/>
<text text-anchor="middle" x="1238" y="-451.8" font-family="Times,serif" font-size="14.00">EnvAndSocialObligation</text>
<polyline fill="none" stroke="black" points="1041,-444 1435,-444 "/>
<text text-anchor="start" x="1049" y="-428.8" font-family="Times,serif" font-size="14.00">id :integer</text>
<text text-anchor="start" x="1049" y="-413.8" font-family="Times,serif" font-size="14.00">congolese_company_id :integer</text>
<text text-anchor="start" x="1049" y="-398.8" font-family="Times,serif" font-size="14.00">year :integer</text>
<text text-anchor="start" x="1049" y="-383.8" font-family="Times,serif" font-size="14.00">number_of_direct_employees_expats :integer</text>
<text text-anchor="start" x="1049" y="-368.8" font-family="Times,serif" font-size="14.00">number_of_direct_employees_congolese :integer</text>
<text text-anchor="start" x="1049" y="-353.8" font-family="Times,serif" font-size="14.00">number_of_subcontractors_expats :integer</text>
<text text-anchor="start" x="1049" y="-338.8" font-family="Times,serif" font-size="14.00">number_of_subcontractors_congolese :integer</text>
<text text-anchor="start" x="1049" y="-323.8" font-family="Times,serif" font-size="14.00">establishment :string</text>
<text text-anchor="start" x="1049" y="-308.8" font-family="Times,serif" font-size="14.00">of_community_funds :boolean</text>
<text text-anchor="start" x="1049" y="-293.8" font-family="Times,serif" font-size="14.00">dates_of_public_consultation_as_part_of_the_env_impact :string</text>
<text text-anchor="start" x="1049" y="-278.8" font-family="Times,serif" font-size="14.00">study_dates :string</text>
<text text-anchor="start" x="1049" y="-263.8" font-family="Times,serif" font-size="14.00">link_to_environmental_impact_study :string</text>
<text text-anchor="start" x="1049" y="-248.8" font-family="Times,serif" font-size="14.00">link_to_sustainable_dev_plan_and_or_community_agreement :string</text>
<text text-anchor="start" x="1049" y="-233.8" font-family="Times,serif" font-size="14.00">existence_of_a_platform_for_community_dialogue :boolean</text>
<text text-anchor="start" x="1049" y="-218.8" font-family="Times,serif" font-size="14.00">amount_Invested_in :string</text>
<text text-anchor="start" x="1049" y="-203.8" font-family="Times,serif" font-size="14.00">social_programmes :integer</text>
<text text-anchor="start" x="1049" y="-188.8" font-family="Times,serif" font-size="14.00">created_at :datetime</text>
<text text-anchor="start" x="1049" y="-173.8" font-family="Times,serif" font-size="14.00">updated_at :datetime</text>
</g>
<!-- CongoleseCompany&#45;&gt;EnvAndSocialObligation -->
<g id="edge3" class="edge"><title>CongoleseCompany&#45;&gt;EnvAndSocialObligation</title>
<path fill="none" stroke="#613b4b" d="M676.734,-512.588C677.483,-512.049 678.238,-511.52 679,-511 808.895,-422.353 884.735,-532.771 1031,-475 1033.95,-473.835 1036.89,-472.615 1039.83,-471.345"/>
<ellipse fill="none" stroke="#613b4b" cx="673.338" cy="-515.223" rx="4.00002" ry="4.00002"/>
<polygon fill="#613b4b" stroke="#613b4b" points="1040.06,-471.239 1051.03,-471.22 1044.62,-469.179 1049.18,-467.119 1049.18,-467.119 1049.18,-467.119 1044.62,-469.179 1047.32,-463.019 1040.06,-471.239 1040.06,-471.239"/>
</g>
<!-- StockExchange -->
<g id="node6" class="node"><title>StockExchange</title>
<path fill="none" stroke="black" d="M700.5,-624C700.5,-624 807.5,-624 807.5,-624 813.5,-624 819.5,-630 819.5,-636 819.5,-636 819.5,-703 819.5,-703 819.5,-709 813.5,-715 807.5,-715 807.5,-715 700.5,-715 700.5,-715 694.5,-715 688.5,-709 688.5,-703 688.5,-703 688.5,-636 688.5,-636 688.5,-630 694.5,-624 700.5,-624"/>
<text text-anchor="middle" x="754" y="-699.8" font-family="Times,serif" font-size="14.00">StockExchange</text>
<polyline fill="none" stroke="black" points="688.5,-692 819.5,-692 "/>
<text text-anchor="start" x="696.5" y="-676.8" font-family="Times,serif" font-size="14.00">id :integer</text>
<text text-anchor="start" x="696.5" y="-661.8" font-family="Times,serif" font-size="14.00">name :string</text>
<text text-anchor="start" x="696.5" y="-646.8" font-family="Times,serif" font-size="14.00">created_at :datetime</text>
<text text-anchor="start" x="696.5" y="-631.8" font-family="Times,serif" font-size="14.00">updated_at :datetime</text>
</g>
<!-- Shareholder&#45;&gt;ShareholderRelationship -->
<g id="edge6" class="edge"><title>Shareholder&#45;&gt;ShareholderRelationship</title>
<path fill="none" stroke="#70c67a" d="M275.406,-228.05C304.714,-203.492 338.014,-178.048 371,-158 406.141,-136.642 446.89,-117.79 484.083,-102.573"/>
<ellipse fill="none" stroke="#70c67a" cx="272.271" cy="-230.695" rx="4.00002" ry="4.00002"/>
<polygon fill="#70c67a" stroke="#70c67a" points="484.185,-102.532 495.143,-102.956 488.821,-100.658 493.456,-98.7836 493.456,-98.7836 493.456,-98.7836 488.821,-100.658 491.769,-94.6117 484.185,-102.532 484.185,-102.532"/>
</g>
<!-- MultinationalCompany -->
<g id="node9" class="node"><title>MultinationalCompany</title>
<path fill="none" stroke="black" d="M532.5,-1307C532.5,-1307 663.5,-1307 663.5,-1307 669.5,-1307 675.5,-1313 675.5,-1319 675.5,-1319 675.5,-1521 675.5,-1521 675.5,-1527 669.5,-1533 663.5,-1533 663.5,-1533 532.5,-1533 532.5,-1533 526.5,-1533 520.5,-1527 520.5,-1521 520.5,-1521 520.5,-1319 520.5,-1319 520.5,-1313 526.5,-1307 532.5,-1307"/>
<text text-anchor="middle" x="598" y="-1517.8" font-family="Times,serif" font-size="14.00">MultinationalCompany</text>
<polyline fill="none" stroke="black" points="520.5,-1510 675.5,-1510 "/>
<text text-anchor="start" x="528.5" y="-1494.8" font-family="Times,serif" font-size="14.00">id :integer</text>
<text text-anchor="start" x="528.5" y="-1479.8" font-family="Times,serif" font-size="14.00">name :string</text>
<text text-anchor="start" x="528.5" y="-1464.8" font-family="Times,serif" font-size="14.00">acronym :string</text>
<text text-anchor="start" x="528.5" y="-1449.8" font-family="Times,serif" font-size="14.00">contact :string</text>
<text text-anchor="start" x="528.5" y="-1434.8" font-family="Times,serif" font-size="14.00">website :string</text>
<text text-anchor="start" x="528.5" y="-1419.8" font-family="Times,serif" font-size="14.00">listed :string</text>
<text text-anchor="start" x="528.5" y="-1404.8" font-family="Times,serif" font-size="14.00">on :string</text>
<text text-anchor="start" x="528.5" y="-1389.8" font-family="Times,serif" font-size="14.00">stock :string</text>
<text text-anchor="start" x="528.5" y="-1374.8" font-family="Times,serif" font-size="14.00">market :boolean</text>
<text text-anchor="start" x="528.5" y="-1359.8" font-family="Times,serif" font-size="14.00">stock_information :string</text>
<text text-anchor="start" x="528.5" y="-1344.8" font-family="Times,serif" font-size="14.00">stock_symbol :string</text>
<text text-anchor="start" x="528.5" y="-1329.8" font-family="Times,serif" font-size="14.00">created_at :datetime</text>
<text text-anchor="start" x="528.5" y="-1314.8" font-family="Times,serif" font-size="14.00">updated_at :datetime</text>
</g>
<!-- Shareholder&#45;&gt;MultinationalCompany -->
<g id="edge7" class="edge"><title>Shareholder&#45;&gt;MultinationalCompany</title>
<path fill="none" stroke="#279820" d="M185.705,-409.908C196.707,-525.001 233.115,-719.646 353,-828 406.432,-876.293 461.847,-811.358 511,-864 618.984,-979.65 625.044,-1171.61 614.996,-1296.71"/>
<polygon fill="#279820" stroke="#279820" points="185.683,-409.668 189.258,-399.301 185.23,-404.688 184.776,-399.709 184.776,-399.709 184.776,-399.709 185.23,-404.688 180.295,-400.117 185.683,-409.668 185.683,-409.668"/>
<polygon fill="#279820" stroke="#279820" points="614.992,-1296.76 609.662,-1306.35 614.569,-1301.75 614.146,-1306.73 614.146,-1306.73 614.146,-1306.73 614.569,-1301.75 618.63,-1307.11 614.992,-1296.76 614.992,-1296.76"/>
</g>
<!-- MultinationalCompany&#45;&gt;StockExchangeCountry -->
<g id="edge10" class="edge"><title>MultinationalCompany&#45;&gt;StockExchangeCountry</title>
<path fill="none" stroke="#df3e90" d="M586.615,-1296.82C574.216,-1183.28 550.655,-1010.19 511,-864 497.891,-815.671 476.668,-762.892 459.977,-724.681"/>
<polygon fill="#df3e90" stroke="#df3e90" points="586.633,-1296.99 583.233,-1307.42 587.17,-1301.96 587.707,-1306.93 587.707,-1306.93 587.707,-1306.93 587.17,-1301.96 592.181,-1306.45 586.633,-1296.99 586.633,-1296.99"/>
<polygon fill="#df3e90" stroke="#df3e90" points="459.872,-724.443 459.956,-713.477 457.855,-719.868 455.839,-715.292 455.839,-715.292 455.839,-715.292 457.855,-719.868 451.721,-717.107 459.872,-724.443 459.872,-724.443"/>
</g>
<!-- MultinationalCompany&#45;&gt;CongoleseCompany -->
<g id="edge9" class="edge"><title>MultinationalCompany&#45;&gt;CongoleseCompany</title>
<path fill="none" stroke="#ae237d" d="M598,-1296.71C598,-1171.87 598,-977.204 598,-838.063"/>
<polygon fill="#ae237d" stroke="#ae237d" points="598,-1296.94 593.5,-1306.94 598,-1301.94 598,-1306.94 598,-1306.94 598,-1306.94 598,-1301.94 602.5,-1306.94 598,-1296.94 598,-1296.94"/>
<polygon fill="#ae237d" stroke="#ae237d" points="598,-837.724 602.5,-827.724 598,-832.724 598,-827.724 598,-827.724 598,-827.724 598,-832.724 593.5,-827.724 598,-837.724 598,-837.724"/>
</g>
<!-- MultinationalCompany&#45;&gt;StockExchange -->
<g id="edge11" class="edge"><title>MultinationalCompany&#45;&gt;StockExchange</title>
<path fill="none" stroke="#8ff78a" d="M623.437,-1296.95C657.83,-1131.93 717.723,-844.56 742.63,-725.055"/>
<polygon fill="#8ff78a" stroke="#8ff78a" points="623.395,-1297.15 616.949,-1306.02 622.375,-1302.05 621.355,-1306.94 621.355,-1306.94 621.355,-1306.94 622.375,-1302.05 625.76,-1307.86 623.395,-1297.15 623.395,-1297.15"/>
<polygon fill="#8ff78a" stroke="#8ff78a" points="742.677,-724.83 749.122,-715.959 743.697,-719.935 744.717,-715.04 744.717,-715.04 744.717,-715.04 743.697,-719.935 740.312,-714.122 742.677,-724.83 742.677,-724.83"/>
</g>
<!-- MultinationalCompany&#45;&gt;ShareholderRelationship -->
<g id="edge8" class="edge"><title>MultinationalCompany&#45;&gt;ShareholderRelationship</title>
<path fill="none" stroke="#01989b" d="M608.838,-1298.68C625.226,-1177.5 666.037,-990.805 767,-864 770.377,-859.758 1441.28,-479.693 1444,-475 1514.57,-353.06 1537.84,-263.09 1444,-158 1396.15,-104.411 933.06,-76.8496 713.019,-66.6903"/>
<ellipse fill="none" stroke="#01989b" cx="608.272" cy="-1302.97" rx="4.00001" ry="4.00001"/>
<polygon fill="#01989b" stroke="#01989b" points="712.716,-66.6765 702.932,-61.7243 707.722,-66.4481 702.727,-66.2196 702.727,-66.2196 702.727,-66.2196 707.722,-66.4481 702.521,-70.7149 712.716,-66.6765 712.716,-66.6765"/>
</g>
<!-- Post -->
<g id="node11" class="node"><title>Post</title>
<path fill="none" stroke="black" d="M1103.5,-864.5C1103.5,-864.5 1394.5,-864.5 1394.5,-864.5 1400.5,-864.5 1406.5,-870.5 1406.5,-876.5 1406.5,-876.5 1406.5,-1963.5 1406.5,-1963.5 1406.5,-1969.5 1400.5,-1975.5 1394.5,-1975.5 1394.5,-1975.5 1103.5,-1975.5 1103.5,-1975.5 1097.5,-1975.5 1091.5,-1969.5 1091.5,-1963.5 1091.5,-1963.5 1091.5,-876.5 1091.5,-876.5 1091.5,-870.5 1097.5,-864.5 1103.5,-864.5"/>
<text text-anchor="middle" x="1249" y="-1960.3" font-family="Times,serif" font-size="14.00">Post</text>
<polyline fill="none" stroke="black" points="1091.5,-1952.5 1406.5,-1952.5 "/>
<text text-anchor="start" x="1099.5" y="-1937.3" font-family="Times,serif" font-size="14.00">id :integer</text>
<text text-anchor="start" x="1099.5" y="-1922.3" font-family="Times,serif" font-size="14.00">congo_site_ID :text</text>
<text text-anchor="start" x="1099.5" y="-1907.3" font-family="Times,serif" font-size="14.00">post_title :text</text>
<text text-anchor="start" x="1099.5" y="-1892.3" font-family="Times,serif" font-size="14.00">post_content :text</text>
<text text-anchor="start" x="1099.5" y="-1877.3" font-family="Times,serif" font-size="14.00">post_excerpt :text</text>
<text text-anchor="start" x="1099.5" y="-1862.3" font-family="Times,serif" font-size="14.00">category :text</text>
<text text-anchor="start" x="1099.5" y="-1847.3" font-family="Times,serif" font-size="14.00">post_tag :text</text>
<text text-anchor="start" x="1099.5" y="-1832.3" font-family="Times,serif" font-size="14.00">post_author :text</text>
<text text-anchor="start" x="1099.5" y="-1817.3" font-family="Times,serif" font-size="14.00">post_status :text</text>
<text text-anchor="start" x="1099.5" y="-1802.3" font-family="Times,serif" font-size="14.00">comment_status :text</text>
<text text-anchor="start" x="1099.5" y="-1787.3" font-family="Times,serif" font-size="14.00">permis_contrats :text</text>
<text text-anchor="start" x="1099.5" y="-1772.3" font-family="Times,serif" font-size="14.00">apercu_contact :text</text>
<text text-anchor="start" x="1099.5" y="-1757.3" font-family="Times,serif" font-size="14.00">organization :text</text>
<text text-anchor="start" x="1099.5" y="-1742.3" font-family="Times,serif" font-size="14.00">_edit_last :text</text>
<text text-anchor="start" x="1099.5" y="-1727.3" font-family="Times,serif" font-size="14.00">author :text</text>
<text text-anchor="start" x="1099.5" y="-1712.3" font-family="Times,serif" font-size="14.00">_edit_lock :text</text>
<text text-anchor="start" x="1099.5" y="-1697.3" font-family="Times,serif" font-size="14.00">doc_year :text</text>
<text text-anchor="start" x="1099.5" y="-1682.3" font-family="Times,serif" font-size="14.00">language :text</text>
<text text-anchor="start" x="1099.5" y="-1667.3" font-family="Times,serif" font-size="14.00">doc_month :text</text>
<text text-anchor="start" x="1099.5" y="-1652.3" font-family="Times,serif" font-size="14.00">doc_day :text</text>
<text text-anchor="start" x="1099.5" y="-1637.3" font-family="Times,serif" font-size="14.00">link :text</text>
<text text-anchor="start" x="1099.5" y="-1622.3" font-family="Times,serif" font-size="14.00">structure :text</text>
<text text-anchor="start" x="1099.5" y="-1607.3" font-family="Times,serif" font-size="14.00">gisements :text</text>
<text text-anchor="start" x="1099.5" y="-1592.3" font-family="Times,serif" font-size="14.00">production_exportation :text</text>
<text text-anchor="start" x="1099.5" y="-1577.3" font-family="Times,serif" font-size="14.00">recettes :text</text>
<text text-anchor="start" x="1099.5" y="-1562.3" font-family="Times,serif" font-size="14.00">_oembed_f30561fb916b7fd8b19930dd919f0e2d :text</text>
<text text-anchor="start" x="1099.5" y="-1547.3" font-family="Times,serif" font-size="14.00">_oembed_2f11a9dc87db9f397451782c8d451972 :text</text>
<text text-anchor="start" x="1099.5" y="-1532.3" font-family="Times,serif" font-size="14.00">link_text :text</text>
<text text-anchor="start" x="1099.5" y="-1517.3" font-family="Times,serif" font-size="14.00">_wp_old_slug :text</text>
<text text-anchor="start" x="1099.5" y="-1502.3" font-family="Times,serif" font-size="14.00">_oembed_9a3a90342144680ede581c97fde349dd :text</text>
<text text-anchor="start" x="1099.5" y="-1487.3" font-family="Times,serif" font-size="14.00">_oembed_85701a3f7600d0f8750cf1f297e1e613 :text</text>
<text text-anchor="start" x="1099.5" y="-1472.3" font-family="Times,serif" font-size="14.00">_oembed_42a8c7c1af79af95195ec2290dcb1089 :text</text>
<text text-anchor="start" x="1099.5" y="-1457.3" font-family="Times,serif" font-size="14.00">_oembed_89351f396f6ddea357d9a0ea2eb2d5e2 :text</text>
<text text-anchor="start" x="1099.5" y="-1442.3" font-family="Times,serif" font-size="14.00">_oembed_b87361d5732afc4883ef1a9d32103d93 :text</text>
<text text-anchor="start" x="1099.5" y="-1427.3" font-family="Times,serif" font-size="14.00">_oembed_962d3f24a125683b27674a0776ef3d3a :text</text>
<text text-anchor="start" x="1099.5" y="-1412.3" font-family="Times,serif" font-size="14.00">_oembed_52b0924d1d0ea45280c3c961d5d7269c :text</text>
<text text-anchor="start" x="1099.5" y="-1397.3" font-family="Times,serif" font-size="14.00">_oembed_f0df8381a595d2ce99d7ea9df0dd25ba :text</text>
<text text-anchor="start" x="1099.5" y="-1382.3" font-family="Times,serif" font-size="14.00">_oembed_de5d499b7409ef0c5df5096f4bdbb9ed :text</text>
<text text-anchor="start" x="1099.5" y="-1367.3" font-family="Times,serif" font-size="14.00">_oembed_c66f03107e2071243e7e3e286022236a :text</text>
<text text-anchor="start" x="1099.5" y="-1352.3" font-family="Times,serif" font-size="14.00">_oembed_34a7af50bb86e419c987e3c0626f8846 :text</text>
<text text-anchor="start" x="1099.5" y="-1337.3" font-family="Times,serif" font-size="14.00">_oembed_e8857b09ecb5f396efac2356d6337384 :text</text>
<text text-anchor="start" x="1099.5" y="-1322.3" font-family="Times,serif" font-size="14.00">_oembed_650e9d7a1eccdfeb830242a60a249b9f :text</text>
<text text-anchor="start" x="1099.5" y="-1307.3" font-family="Times,serif" font-size="14.00">_oembed_1efb3f0a754e5ee9a3132ef9474a3c6d :text</text>
<text text-anchor="start" x="1099.5" y="-1292.3" font-family="Times,serif" font-size="14.00">_oembed_9c6dd60dbc5b0a66337b203dfb045733 :text</text>
<text text-anchor="start" x="1099.5" y="-1277.3" font-family="Times,serif" font-size="14.00">_oembed_a949172f3628208669a1167c18e856d0 :text</text>
<text text-anchor="start" x="1099.5" y="-1262.3" font-family="Times,serif" font-size="14.00">_oembed_f4a9e52d2d340fe2eec2b8c104b72dd8 :text</text>
<text text-anchor="start" x="1099.5" y="-1247.3" font-family="Times,serif" font-size="14.00">_oembed_27c2c2df4a3e55eb29d96a0142a5f919 :text</text>
<text text-anchor="start" x="1099.5" y="-1232.3" font-family="Times,serif" font-size="14.00">_post_restored_from :text</text>
<text text-anchor="start" x="1099.5" y="-1217.3" font-family="Times,serif" font-size="14.00">_oembed_2b3e6073b680c53b45f5faeab025c1f9 :text</text>
<text text-anchor="start" x="1099.5" y="-1202.3" font-family="Times,serif" font-size="14.00">_oembed_cb9cb9221f45cd66a32df1d9bb6df7da :text</text>
<text text-anchor="start" x="1099.5" y="-1187.3" font-family="Times,serif" font-size="14.00">_oembed_3b509324a03261ab68cb34fbc25b4e9b :text</text>
<text text-anchor="start" x="1099.5" y="-1172.3" font-family="Times,serif" font-size="14.00">_oembed_626846273d0143935ee58dece898e55d :text</text>
<text text-anchor="start" x="1099.5" y="-1157.3" font-family="Times,serif" font-size="14.00">_oembed_902280ec9d18c4c5ca61cfd63f036080 :text</text>
<text text-anchor="start" x="1099.5" y="-1142.3" font-family="Times,serif" font-size="14.00">_oembed_3e7aee45717c69199a6a637a3b8acc69 :text</text>
<text text-anchor="start" x="1099.5" y="-1127.3" font-family="Times,serif" font-size="14.00">_oembed_a85182849dc483168810d07f142e30a6 :text</text>
<text text-anchor="start" x="1099.5" y="-1112.3" font-family="Times,serif" font-size="14.00">_oembed_f49d560e9eea3f5be7becae0be5f96de :text</text>
<text text-anchor="start" x="1099.5" y="-1097.3" font-family="Times,serif" font-size="14.00">_oembed_14c4ed9e334e047ecd32bddaebe561bf :text</text>
<text text-anchor="start" x="1099.5" y="-1082.3" font-family="Times,serif" font-size="14.00">_oembed_21b317d90897f345b84b19b368827452 :text</text>
<text text-anchor="start" x="1099.5" y="-1067.3" font-family="Times,serif" font-size="14.00">_oembed_0bb90489fb34089a83bce87643ebcbb2 :text</text>
<text text-anchor="start" x="1099.5" y="-1052.3" font-family="Times,serif" font-size="14.00">_oembed_252e672ab31a63d17a127474eaf7c4eb :text</text>
<text text-anchor="start" x="1099.5" y="-1037.3" font-family="Times,serif" font-size="14.00">_oembed_376043f51d6a81879f53db25df5916ce :text</text>
<text text-anchor="start" x="1099.5" y="-1022.3" font-family="Times,serif" font-size="14.00">_oembed_4d0a9794d1663242fcee93acebb52cd4 :text</text>
<text text-anchor="start" x="1099.5" y="-1007.3" font-family="Times,serif" font-size="14.00">_oembed_5aea7b37ca78ede9d587e8574c10f358 :text</text>
<text text-anchor="start" x="1099.5" y="-992.3" font-family="Times,serif" font-size="14.00">_oembed_26c148b13093cec8d3434af990f72de7 :text</text>
<text text-anchor="start" x="1099.5" y="-977.3" font-family="Times,serif" font-size="14.00">_oembed_65d98512311e39c4d44315d6eea14276 :text</text>
<text text-anchor="start" x="1099.5" y="-962.3" font-family="Times,serif" font-size="14.00">_oembed_e18aecf0d412fc23526efdc459286c44 :text</text>
<text text-anchor="start" x="1099.5" y="-947.3" font-family="Times,serif" font-size="14.00">_oembed_070b64db4ace27fe2408926016a2a821 :text</text>
<text text-anchor="start" x="1099.5" y="-932.3" font-family="Times,serif" font-size="14.00">_oembed_4403084f88b5d0de651314936f307994 :text</text>
<text text-anchor="start" x="1099.5" y="-917.3" font-family="Times,serif" font-size="14.00">_oembed_98f37e60104be619e14e62d00fc67fe0 :text</text>
<text text-anchor="start" x="1099.5" y="-902.3" font-family="Times,serif" font-size="14.00">_oembed_3278777aa2427ccd35fe278ccb685476 :text</text>
<text text-anchor="start" x="1099.5" y="-887.3" font-family="Times,serif" font-size="14.00">created_at :datetime</text>
<text text-anchor="start" x="1099.5" y="-872.3" font-family="Times,serif" font-size="14.00">updated_at :datetime</text>
</g>
<!-- Attachment -->
<g id="node13" class="node"><title>Attachment</title>
<path fill="none" stroke="black" d="M1503,-571.5C1503,-571.5 1643,-571.5 1643,-571.5 1649,-571.5 1655,-577.5 1655,-583.5 1655,-583.5 1655,-755.5 1655,-755.5 1655,-761.5 1649,-767.5 1643,-767.5 1643,-767.5 1503,-767.5 1503,-767.5 1497,-767.5 1491,-761.5 1491,-755.5 1491,-755.5 1491,-583.5 1491,-583.5 1491,-577.5 1497,-571.5 1503,-571.5"/>
<text text-anchor="middle" x="1573" y="-752.3" font-family="Times,serif" font-size="14.00">Attachment</text>
<polyline fill="none" stroke="black" points="1491,-744.5 1655,-744.5 "/>
<text text-anchor="start" x="1499" y="-729.3" font-family="Times,serif" font-size="14.00">id :integer</text>
<text text-anchor="start" x="1499" y="-714.3" font-family="Times,serif" font-size="14.00">asset_file_name :string</text>
<text text-anchor="start" x="1499" y="-699.3" font-family="Times,serif" font-size="14.00">asset_content_type :string</text>
<text text-anchor="start" x="1499" y="-684.3" font-family="Times,serif" font-size="14.00">asset_file_size :integer</text>
<text text-anchor="start" x="1499" y="-669.3" font-family="Times,serif" font-size="14.00">asset_updated_at :datetime</text>
<text text-anchor="start" x="1499" y="-654.3" font-family="Times,serif" font-size="14.00">name :string</text>
<text text-anchor="start" x="1499" y="-639.3" font-family="Times,serif" font-size="14.00">attachable_id :integer</text>
<text text-anchor="start" x="1499" y="-624.3" font-family="Times,serif" font-size="14.00">attachable_type :string</text>
<text text-anchor="start" x="1499" y="-609.3" font-family="Times,serif" font-size="14.00">position :integer</text>
<text text-anchor="start" x="1499" y="-594.3" font-family="Times,serif" font-size="14.00">created_at :datetime</text>
<text text-anchor="start" x="1499" y="-579.3" font-family="Times,serif" font-size="14.00">updated_at :datetime</text>
</g>
<!-- Author -->
<g id="node14" class="node"><title>Author</title>
<path fill="none" stroke="black" d="M1668.5,-1367C1668.5,-1367 1775.5,-1367 1775.5,-1367 1781.5,-1367 1787.5,-1373 1787.5,-1379 1787.5,-1379 1787.5,-1461 1787.5,-1461 1787.5,-1467 1781.5,-1473 1775.5,-1473 1775.5,-1473 1668.5,-1473 1668.5,-1473 1662.5,-1473 1656.5,-1467 1656.5,-1461 1656.5,-1461 1656.5,-1379 1656.5,-1379 1656.5,-1373 1662.5,-1367 1668.5,-1367"/>
<text text-anchor="middle" x="1722" y="-1457.8" font-family="Times,serif" font-size="14.00">Author</text>
<polyline fill="none" stroke="black" points="1656.5,-1450 1787.5,-1450 "/>
<text text-anchor="start" x="1664.5" y="-1434.8" font-family="Times,serif" font-size="14.00">id :integer</text>
<text text-anchor="start" x="1664.5" y="-1419.8" font-family="Times,serif" font-size="14.00">name :string</text>
<text text-anchor="start" x="1664.5" y="-1404.8" font-family="Times,serif" font-size="14.00">description :text</text>
<text text-anchor="start" x="1664.5" y="-1389.8" font-family="Times,serif" font-size="14.00">created_at :datetime</text>
<text text-anchor="start" x="1664.5" y="-1374.8" font-family="Times,serif" font-size="14.00">updated_at :datetime</text>
</g>
<!-- Report -->
<g id="node15" class="node"><title>Report</title>
<path fill="none" stroke="black" d="M1519.5,-1344.5C1519.5,-1344.5 1626.5,-1344.5 1626.5,-1344.5 1632.5,-1344.5 1638.5,-1350.5 1638.5,-1356.5 1638.5,-1356.5 1638.5,-1483.5 1638.5,-1483.5 1638.5,-1489.5 1632.5,-1495.5 1626.5,-1495.5 1626.5,-1495.5 1519.5,-1495.5 1519.5,-1495.5 1513.5,-1495.5 1507.5,-1489.5 1507.5,-1483.5 1507.5,-1483.5 1507.5,-1356.5 1507.5,-1356.5 1507.5,-1350.5 1513.5,-1344.5 1519.5,-1344.5"/>
<text text-anchor="middle" x="1573" y="-1480.3" font-family="Times,serif" font-size="14.00">Report</text>
<polyline fill="none" stroke="black" points="1507.5,-1472.5 1638.5,-1472.5 "/>
<text text-anchor="start" x="1515.5" y="-1457.3" font-family="Times,serif" font-size="14.00">id :integer</text>
<text text-anchor="start" x="1515.5" y="-1442.3" font-family="Times,serif" font-size="14.00">title :string</text>
<text text-anchor="start" x="1515.5" y="-1427.3" font-family="Times,serif" font-size="14.00">summary :text</text>
<text text-anchor="start" x="1515.5" y="-1412.3" font-family="Times,serif" font-size="14.00">post_date :date</text>
<text text-anchor="start" x="1515.5" y="-1397.3" font-family="Times,serif" font-size="14.00">author_id :integer</text>
<text text-anchor="start" x="1515.5" y="-1382.3" font-family="Times,serif" font-size="14.00">source_id :integer</text>
<text text-anchor="start" x="1515.5" y="-1367.3" font-family="Times,serif" font-size="14.00">created_at :datetime</text>
<text text-anchor="start" x="1515.5" y="-1352.3" font-family="Times,serif" font-size="14.00">updated_at :datetime</text>
</g>
<!-- Report&#45;&gt;Attachment -->
<g id="edge12" class="edge"><title>Report&#45;&gt;Attachment</title>
<path fill="none" stroke="#6ce050" d="M1573,-1336.34C1573,-1200.12 1573,-928.572 1573,-777.746"/>
<ellipse fill="none" stroke="#6ce050" cx="1573" cy="-1340.49" rx="4" ry="4"/>
<polygon fill="#6ce050" stroke="#6ce050" points="1573,-777.544 1577.5,-767.544 1573,-772.544 1573,-767.544 1573,-767.544 1573,-767.544 1573,-772.544 1568.5,-767.544 1573,-777.544 1573,-777.544"/>
</g>
</g>
</svg>
