<?xml version="1.0" encoding="UTF-8" standalone="no"?>
<!DOCTYPE svg PUBLIC "-//W3C//DTD SVG 1.1//EN"
 "http://www.w3.org/Graphics/SVG/1.1/DTD/svg11.dtd">
<!-- Generated by graphviz version 2.38.0 (20140413.2041)
 -->
<!-- Title: models_diagram Pages: 1 -->
<svg width="2712pt" height="392pt"
 viewBox="0.00 0.00 2711.59 392.00" xmlns="http://www.w3.org/2000/svg" xmlns:xlink="http://www.w3.org/1999/xlink">
<g id="graph0" class="graph" transform="scale(1 1) rotate(0) translate(4 388)">
<title>models_diagram</title>
<polygon fill="white" stroke="none" points="-4,4 -4,-388 2707.59,-388 2707.59,4 -4,4"/>
<!-- _diagram_info -->
<g id="node1" class="node"><title>_diagram_info</title>
<text text-anchor="start" x="1675.84" y="-369.6" font-family="Times,serif" font-size="13.00">Models diagram</text>
<text text-anchor="start" x="1675.84" y="-355.6" font-family="Times,serif" font-size="13.00">Date: May 26 2015 &#45; 08:37</text>
<text text-anchor="start" x="1675.84" y="-341.6" font-family="Times,serif" font-size="13.00">Migration version: 20150524210906</text>
<text text-anchor="start" x="1675.84" y="-327.6" font-family="Times,serif" font-size="13.00">Generated by RailRoady 1.3.0</text>
<text text-anchor="start" x="1675.84" y="-313.6" font-family="Times,serif" font-size="13.00">http://railroady.prestonlee.com</text>
</g>
<!-- IntermediaryCompany -->
<g id="node2" class="node"><title>IntermediaryCompany</title>
<ellipse fill="none" stroke="black" cx="217.844" cy="-178" rx="90.9839" ry="18"/>
<text text-anchor="middle" x="217.844" y="-174.3" font-family="Times,serif" font-size="14.00">IntermediaryCompany</text>
</g>
<!-- ShareholderIntermediary -->
<g id="node10" class="node"><title>ShareholderIntermediary</title>
<ellipse fill="none" stroke="black" cx="583.844" cy="-18" rx="98.5829" ry="18"/>
<text text-anchor="middle" x="583.844" y="-14.3" font-family="Times,serif" font-size="14.00">ShareholderIntermediary</text>
</g>
<!-- IntermediaryCompany&#45;&gt;ShareholderIntermediary -->
<g id="edge1" class="edge"><title>IntermediaryCompany&#45;&gt;ShareholderIntermediary</title>
<path fill="none" stroke="#ec9be8" d="M261.611,-158.106C331.209,-128.061 466.495,-69.6587 537.611,-38.9584"/>
<ellipse fill="none" stroke="#ec9be8" cx="257.611" cy="-159.833" rx="4.00002" ry="4.00002"/>
<polygon fill="#ec9be8" stroke="#ec9be8" points="538.025,-38.7796 548.99,-38.9477 542.616,-36.7979 547.206,-34.8162 547.206,-34.8162 547.206,-34.8162 542.616,-36.7979 545.423,-30.6847 538.025,-38.7796 538.025,-38.7796"/>
</g>
<!-- ShareholderRelationship -->
<g id="node14" class="node"><title>ShareholderRelationship</title>
<ellipse fill="none" stroke="black" cx="868.844" cy="-91" rx="97.4827" ry="18"/>
<text text-anchor="middle" x="868.844" y="-87.3" font-family="Times,serif" font-size="14.00">ShareholderRelationship</text>
</g>
<!-- IntermediaryCompany&#45;&gt;ShareholderRelationship -->
<g id="edge2" class="edge"><title>IntermediaryCompany&#45;&gt;ShareholderRelationship</title>
<path fill="none" stroke="#776ab6" d="M292.527,-163.741C301.053,-162.394 309.628,-161.115 317.844,-160 396.198,-149.368 416.313,-151.24 494.844,-142 594.466,-130.278 708.72,-114.69 784.459,-104.055"/>
<polygon fill="#776ab6" stroke="#776ab6" points="292.439,-163.755 281.851,-160.903 287.503,-164.55 282.567,-165.346 282.567,-165.346 282.567,-165.346 287.503,-164.55 283.283,-169.788 292.439,-163.755 292.439,-163.755"/>
<polygon fill="#776ab6" stroke="#776ab6" points="784.52,-104.046 795.05,-107.109 789.472,-103.35 794.423,-102.653 794.423,-102.653 794.423,-102.653 789.472,-103.35 793.796,-98.197 784.52,-104.046 784.52,-104.046"/>
</g>
<!-- StockExchangeCountry -->
<g id="node3" class="node"><title>StockExchangeCountry</title>
<ellipse fill="none" stroke="black" cx="2160.84" cy="-345" rx="94.4839" ry="18"/>
<text text-anchor="middle" x="2160.84" y="-341.3" font-family="Times,serif" font-size="14.00">StockExchangeCountry</text>
</g>
<!-- Employee -->
<g id="node4" class="node"><title>Employee</title>
<ellipse fill="none" stroke="black" cx="373.844" cy="-178" rx="46.5926" ry="18"/>
<text text-anchor="middle" x="373.844" y="-174.3" font-family="Times,serif" font-size="14.00">Employee</text>
</g>
<!-- FlowsPayableUnderContract -->
<g id="node5" class="node"><title>FlowsPayableUnderContract</title>
<ellipse fill="none" stroke="black" cx="550.844" cy="-178" rx="112.38" ry="18"/>
<text text-anchor="middle" x="550.844" y="-174.3" font-family="Times,serif" font-size="14.00">FlowsPayableUnderContract</text>
</g>
<!-- Deposit -->
<g id="node6" class="node"><title>Deposit</title>
<ellipse fill="none" stroke="black" cx="70.8437" cy="-178" rx="38.1938" ry="18"/>
<text text-anchor="middle" x="70.8437" y="-174.3" font-family="Times,serif" font-size="14.00">Deposit</text>
</g>
<!-- DepositResource -->
<g id="node20" class="node"><title>DepositResource</title>
<ellipse fill="none" stroke="black" cx="70.8437" cy="-91" rx="70.6878" ry="18"/>
<text text-anchor="middle" x="70.8437" y="-87.3" font-family="Times,serif" font-size="14.00">DepositResource</text>
</g>
<!-- Deposit&#45;&gt;DepositResource -->
<g id="edge3" class="edge"><title>Deposit&#45;&gt;DepositResource</title>
<path fill="none" stroke="#93f2a0" d="M70.8437,-151.694C70.8437,-141.512 70.8437,-129.747 70.8437,-119.367"/>
<ellipse fill="none" stroke="#93f2a0" cx="70.8438" cy="-155.799" rx="4" ry="4"/>
<polygon fill="#93f2a0" stroke="#93f2a0" points="70.8438,-119.175 75.3437,-109.175 70.8438,-114.175 70.8437,-109.175 70.8437,-109.175 70.8437,-109.175 70.8438,-114.175 66.3437,-109.175 70.8438,-119.175 70.8438,-119.175"/>
<text text-anchor="middle" x="96.8437" y="-130.8" font-family="Times,serif" font-size="14.00">resources</text>
</g>
<!-- ProductionExport -->
<g id="node7" class="node"><title>ProductionExport</title>
<ellipse fill="none" stroke="black" cx="1495.84" cy="-178" rx="73.387" ry="18"/>
<text text-anchor="middle" x="1495.84" y="-174.3" font-family="Times,serif" font-size="14.00">ProductionExport</text>
</g>
<!-- ReportRelation -->
<g id="node8" class="node"><title>ReportRelation</title>
<ellipse fill="none" stroke="black" cx="1716.84" cy="-91" rx="64.189" ry="18"/>
<text text-anchor="middle" x="1716.84" y="-87.3" font-family="Times,serif" font-size="14.00">ReportRelation</text>
</g>
<!-- Source -->
<g id="node9" class="node"><title>Source</title>
<ellipse fill="none" stroke="black" cx="1861.84" cy="-251" rx="35.194" ry="18"/>
<text text-anchor="middle" x="1861.84" y="-247.3" font-family="Times,serif" font-size="14.00">Source</text>
</g>
<!-- Report -->
<g id="node27" class="node"><title>Report</title>
<ellipse fill="none" stroke="black" cx="1865.84" cy="-178" rx="34.394" ry="18"/>
<text text-anchor="middle" x="1865.84" y="-174.3" font-family="Times,serif" font-size="14.00">Report</text>
</g>
<!-- Source&#45;&gt;Report -->
<g id="edge4" class="edge"><title>Source&#45;&gt;Report</title>
<path fill="none" stroke="#1bc54d" d="M1863.26,-224.791C1863.6,-218.832 1863.96,-212.45 1864.3,-206.399"/>
<ellipse fill="none" stroke="#1bc54d" cx="1863.04" cy="-228.819" rx="4" ry="4"/>
<polygon fill="#1bc54d" stroke="#1bc54d" points="1864.32,-206.013 1869.38,-196.282 1864.6,-201.021 1864.88,-196.029 1864.88,-196.029 1864.88,-196.029 1864.6,-201.021 1860.39,-195.776 1864.32,-206.013 1864.32,-206.013"/>
</g>
<!-- DrcCompany -->
<g id="node11" class="node"><title>DrcCompany</title>
<ellipse fill="none" stroke="black" cx="1162.84" cy="-251" rx="58.4896" ry="18"/>
<text text-anchor="middle" x="1162.84" y="-247.3" font-family="Times,serif" font-size="14.00">DrcCompany</text>
</g>
<!-- DrcCompany&#45;&gt;Employee -->
<g id="edge15" class="edge"><title>DrcCompany&#45;&gt;Employee</title>
<path fill="none" stroke="#c3c8ae" d="M1096.02,-249.995C966.407,-248.906 672.274,-241.151 429.844,-196 425.742,-195.236 421.516,-194.28 417.31,-193.213"/>
<ellipse fill="none" stroke="#c3c8ae" cx="1100.32" cy="-250.028" rx="4" ry="4"/>
<polygon fill="#c3c8ae" stroke="#c3c8ae" points="417.248,-193.196 408.788,-186.219 412.425,-191.878 407.602,-190.559 407.602,-190.559 407.602,-190.559 412.425,-191.878 406.415,-194.9 417.248,-193.196 417.248,-193.196"/>
</g>
<!-- DrcCompany&#45;&gt;FlowsPayableUnderContract -->
<g id="edge16" class="edge"><title>DrcCompany&#45;&gt;FlowsPayableUnderContract</title>
<path fill="none" stroke="#3b72ab" d="M1099.69,-243.668C1006.15,-234.148 825.273,-215.211 671.844,-196 661.258,-194.675 650.161,-193.214 639.163,-191.722"/>
<ellipse fill="none" stroke="#3b72ab" cx="1103.94" cy="-244.099" rx="4" ry="4"/>
<ellipse fill="#3b72ab" stroke="#3b72ab" cx="635.144" cy="-191.173" rx="4.00001" ry="4.00001"/>
</g>
<!-- DrcCompany&#45;&gt;Deposit -->
<g id="edge14" class="edge"><title>DrcCompany&#45;&gt;Deposit</title>
<path fill="none" stroke="#b7970b" d="M1096.35,-249.124C896.961,-246.092 306.211,-234.055 117.844,-196 114.654,-195.356 111.391,-194.535 108.143,-193.604"/>
<ellipse fill="none" stroke="#b7970b" cx="1100.42" cy="-249.185" rx="4" ry="4"/>
<polygon fill="#b7970b" stroke="#b7970b" points="108.067,-193.58 99.9048,-186.257 103.303,-192.063 98.5389,-190.545 98.5389,-190.545 98.5389,-190.545 103.303,-192.063 97.1731,-194.833 108.067,-193.58 108.067,-193.58"/>
</g>
<!-- DrcCompany&#45;&gt;ProductionExport -->
<g id="edge5" class="edge"><title>DrcCompany&#45;&gt;ProductionExport</title>
<path fill="none" stroke="#1b4269" d="M1227.52,-245.262C1277.67,-240.523 1348.54,-231.486 1408.84,-215 1424.22,-210.798 1440.5,-204.574 1454.77,-198.479"/>
<ellipse fill="none" stroke="#1b4269" cx="1223.33" cy="-245.647" rx="4" ry="4"/>
<polygon fill="#1b4269" stroke="#1b4269" points="1455.13,-198.32 1466.1,-198.428 1459.71,-196.313 1464.29,-194.306 1464.29,-194.306 1464.29,-194.306 1459.71,-196.313 1462.48,-190.185 1455.13,-198.32 1455.13,-198.32"/>
</g>
<!-- DrcCompany&#45;&gt;ReportRelation -->
<g id="edge10" class="edge"><title>DrcCompany&#45;&gt;ReportRelation</title>
<path fill="none" stroke="#67db50" d="M1229.08,-247.902C1365.81,-242.932 1669.37,-228.347 1702.84,-196 1722.95,-176.567 1723.98,-143.05 1721.58,-119.324"/>
<ellipse fill="none" stroke="#67db50" cx="1224.71" cy="-248.059" rx="4" ry="4"/>
<polygon fill="#67db50" stroke="#67db50" points="1721.55,-119.117 1724.76,-108.629 1720.92,-114.157 1720.29,-109.197 1720.29,-109.197 1720.29,-109.197 1720.92,-114.157 1715.83,-109.765 1721.55,-119.117 1721.55,-119.117"/>
</g>
<!-- DrcCompany&#45;&gt;ShareholderRelationship -->
<g id="edge8" class="edge"><title>DrcCompany&#45;&gt;ShareholderRelationship</title>
<path fill="none" stroke="#0ce2b7" d="M1227.05,-244.57C1305.42,-235.548 1422.13,-212.911 1375.84,-160 1349.55,-129.943 1109.9,-108.553 969.703,-98.4894"/>
<ellipse fill="none" stroke="#0ce2b7" cx="1222.63" cy="-245.062" rx="4" ry="4"/>
<polygon fill="#0ce2b7" stroke="#0ce2b7" points="969.344,-98.4639 959.688,-93.2665 964.357,-98.1095 959.369,-97.7552 959.369,-97.7552 959.369,-97.7552 964.357,-98.1095 959.05,-102.244 969.344,-98.4639 969.344,-98.4639"/>
</g>
<!-- Shareholder -->
<g id="node16" class="node"><title>Shareholder</title>
<ellipse fill="none" stroke="black" cx="1640.84" cy="-178" rx="53.0913" ry="18"/>
<text text-anchor="middle" x="1640.84" y="-174.3" font-family="Times,serif" font-size="14.00">Shareholder</text>
</g>
<!-- DrcCompany&#45;&gt;Shareholder -->
<g id="edge9" class="edge"><title>DrcCompany&#45;&gt;Shareholder</title>
<path fill="none" stroke="#78c904" d="M1228.47,-244.206C1310.65,-236.323 1455.52,-220.347 1577.84,-196 1582.46,-195.081 1587.24,-194.012 1592.01,-192.866"/>
<polygon fill="#78c904" stroke="#78c904" points="1228.23,-244.229 1217.85,-240.694 1223.25,-244.701 1218.27,-245.174 1218.27,-245.174 1218.27,-245.174 1223.25,-244.701 1218.7,-249.653 1228.23,-244.229 1228.23,-244.229"/>
<polygon fill="#78c904" stroke="#78c904" points="1592.02,-192.864 1602.81,-194.795 1596.87,-191.647 1601.72,-190.43 1601.72,-190.43 1601.72,-190.43 1596.87,-191.647 1600.62,-186.066 1592.02,-192.864 1592.02,-192.864"/>
</g>
<!-- SocialProject -->
<g id="node17" class="node"><title>SocialProject</title>
<ellipse fill="none" stroke="black" cx="738.844" cy="-178" rx="57.6901" ry="18"/>
<text text-anchor="middle" x="738.844" y="-174.3" font-family="Times,serif" font-size="14.00">SocialProject</text>
</g>
<!-- DrcCompany&#45;&gt;SocialProject -->
<g id="edge12" class="edge"><title>DrcCompany&#45;&gt;SocialProject</title>
<path fill="none" stroke="#d59cbd" d="M1101.3,-242.561C1029.9,-233.499 908.788,-216.793 805.844,-196 801.094,-195.041 796.177,-193.961 791.262,-192.823"/>
<ellipse fill="none" stroke="#d59cbd" cx="1105.36" cy="-243.074" rx="4.00001" ry="4.00001"/>
<polygon fill="#d59cbd" stroke="#d59cbd" points="790.958,-192.75 782.278,-186.048 786.095,-191.588 781.232,-190.425 781.232,-190.425 781.232,-190.425 786.095,-191.588 780.185,-194.801 790.958,-192.75 790.958,-192.75"/>
</g>
<!-- TaxObligation -->
<g id="node19" class="node"><title>TaxObligation</title>
<ellipse fill="none" stroke="black" cx="876.844" cy="-178" rx="61.99" ry="18"/>
<text text-anchor="middle" x="876.844" y="-174.3" font-family="Times,serif" font-size="14.00">TaxObligation</text>
</g>
<!-- DrcCompany&#45;&gt;TaxObligation -->
<g id="edge6" class="edge"><title>DrcCompany&#45;&gt;TaxObligation</title>
<path fill="none" stroke="#f95862" d="M1110.73,-237.063C1060.25,-224.53 983.953,-205.59 932.35,-192.78"/>
<ellipse fill="none" stroke="#f95862" cx="1114.9" cy="-238.098" rx="4.00001" ry="4.00001"/>
<polygon fill="#f95862" stroke="#f95862" points="932.079,-192.712 923.458,-185.935 927.226,-191.508 922.374,-190.303 922.374,-190.303 922.374,-190.303 927.226,-191.508 921.289,-194.67 932.079,-192.712 932.079,-192.712"/>
</g>
<!-- EnvAndSocialObligation -->
<g id="node22" class="node"><title>EnvAndSocialObligation</title>
<ellipse fill="none" stroke="black" cx="1055.84" cy="-178" rx="99.3824" ry="18"/>
<text text-anchor="middle" x="1055.84" y="-174.3" font-family="Times,serif" font-size="14.00">EnvAndSocialObligation</text>
</g>
<!-- DrcCompany&#45;&gt;EnvAndSocialObligation -->
<g id="edge7" class="edge"><title>DrcCompany&#45;&gt;EnvAndSocialObligation</title>
<path fill="none" stroke="#063f3a" d="M1132.59,-229.924C1119.03,-220.925 1102.99,-210.286 1089.1,-201.064"/>
<ellipse fill="none" stroke="#063f3a" cx="1136.03" cy="-232.207" rx="4.00002" ry="4.00002"/>
<polygon fill="#063f3a" stroke="#063f3a" points="1089.09,-201.063 1083.25,-191.784 1084.93,-198.298 1080.76,-195.534 1080.76,-195.534 1080.76,-195.534 1084.93,-198.298 1078.27,-199.283 1089.09,-201.063 1089.09,-201.063"/>
</g>
<!-- ProcessingInfrastructure -->
<g id="node25" class="node"><title>ProcessingInfrastructure</title>
<ellipse fill="none" stroke="black" cx="1269.84" cy="-178" rx="96.6831" ry="18"/>
<text text-anchor="middle" x="1269.84" y="-174.3" font-family="Times,serif" font-size="14.00">ProcessingInfrastructure</text>
</g>
<!-- DrcCompany&#45;&gt;ProcessingInfrastructure -->
<g id="edge13" class="edge"><title>DrcCompany&#45;&gt;ProcessingInfrastructure</title>
<path fill="none" stroke="#468786" d="M1193.1,-229.924C1206.66,-220.925 1222.7,-210.286 1236.59,-201.064"/>
<ellipse fill="none" stroke="#468786" cx="1189.66" cy="-232.207" rx="4.00002" ry="4.00002"/>
<polygon fill="#468786" stroke="#468786" points="1236.59,-201.063 1247.41,-199.283 1240.76,-198.298 1244.93,-195.534 1244.93,-195.534 1244.93,-195.534 1240.76,-198.298 1242.44,-191.784 1236.59,-201.063 1236.59,-201.063"/>
</g>
<!-- DrcCompany&#45;&gt;Report -->
<g id="edge11" class="edge"><title>DrcCompany&#45;&gt;Report</title>
<path fill="none" stroke="#d69542" d="M1231.57,-250.421C1339.65,-250.048 1555.62,-245.117 1735.84,-215 1767.45,-209.718 1802.41,-199.797 1828.11,-191.706"/>
<polygon fill="#d69542" stroke="#d69542" points="1231.45,-250.421 1221.44,-245.943 1226.45,-250.432 1221.45,-250.443 1221.45,-250.443 1221.45,-250.443 1226.45,-250.432 1221.46,-254.943 1231.45,-250.421 1231.45,-250.421"/>
<polygon fill="#d69542" stroke="#d69542" points="1828.3,-191.645 1839.2,-192.881 1833.06,-190.12 1837.82,-188.595 1837.82,-188.595 1837.82,-188.595 1833.06,-190.12 1836.45,-184.31 1828.3,-191.645 1828.3,-191.645"/>
</g>
<!-- StockExchange -->
<g id="node12" class="node"><title>StockExchange</title>
<ellipse fill="none" stroke="black" cx="2338.84" cy="-345" rx="65.7887" ry="18"/>
<text text-anchor="middle" x="2338.84" y="-341.3" font-family="Times,serif" font-size="14.00">StockExchange</text>
</g>
<!-- PageCategory -->
<g id="node13" class="node"><title>PageCategory</title>
<ellipse fill="none" stroke="black" cx="2481.84" cy="-345" rx="59.5901" ry="18"/>
<text text-anchor="middle" x="2481.84" y="-341.3" font-family="Times,serif" font-size="14.00">PageCategory</text>
</g>
<!-- ShareholderRelationship&#45;&gt;ShareholderIntermediary -->
<g id="edge17" class="edge"><title>ShareholderRelationship&#45;&gt;ShareholderIntermediary</title>
<path fill="none" stroke="#9fa3be" d="M805.418,-74.1991C759.083,-62.6562 696.428,-47.0472 649.566,-35.3728"/>
<ellipse fill="none" stroke="#9fa3be" cx="809.335" cy="-75.175" rx="4.00001" ry="4.00001"/>
<polygon fill="#9fa3be" stroke="#9fa3be" points="649.521,-35.3617 640.905,-28.5777 644.669,-34.153 639.817,-32.9443 639.817,-32.9443 639.817,-32.9443 644.669,-34.153 638.729,-37.3108 649.521,-35.3617 649.521,-35.3617"/>
</g>
<!-- Page -->
<g id="node15" class="node"><title>Page</title>
<ellipse fill="none" stroke="black" cx="1942.84" cy="-251" rx="27.8951" ry="18"/>
<text text-anchor="middle" x="1942.84" y="-247.3" font-family="Times,serif" font-size="14.00">Page</text>
</g>
<!-- Page&#45;&gt;Report -->
<g id="edge18" class="edge"><title>Page&#45;&gt;Report</title>
<path fill="none" stroke="#54eda1" d="M1919.73,-228.684C1910.28,-219.973 1899.35,-209.897 1889.82,-201.106"/>
<polygon fill="#54eda1" stroke="#54eda1" points="1919.91,-228.853 1924.21,-238.94 1923.59,-232.243 1927.26,-235.632 1927.26,-235.632 1927.26,-235.632 1923.59,-232.243 1930.31,-232.324 1919.91,-228.853 1919.91,-228.853"/>
<polygon fill="#54eda1" stroke="#54eda1" points="1889.55,-200.861 1885.25,-190.773 1885.88,-197.471 1882.2,-194.082 1882.2,-194.082 1882.2,-194.082 1885.88,-197.471 1879.15,-197.39 1889.55,-200.861 1889.55,-200.861"/>
</g>
<!-- Shareholder&#45;&gt;ShareholderRelationship -->
<g id="edge19" class="edge"><title>Shareholder&#45;&gt;ShareholderRelationship</title>
<path fill="none" stroke="#ac4a69" d="M1593.22,-163.766C1588.04,-162.442 1582.84,-161.16 1577.84,-160 1503.3,-142.687 1484.74,-136.828 1408.84,-127 1258.87,-107.578 1083.99,-98.7425 974.824,-94.8591"/>
<ellipse fill="none" stroke="#ac4a69" cx="1597.42" cy="-164.862" rx="4.00001" ry="4.00001"/>
<polygon fill="#ac4a69" stroke="#ac4a69" points="974.789,-94.858 964.952,-90.0124 969.792,-94.6839 964.795,-94.5097 964.795,-94.5097 964.795,-94.5097 969.792,-94.6839 964.639,-99.007 974.789,-94.858 974.789,-94.858"/>
</g>
<!-- Admin -->
<g id="node18" class="node"><title>Admin</title>
<polygon fill="none" stroke="black" stroke-dasharray="1,5" points="2614.34,-363 2559.34,-363 2559.34,-327 2614.34,-327 2614.34,-363"/>
<text text-anchor="middle" x="2586.84" y="-341.3" font-family="Times,serif" font-size="14.00">Admin</text>
</g>
<!-- ReportCategory -->
<g id="node21" class="node"><title>ReportCategory</title>
<ellipse fill="none" stroke="black" cx="1865.84" cy="-91" rx="66.8882" ry="18"/>
<text text-anchor="middle" x="1865.84" y="-87.3" font-family="Times,serif" font-size="14.00">ReportCategory</text>
</g>
<!-- Attachment -->
<g id="node23" class="node"><title>Attachment</title>
<ellipse fill="none" stroke="black" cx="2002.84" cy="-91" rx="51.9908" ry="18"/>
<text text-anchor="middle" x="2002.84" y="-87.3" font-family="Times,serif" font-size="14.00">Attachment</text>
</g>
<!-- Author -->
<g id="node24" class="node"><title>Author</title>
<ellipse fill="none" stroke="black" cx="2667.84" cy="-345" rx="35.9954" ry="18"/>
<text text-anchor="middle" x="2667.84" y="-341.3" font-family="Times,serif" font-size="14.00">Author</text>
</g>
<!-- Category -->
<g id="node26" class="node"><title>Category</title>
<ellipse fill="none" stroke="black" cx="1942.84" cy="-345" rx="42.7926" ry="18"/>
<text text-anchor="middle" x="1942.84" y="-341.3" font-family="Times,serif" font-size="14.00">Category</text>
</g>
<!-- Category&#45;&gt;Page -->
<g id="edge21" class="edge"><title>Category&#45;&gt;Page</title>
<path fill="none" stroke="#cfdd19" d="M1942.84,-318.451C1942.84,-305.702 1942.84,-290.322 1942.84,-277.57"/>
<ellipse fill="none" stroke="#cfdd19" cx="1942.84" cy="-322.696" rx="4" ry="4"/>
<ellipse fill="#cfdd19" stroke="#cfdd19" cx="1942.84" cy="-273.227" rx="4" ry="4"/>
</g>
<!-- Category&#45;&gt;ReportCategory -->
<g id="edge22" class="edge"><title>Category&#45;&gt;ReportCategory</title>
<path fill="none" stroke="#34073b" d="M1917.01,-323.854C1908.83,-317.824 1899.63,-311.389 1890.84,-306 1859.84,-286.985 1836.88,-299.994 1817.84,-269 1810.06,-256.334 1814.79,-184.621 1822.84,-160 1827.88,-144.617 1837.16,-129.228 1845.82,-116.99"/>
<ellipse fill="none" stroke="#34073b" cx="1920.41" cy="-326.394" rx="4.00002" ry="4.00002"/>
<polygon fill="#34073b" stroke="#34073b" points="1846.01,-116.731 1855.57,-111.351 1848.98,-112.706 1851.94,-108.681 1851.94,-108.681 1851.94,-108.681 1848.98,-112.706 1848.32,-106.011 1846.01,-116.731 1846.01,-116.731"/>
</g>
<!-- Category&#45;&gt;Category -->
<g id="edge20" class="edge"><title>Category&#45;&gt;Category</title>
<path fill="none" stroke="#103cd6" d="M1986.09,-355.292C1996.25,-354.444 2003.74,-351.014 2003.74,-345 2003.74,-339.399 1997.24,-336.039 1988.14,-334.919"/>
<ellipse fill="none" stroke="#103cd6" cx="1981.89" cy="-355.366" rx="4" ry="4"/>
<polygon fill="#103cd6" stroke="#103cd6" points="1987.88,-334.91 1978.04,-330.067 1982.88,-334.737 1977.89,-334.564 1977.89,-334.564 1977.89,-334.564 1982.88,-334.737 1977.73,-339.061 1987.88,-334.91 1987.88,-334.91"/>
<text text-anchor="middle" x="2026.24" y="-341.3" font-family="Times,serif" font-size="14.00">children</text>
</g>
<!-- Category&#45;&gt;Report -->
<g id="edge23" class="edge"><title>Category&#45;&gt;Report</title>
<path fill="none" stroke="#d6875b" d="M1962.56,-319.504C1978.93,-295.972 1996.99,-260.092 1979.84,-233 1964.13,-208.168 1933.57,-194.532 1908.04,-187.177"/>
<polygon fill="#d6875b" stroke="#d6875b" points="1962.34,-319.8 1952.81,-325.22 1959.39,-323.837 1956.44,-327.875 1956.44,-327.875 1956.44,-327.875 1959.39,-323.837 1960.07,-330.529 1962.34,-319.8 1962.34,-319.8"/>
<polygon fill="#d6875b" stroke="#d6875b" points="1907.85,-187.128 1899.34,-180.218 1903.02,-185.848 1898.19,-184.568 1898.19,-184.568 1898.19,-184.568 1903.02,-185.848 1897.04,-188.919 1907.85,-187.128 1907.85,-187.128"/>
</g>
<!-- Report&#45;&gt;ReportRelation -->
<g id="edge26" class="edge"><title>Report&#45;&gt;ReportRelation</title>
<path fill="none" stroke="#8ff141" d="M1836.3,-160.145C1812.32,-146.467 1778.42,-127.13 1752.86,-112.547"/>
<ellipse fill="none" stroke="#8ff141" cx="1840.06" cy="-162.293" rx="4.00002" ry="4.00002"/>
<polygon fill="#8ff141" stroke="#8ff141" points="1752.54,-112.363 1746.08,-103.5 1748.2,-109.886 1743.85,-107.408 1743.85,-107.408 1743.85,-107.408 1748.2,-109.886 1741.62,-111.317 1752.54,-112.363 1752.54,-112.363"/>
</g>
<!-- Report&#45;&gt;ReportCategory -->
<g id="edge25" class="edge"><title>Report&#45;&gt;ReportCategory</title>
<path fill="none" stroke="#637415" d="M1865.84,-151.694C1865.84,-141.512 1865.84,-129.747 1865.84,-119.367"/>
<ellipse fill="none" stroke="#637415" cx="1865.84" cy="-155.799" rx="4" ry="4"/>
<polygon fill="#637415" stroke="#637415" points="1865.84,-119.175 1870.34,-109.175 1865.84,-114.175 1865.84,-109.175 1865.84,-109.175 1865.84,-109.175 1865.84,-114.175 1861.34,-109.175 1865.84,-119.175 1865.84,-119.175"/>
</g>
<!-- Report&#45;&gt;Attachment -->
<g id="edge24" class="edge"><title>Report&#45;&gt;Attachment</title>
<path fill="none" stroke="#5047a1" d="M1894.26,-159.367C1916.18,-145.767 1946.55,-126.927 1969.6,-112.628"/>
<ellipse fill="none" stroke="#5047a1" cx="1890.65" cy="-161.61" rx="4.00002" ry="4.00002"/>
<polygon fill="#5047a1" stroke="#5047a1" points="1969.85,-112.468 1980.72,-111.02 1974.1,-109.832 1978.35,-107.196 1978.35,-107.196 1978.35,-107.196 1974.1,-109.832 1975.98,-103.372 1969.85,-112.468 1969.85,-112.468"/>
</g>
</g>
</svg>
