<?xml version="1.0" encoding="UTF-8" standalone="no"?>
<!DOCTYPE svg PUBLIC "-//W3C//DTD SVG 1.1//EN"
 "http://www.w3.org/Graphics/SVG/1.1/DTD/svg11.dtd">
<!-- Generated by graphviz version 2.38.0 (20140413.2041)
 -->
<!-- Title: models_diagram Pages: 1 -->
<svg width="3473pt" height="319pt"
 viewBox="0.00 0.00 3473.12 319.00" xmlns="http://www.w3.org/2000/svg" xmlns:xlink="http://www.w3.org/1999/xlink">
<g id="graph0" class="graph" transform="scale(1 1) rotate(0) translate(4 315)">
<title>models_diagram</title>
<polygon fill="white" stroke="none" points="-4,4 -4,-315 3469.12,-315 3469.12,4 -4,4"/>
<!-- _diagram_info -->
<g id="node1" class="node"><title>_diagram_info</title>
<text text-anchor="start" x="1107.37" y="-296.6" font-family="Times,serif" font-size="13.00">Models diagram</text>
<text text-anchor="start" x="1107.37" y="-282.6" font-family="Times,serif" font-size="13.00">Date: Jun 11 2015 &#45; 10:24</text>
<text text-anchor="start" x="1107.37" y="-268.6" font-family="Times,serif" font-size="13.00">Migration version: 20150610163459</text>
<text text-anchor="start" x="1107.37" y="-254.6" font-family="Times,serif" font-size="13.00">Generated by RailRoady 1.3.0</text>
<text text-anchor="start" x="1107.37" y="-240.6" font-family="Times,serif" font-size="13.00">http://railroady.prestonlee.com</text>
</g>
<!-- IntermediaryCompany -->
<g id="node2" class="node"><title>IntermediaryCompany</title>
<ellipse fill="none" stroke="black" cx="781.373" cy="-178" rx="90.9839" ry="18"/>
<text text-anchor="middle" x="781.373" y="-174.3" font-family="Times,serif" font-size="14.00">IntermediaryCompany</text>
</g>
<!-- ShareholderIntermediary -->
<g id="node13" class="node"><title>ShareholderIntermediary</title>
<ellipse fill="none" stroke="black" cx="904.373" cy="-18" rx="98.5829" ry="18"/>
<text text-anchor="middle" x="904.373" y="-14.3" font-family="Times,serif" font-size="14.00">ShareholderIntermediary</text>
</g>
<!-- IntermediaryCompany&#45;&gt;ShareholderIntermediary -->
<g id="edge1" class="edge"><title>IntermediaryCompany&#45;&gt;ShareholderIntermediary</title>
<path fill="none" stroke="#7ffc5d" d="M799.551,-153.65C822.351,-124.361 861.294,-74.3374 884.752,-44.2041"/>
<ellipse fill="none" stroke="#7ffc5d" cx="796.993" cy="-156.935" rx="4.00002" ry="4.00002"/>
<polygon fill="#7ffc5d" stroke="#7ffc5d" points="884.789,-44.157 894.482,-39.0305 887.86,-40.2116 890.932,-36.2662 890.932,-36.2662 890.932,-36.2662 887.86,-40.2116 887.381,-33.5019 884.789,-44.157 884.789,-44.157"/>
</g>
<!-- ShareholderRelationship -->
<g id="node17" class="node"><title>ShareholderRelationship</title>
<ellipse fill="none" stroke="black" cx="1035.37" cy="-91" rx="97.4827" ry="18"/>
<text text-anchor="middle" x="1035.37" y="-87.3" font-family="Times,serif" font-size="14.00">ShareholderRelationship</text>
</g>
<!-- IntermediaryCompany&#45;&gt;ShareholderRelationship -->
<g id="edge2" class="edge"><title>IntermediaryCompany&#45;&gt;ShareholderRelationship</title>
<path fill="none" stroke="#299190" d="M835.146,-159.005C877.935,-144.686 937.57,-124.729 980.615,-110.325"/>
<polygon fill="#299190" stroke="#299190" points="835.099,-159.021 824.188,-157.927 830.358,-160.607 825.616,-162.194 825.616,-162.194 825.616,-162.194 830.358,-160.607 827.044,-166.462 835.099,-159.021 835.099,-159.021"/>
<polygon fill="#299190" stroke="#299190" points="980.873,-110.238 991.784,-111.332 985.614,-108.652 990.356,-107.065 990.356,-107.065 990.356,-107.065 985.614,-108.652 988.928,-102.797 980.873,-110.238 980.873,-110.238"/>
</g>
<!-- StockExchangeCountry -->
<g id="node3" class="node"><title>StockExchangeCountry</title>
<ellipse fill="none" stroke="black" cx="2509.37" cy="-272" rx="94.4839" ry="18"/>
<text text-anchor="middle" x="2509.37" y="-268.3" font-family="Times,serif" font-size="14.00">StockExchangeCountry</text>
</g>
<!-- Employee -->
<g id="node4" class="node"><title>Employee</title>
<ellipse fill="none" stroke="black" cx="1389.37" cy="-178" rx="46.5926" ry="18"/>
<text text-anchor="middle" x="1389.37" y="-174.3" font-family="Times,serif" font-size="14.00">Employee</text>
</g>
<!-- FlowsPayableUnderContract -->
<g id="node5" class="node"><title>FlowsPayableUnderContract</title>
<ellipse fill="none" stroke="black" cx="560.373" cy="-178" rx="112.38" ry="18"/>
<text text-anchor="middle" x="560.373" y="-174.3" font-family="Times,serif" font-size="14.00">FlowsPayableUnderContract</text>
</g>
<!-- Deposit -->
<g id="node6" class="node"><title>Deposit</title>
<ellipse fill="none" stroke="black" cx="391.373" cy="-178" rx="38.1938" ry="18"/>
<text text-anchor="middle" x="391.373" y="-174.3" font-family="Times,serif" font-size="14.00">Deposit</text>
</g>
<!-- DepositResource -->
<g id="node23" class="node"><title>DepositResource</title>
<ellipse fill="none" stroke="black" cx="391.373" cy="-91" rx="70.6878" ry="18"/>
<text text-anchor="middle" x="391.373" y="-87.3" font-family="Times,serif" font-size="14.00">DepositResource</text>
</g>
<!-- Deposit&#45;&gt;DepositResource -->
<g id="edge3" class="edge"><title>Deposit&#45;&gt;DepositResource</title>
<path fill="none" stroke="#5947e4" d="M428.59,-163.472C449.307,-155.569 471.504,-146.323 474.373,-142 478.059,-136.445 478.059,-132.555 474.373,-127 468.982,-118.876 461.295,-112.634 452.749,-107.837"/>
<ellipse fill="none" stroke="#5947e4" cx="424.806" cy="-164.9" rx="4.00001" ry="4.00001"/>
<polygon fill="#5947e4" stroke="#5947e4" points="452.57,-107.75 445.574,-99.305 448.081,-105.547 443.592,-103.345 443.592,-103.345 443.592,-103.345 448.081,-105.547 441.61,-107.385 452.57,-107.75 452.57,-107.75"/>
<text text-anchor="middle" x="521.873" y="-130.8" font-family="Times,serif" font-size="14.00">proven_reserves</text>
</g>
<!-- Deposit&#45;&gt;DepositResource -->
<g id="edge4" class="edge"><title>Deposit&#45;&gt;DepositResource</title>
<path fill="none" stroke="#063963" d="M427.382,-163.364C431.393,-162.11 435.447,-160.954 439.373,-160 467.926,-153.059 551.061,-164.147 570.373,-142 602.513,-105.142 533.855,-94.4011 472.486,-91.7719"/>
<ellipse fill="none" stroke="#063963" cx="423.565" cy="-164.62" rx="4.00001" ry="4.00001"/>
<polygon fill="#063963" stroke="#063963" points="472.317,-91.7659 462.486,-86.908 467.32,-91.5855 462.324,-91.4051 462.324,-91.4051 462.324,-91.4051 467.32,-91.5855 462.161,-95.9022 472.317,-91.7659 472.317,-91.7659"/>
<text text-anchor="middle" x="627.873" y="-130.8" font-family="Times,serif" font-size="14.00">probable_reserves</text>
</g>
<!-- Deposit&#45;&gt;DepositResource -->
<g id="edge5" class="edge"><title>Deposit&#45;&gt;DepositResource</title>
<path fill="none" stroke="#f07ccb" d="M427.164,-163.164C431.238,-161.937 435.366,-160.843 439.373,-160 465.759,-154.45 663.028,-161.76 681.373,-142 711.516,-109.532 567.72,-98.108 471.825,-94.1162"/>
<ellipse fill="none" stroke="#f07ccb" cx="423.248" cy="-164.428" rx="4.00001" ry="4.00001"/>
<polygon fill="#f07ccb" stroke="#f07ccb" points="471.536,-94.1049 461.722,-89.2124 466.54,-93.9069 461.544,-93.7088 461.544,-93.7088 461.544,-93.7088 466.54,-93.9069 461.366,-98.2053 471.536,-94.1049 471.536,-94.1049"/>
<text text-anchor="middle" x="724.373" y="-130.8" font-family="Times,serif" font-size="14.00">total_reserves</text>
</g>
<!-- Deposit&#45;&gt;DepositResource -->
<g id="edge6" class="edge"><title>Deposit&#45;&gt;DepositResource</title>
<path fill="none" stroke="#e18cf4" d="M344.819,-176.245C246.745,-174.17 26.011,-166.772 3.37298,-142 -1.12433,-137.079 -1.12433,-131.921 3.37298,-127 23.6774,-104.781 203.344,-96.5394 310.932,-93.5796"/>
<ellipse fill="none" stroke="#e18cf4" cx="349.074" cy="-176.331" rx="4" ry="4"/>
<polygon fill="#e18cf4" stroke="#e18cf4" points="311.115,-93.5748 321.23,-97.8078 316.113,-93.4421 321.111,-93.3094 321.111,-93.3094 321.111,-93.3094 316.113,-93.4421 320.992,-88.8109 311.115,-93.5748 311.115,-93.5748"/>
<text text-anchor="middle" x="58.873" y="-130.8" font-family="Times,serif" font-size="14.00">measured_resources</text>
</g>
<!-- Deposit&#45;&gt;DepositResource -->
<g id="edge7" class="edge"><title>Deposit&#45;&gt;DepositResource</title>
<path fill="none" stroke="#f477dd" d="M344.783,-177.564C278.946,-177.251 163.739,-172.249 137.373,-142 132.992,-136.974 132.992,-132.026 137.373,-127 159.549,-101.558 244.572,-93.9766 310.209,-92.0231"/>
<ellipse fill="none" stroke="#f477dd" cx="348.949" cy="-177.572" rx="4" ry="4"/>
<polygon fill="#f477dd" stroke="#f477dd" points="310.568,-92.0139 320.68,-96.2545 315.566,-91.8849 320.564,-91.756 320.564,-91.756 320.564,-91.756 315.566,-91.8849 320.448,-87.2575 310.568,-92.0139 310.568,-92.0139"/>
<text text-anchor="middle" x="191.373" y="-130.8" font-family="Times,serif" font-size="14.00">indicated_resources</text>
</g>
<!-- Deposit&#45;&gt;DepositResource -->
<g id="edge8" class="edge"><title>Deposit&#45;&gt;DepositResource</title>
<path fill="none" stroke="#fa2450" d="M347.252,-170.16C316.024,-164.313 278.045,-154.808 268.373,-142 250.724,-118.628 280.891,-106.139 315.758,-99.488"/>
<ellipse fill="none" stroke="#fa2450" cx="351.501" cy="-170.928" rx="4.00001" ry="4.00001"/>
<polygon fill="#fa2450" stroke="#fa2450" points="315.83,-99.4757 326.453,-102.196 320.756,-98.6191 325.682,-97.7626 325.682,-97.7626 325.682,-97.7626 320.756,-98.6191 324.911,-93.3291 315.83,-99.4757 315.83,-99.4757"/>
<text text-anchor="middle" x="318.873" y="-130.8" font-family="Times,serif" font-size="14.00">inferred_resources</text>
</g>
<!-- Deposit&#45;&gt;DepositResource -->
<g id="edge9" class="edge"><title>Deposit&#45;&gt;DepositResource</title>
<path fill="none" stroke="#7af4cc" d="M388.845,-151.709C388.326,-143.799 388.029,-135.039 388.373,-127 388.482,-124.441 388.637,-121.779 388.818,-119.118"/>
<ellipse fill="none" stroke="#7af4cc" cx="389.168" cy="-155.895" rx="4" ry="4"/>
<polygon fill="#7af4cc" stroke="#7af4cc" points="388.824,-119.04 394.101,-109.427 389.22,-114.055 389.615,-109.071 389.615,-109.071 389.615,-109.071 389.22,-114.055 385.13,-108.715 388.824,-119.04 388.824,-119.04"/>
<text text-anchor="middle" x="429.373" y="-130.8" font-family="Times,serif" font-size="14.00">total_resources</text>
</g>
<!-- DepositSource -->
<g id="node7" class="node"><title>DepositSource</title>
<ellipse fill="none" stroke="black" cx="2684.37" cy="-272" rx="62.2891" ry="18"/>
<text text-anchor="middle" x="2684.37" y="-268.3" font-family="Times,serif" font-size="14.00">DepositSource</text>
</g>
<!-- ProductionExport -->
<g id="node8" class="node"><title>ProductionExport</title>
<ellipse fill="none" stroke="black" cx="963.373" cy="-178" rx="73.387" ry="18"/>
<text text-anchor="middle" x="963.373" y="-174.3" font-family="Times,serif" font-size="14.00">ProductionExport</text>
</g>
<!-- TileLayer -->
<g id="node9" class="node"><title>TileLayer</title>
<ellipse fill="none" stroke="black" cx="2810.37" cy="-272" rx="45.4919" ry="18"/>
<text text-anchor="middle" x="2810.37" y="-268.3" font-family="Times,serif" font-size="14.00">TileLayer</text>
</g>
<!-- ReportRelation -->
<g id="node10" class="node"><title>ReportRelation</title>
<ellipse fill="none" stroke="black" cx="1641.37" cy="-18" rx="64.189" ry="18"/>
<text text-anchor="middle" x="1641.37" y="-14.3" font-family="Times,serif" font-size="14.00">ReportRelation</text>
</g>
<!-- Source -->
<g id="node11" class="node"><title>Source</title>
<ellipse fill="none" stroke="black" cx="1289.37" cy="-178" rx="35.194" ry="18"/>
<text text-anchor="middle" x="1289.37" y="-174.3" font-family="Times,serif" font-size="14.00">Source</text>
</g>
<!-- Report -->
<g id="node30" class="node"><title>Report</title>
<ellipse fill="none" stroke="black" cx="2190.37" cy="-91" rx="34.394" ry="18"/>
<text text-anchor="middle" x="2190.37" y="-87.3" font-family="Times,serif" font-size="14.00">Report</text>
</g>
<!-- Source&#45;&gt;Report -->
<g id="edge10" class="edge"><title>Source&#45;&gt;Report</title>
<path fill="none" stroke="#062297" d="M1322.71,-162.975C1326.26,-161.825 1329.86,-160.799 1333.37,-160 1490.59,-124.193 1992.9,-100.389 2145.79,-93.834"/>
<ellipse fill="none" stroke="#062297" cx="1318.82" cy="-164.335" rx="4.00001" ry="4.00001"/>
<polygon fill="#062297" stroke="#062297" points="2146.19,-93.8169 2156.38,-97.8878 2151.19,-93.6044 2156.19,-93.3919 2156.19,-93.3919 2156.19,-93.3919 2151.19,-93.6044 2155.99,-88.896 2146.19,-93.8169 2146.19,-93.8169"/>
</g>
<!-- MineralResource -->
<g id="node12" class="node"><title>MineralResource</title>
<ellipse fill="none" stroke="black" cx="2945.37" cy="-272" rx="71.4873" ry="18"/>
<text text-anchor="middle" x="2945.37" y="-268.3" font-family="Times,serif" font-size="14.00">MineralResource</text>
</g>
<!-- DrcCompany -->
<g id="node14" class="node"><title>DrcCompany</title>
<ellipse fill="none" stroke="black" cx="1389.37" cy="-272" rx="58.4896" ry="18"/>
<text text-anchor="middle" x="1389.37" y="-268.3" font-family="Times,serif" font-size="14.00">DrcCompany</text>
</g>
<!-- DrcCompany&#45;&gt;Employee -->
<g id="edge20" class="edge"><title>DrcCompany&#45;&gt;Employee</title>
<path fill="none" stroke="#10e919" d="M1389.37,-245.451C1389.37,-233.315 1389.37,-218.795 1389.37,-206.427"/>
<ellipse fill="none" stroke="#10e919" cx="1389.37" cy="-249.696" rx="4" ry="4"/>
<polygon fill="#10e919" stroke="#10e919" points="1389.37,-206.227 1393.87,-196.227 1389.37,-201.227 1389.37,-196.227 1389.37,-196.227 1389.37,-196.227 1389.37,-201.227 1384.87,-196.227 1389.37,-206.227 1389.37,-206.227"/>
</g>
<!-- DrcCompany&#45;&gt;FlowsPayableUnderContract -->
<g id="edge21" class="edge"><title>DrcCompany&#45;&gt;FlowsPayableUnderContract</title>
<path fill="none" stroke="#b2667e" d="M1360.78,-250.948C1349.36,-243.99 1335.76,-236.947 1322.37,-233 1305.27,-227.955 699.122,-197.756 681.373,-196 670.138,-194.888 658.346,-193.504 646.712,-192.009"/>
<ellipse fill="none" stroke="#b2667e" cx="1364.21" cy="-253.108" rx="4.00002" ry="4.00002"/>
<ellipse fill="#b2667e" stroke="#b2667e" cx="642.659" cy="-191.478" rx="4.00001" ry="4.00001"/>
</g>
<!-- DrcCompany&#45;&gt;Deposit -->
<g id="edge19" class="edge"><title>DrcCompany&#45;&gt;Deposit</title>
<path fill="none" stroke="#3d1584" d="M1360.81,-250.837C1349.4,-243.864 1335.79,-236.841 1322.37,-233 1275.17,-219.483 487.578,-205.327 439.373,-196 435.927,-195.333 432.395,-194.464 428.887,-193.472"/>
<ellipse fill="none" stroke="#3d1584" cx="1364.24" cy="-253.004" rx="4.00002" ry="4.00002"/>
<polygon fill="#3d1584" stroke="#3d1584" points="428.695,-193.412 420.504,-186.121 423.925,-191.913 419.155,-190.415 419.155,-190.415 419.155,-190.415 423.925,-191.913 417.806,-194.708 428.695,-193.412 428.695,-193.412"/>
</g>
<!-- DrcCompany&#45;&gt;ProductionExport -->
<g id="edge11" class="edge"><title>DrcCompany&#45;&gt;ProductionExport</title>
<path fill="none" stroke="#be3025" d="M1360.76,-251.008C1349.34,-244.056 1335.74,-237.003 1322.37,-233 1206.31,-198.24 1168.36,-242.527 1050.37,-215 1034.44,-211.283 1017.67,-204.971 1003.15,-198.66"/>
<ellipse fill="none" stroke="#be3025" cx="1364.19" cy="-253.164" rx="4.00002" ry="4.00002"/>
<polygon fill="#be3025" stroke="#be3025" points="1003.09,-198.633 995.808,-190.434 998.528,-196.587 993.966,-194.54 993.966,-194.54 993.966,-194.54 998.528,-196.587 992.125,-198.646 1003.09,-198.633 1003.09,-198.633"/>
</g>
<!-- DrcCompany&#45;&gt;ReportRelation -->
<g id="edge15" class="edge"><title>DrcCompany&#45;&gt;ReportRelation</title>
<path fill="none" stroke="#cd753d" d="M1356.31,-251.656C1345.57,-245.533 1333.54,-238.842 1322.37,-233 1288.73,-215.402 1265.59,-228.14 1245.37,-196 1236.85,-182.456 1236.15,-173.074 1245.37,-160 1318.36,-56.5388 1474.3,-28.5511 1567.23,-21.2573"/>
<ellipse fill="none" stroke="#cd753d" cx="1360.04" cy="-253.797" rx="4.00002" ry="4.00002"/>
<polygon fill="#cd753d" stroke="#cd753d" points="1567.44,-21.2426 1577.74,-25.0097 1572.43,-20.882 1577.41,-20.5214 1577.41,-20.5214 1577.41,-20.5214 1572.43,-20.882 1577.09,-16.0331 1567.44,-21.2426 1567.44,-21.2426"/>
</g>
<!-- DrcCompany&#45;&gt;ShareholderRelationship -->
<g id="edge13" class="edge"><title>DrcCompany&#45;&gt;ShareholderRelationship</title>
<path fill="none" stroke="#2b5d4c" d="M1359.43,-250.937C1348.22,-244.274 1335.12,-237.433 1322.37,-233 1220.85,-197.686 1169.2,-260.706 1083.37,-196 1058.75,-177.438 1046.35,-143.209 1040.39,-119.101"/>
<ellipse fill="none" stroke="#2b5d4c" cx="1363.08" cy="-253.174" rx="4.00002" ry="4.00002"/>
<polygon fill="#2b5d4c" stroke="#2b5d4c" points="1040.35,-118.903 1042.54,-108.159 1039.25,-114.025 1038.15,-109.146 1038.15,-109.146 1038.15,-109.146 1039.25,-114.025 1033.76,-110.134 1040.35,-118.903 1040.35,-118.903"/>
</g>
<!-- Page -->
<g id="node18" class="node"><title>Page</title>
<ellipse fill="none" stroke="black" cx="2186.37" cy="-178" rx="27.8951" ry="18"/>
<text text-anchor="middle" x="2186.37" y="-174.3" font-family="Times,serif" font-size="14.00">Page</text>
</g>
<!-- DrcCompany&#45;&gt;Page -->
<g id="edge23" class="edge"><title>DrcCompany&#45;&gt;Page</title>
<path fill="none" stroke="#ad4ece" d="M1456.43,-271.768C1590.52,-271.703 1900.24,-263.484 2149.37,-196 2152.12,-195.257 2154.91,-194.327 2157.67,-193.289"/>
<ellipse fill="none" stroke="#ad4ece" cx="1452.24" cy="-271.765" rx="4" ry="4"/>
<ellipse fill="#ad4ece" stroke="#ad4ece" cx="2161.61" cy="-191.664" rx="4.00001" ry="4.00001"/>
</g>
<!-- Shareholder -->
<g id="node19" class="node"><title>Shareholder</title>
<ellipse fill="none" stroke="black" cx="1145.37" cy="-178" rx="53.0913" ry="18"/>
<text text-anchor="middle" x="1145.37" y="-174.3" font-family="Times,serif" font-size="14.00">Shareholder</text>
</g>
<!-- DrcCompany&#45;&gt;Shareholder -->
<g id="edge14" class="edge"><title>DrcCompany&#45;&gt;Shareholder</title>
<path fill="none" stroke="#85fbbf" d="M1357.79,-250.046C1346.95,-243.694 1334.49,-237.274 1322.37,-233 1275.65,-216.523 1259.28,-230.941 1212.37,-215 1200.67,-211.023 1188.57,-205.143 1177.93,-199.282"/>
<polygon fill="#85fbbf" stroke="#85fbbf" points="1357.92,-250.126 1364.14,-259.163 1362.2,-252.722 1366.47,-255.317 1366.47,-255.317 1366.47,-255.317 1362.2,-252.722 1368.81,-251.471 1357.92,-250.126 1357.92,-250.126"/>
<polygon fill="#85fbbf" stroke="#85fbbf" points="1177.68,-199.142 1171.23,-190.277 1173.34,-196.664 1169,-194.186 1169,-194.186 1169,-194.186 1173.34,-196.664 1166.77,-198.094 1177.68,-199.142 1177.68,-199.142"/>
</g>
<!-- SocialProject -->
<g id="node20" class="node"><title>SocialProject</title>
<ellipse fill="none" stroke="black" cx="1512.37" cy="-178" rx="57.6901" ry="18"/>
<text text-anchor="middle" x="1512.37" y="-174.3" font-family="Times,serif" font-size="14.00">SocialProject</text>
</g>
<!-- DrcCompany&#45;&gt;SocialProject -->
<g id="edge17" class="edge"><title>DrcCompany&#45;&gt;SocialProject</title>
<path fill="none" stroke="#57168b" d="M1417.17,-250.206C1436.78,-235.54 1463,-215.928 1482.96,-201"/>
<ellipse fill="none" stroke="#57168b" cx="1413.72" cy="-252.789" rx="4.00002" ry="4.00002"/>
<polygon fill="#57168b" stroke="#57168b" points="1483.08,-200.906 1493.79,-198.52 1487.09,-197.912 1491.09,-194.917 1491.09,-194.917 1491.09,-194.917 1487.09,-197.912 1488.4,-191.313 1483.08,-200.906 1483.08,-200.906"/>
</g>
<!-- TaxObligation -->
<g id="node22" class="node"><title>TaxObligation</title>
<ellipse fill="none" stroke="black" cx="1650.37" cy="-178" rx="61.99" ry="18"/>
<text text-anchor="middle" x="1650.37" y="-174.3" font-family="Times,serif" font-size="14.00">TaxObligation</text>
</g>
<!-- DrcCompany&#45;&gt;TaxObligation -->
<g id="edge12" class="edge"><title>DrcCompany&#45;&gt;TaxObligation</title>
<path fill="none" stroke="#465c0b" d="M1434.01,-255.266C1481.04,-238.688 1554.82,-212.681 1602.9,-195.735"/>
<ellipse fill="none" stroke="#465c0b" cx="1429.99" cy="-256.684" rx="4.00001" ry="4.00001"/>
<polygon fill="#465c0b" stroke="#465c0b" points="1603.02,-195.692 1613.94,-196.612 1607.73,-194.03 1612.45,-192.368 1612.45,-192.368 1612.45,-192.368 1607.73,-194.03 1610.95,-188.124 1603.02,-195.692 1603.02,-195.692"/>
</g>
<!-- EnvAndSocialObligation -->
<g id="node25" class="node"><title>EnvAndSocialObligation</title>
<ellipse fill="none" stroke="black" cx="1829.37" cy="-178" rx="99.3824" ry="18"/>
<text text-anchor="middle" x="1829.37" y="-174.3" font-family="Times,serif" font-size="14.00">EnvAndSocialObligation</text>
</g>
<!-- DrcCompany&#45;&gt;EnvAndSocialObligation -->
<g id="edge22" class="edge"><title>DrcCompany&#45;&gt;EnvAndSocialObligation</title>
<path fill="none" stroke="#b29a5e" d="M1444.66,-259.439C1524.32,-242.784 1671.36,-212.039 1758.77,-193.763"/>
<ellipse fill="none" stroke="#b29a5e" cx="1440.38" cy="-260.336" rx="4.00001" ry="4.00001"/>
<ellipse fill="#b29a5e" stroke="#b29a5e" cx="1762.86" cy="-192.907" rx="4.00001" ry="4.00001"/>
</g>
<!-- ProcessingInfrastructure -->
<g id="node28" class="node"><title>ProcessingInfrastructure</title>
<ellipse fill="none" stroke="black" cx="2043.37" cy="-178" rx="96.6831" ry="18"/>
<text text-anchor="middle" x="2043.37" y="-174.3" font-family="Times,serif" font-size="14.00">ProcessingInfrastructure</text>
</g>
<!-- DrcCompany&#45;&gt;ProcessingInfrastructure -->
<g id="edge18" class="edge"><title>DrcCompany&#45;&gt;ProcessingInfrastructure</title>
<path fill="none" stroke="#f6c8b1" d="M1450.32,-263.125C1551.55,-249.938 1760.74,-222.248 1937.37,-196 1945.72,-194.76 1954.43,-193.426 1963.12,-192.071"/>
<ellipse fill="none" stroke="#f6c8b1" cx="1446.3" cy="-263.648" rx="4.00001" ry="4.00001"/>
<polygon fill="#f6c8b1" stroke="#f6c8b1" points="1963.4,-192.027 1973.97,-194.921 1968.34,-191.251 1973.28,-190.475 1973.28,-190.475 1973.28,-190.475 1968.34,-191.251 1972.58,-186.03 1963.4,-192.027 1963.4,-192.027"/>
</g>
<!-- DrcCompany&#45;&gt;Report -->
<g id="edge16" class="edge"><title>DrcCompany&#45;&gt;Report</title>
<path fill="none" stroke="#05be3b" d="M1457.93,-270.146C1648.43,-267.051 2173.48,-253.348 2223.37,-196 2243,-173.443 2225.88,-139.168 2209.86,-116.198"/>
<polygon fill="#05be3b" stroke="#05be3b" points="1457.76,-270.148 1447.69,-265.807 1452.76,-270.227 1447.76,-270.306 1447.76,-270.306 1447.76,-270.306 1452.76,-270.227 1447.83,-274.806 1457.76,-270.148 1457.76,-270.148"/>
<polygon fill="#05be3b" stroke="#05be3b" points="2209.77,-116.065 2207.49,-105.338 2206.81,-112.031 2203.86,-107.996 2203.86,-107.996 2203.86,-107.996 2206.81,-112.031 2200.23,-110.655 2209.77,-116.065 2209.77,-116.065"/>
</g>
<!-- StockExchange -->
<g id="node15" class="node"><title>StockExchange</title>
<ellipse fill="none" stroke="black" cx="3100.37" cy="-272" rx="65.7887" ry="18"/>
<text text-anchor="middle" x="3100.37" y="-268.3" font-family="Times,serif" font-size="14.00">StockExchange</text>
</g>
<!-- PageCategory -->
<g id="node16" class="node"><title>PageCategory</title>
<ellipse fill="none" stroke="black" cx="3243.37" cy="-272" rx="59.5901" ry="18"/>
<text text-anchor="middle" x="3243.37" y="-268.3" font-family="Times,serif" font-size="14.00">PageCategory</text>
</g>
<!-- ShareholderRelationship&#45;&gt;ShareholderIntermediary -->
<g id="edge24" class="edge"><title>ShareholderRelationship&#45;&gt;ShareholderIntermediary</title>
<path fill="none" stroke="#a304c8" d="M998.091,-69.7938C981.036,-60.5502 960.825,-49.5961 943.546,-40.2313"/>
<ellipse fill="none" stroke="#a304c8" cx="1001.8" cy="-71.8051" rx="4.00002" ry="4.00002"/>
<polygon fill="#a304c8" stroke="#a304c8" points="943.079,-39.9781 936.431,-31.2567 938.683,-37.5956 934.287,-35.213 934.287,-35.213 934.287,-35.213 938.683,-37.5956 932.143,-39.1693 943.079,-39.9781 943.079,-39.9781"/>
</g>
<!-- Page&#45;&gt;Report -->
<g id="edge25" class="edge"><title>Page&#45;&gt;Report</title>
<path fill="none" stroke="#a242d7" d="M2187.66,-149.734C2188.12,-139.956 2188.63,-128.938 2189.09,-119.169"/>
<polygon fill="#a242d7" stroke="#a242d7" points="2187.65,-149.81 2182.69,-159.587 2187.42,-154.805 2187.18,-159.799 2187.18,-159.799 2187.18,-159.799 2187.42,-154.805 2191.68,-160.011 2187.65,-149.81 2187.65,-149.81"/>
<polygon fill="#a242d7" stroke="#a242d7" points="2189.09,-119.164 2194.06,-109.387 2189.33,-114.17 2189.56,-109.175 2189.56,-109.175 2189.56,-109.175 2189.33,-114.17 2185.07,-108.964 2189.09,-119.164 2189.09,-119.164"/>
</g>
<!-- Shareholder&#45;&gt;ShareholderRelationship -->
<g id="edge26" class="edge"><title>Shareholder&#45;&gt;ShareholderRelationship</title>
<path fill="none" stroke="#0997cb" d="M1118.26,-156.048C1102.13,-143.585 1081.65,-127.761 1065.09,-114.96"/>
<ellipse fill="none" stroke="#0997cb" cx="1121.78" cy="-158.766" rx="4.00002" ry="4.00002"/>
<polygon fill="#0997cb" stroke="#0997cb" points="1064.74,-114.689 1059.57,-105.014 1060.78,-111.632 1056.82,-108.575 1056.82,-108.575 1056.82,-108.575 1060.78,-111.632 1054.07,-112.136 1064.74,-114.689 1064.74,-114.689"/>
</g>
<!-- Admin -->
<g id="node21" class="node"><title>Admin</title>
<polygon fill="none" stroke="black" stroke-dasharray="1,5" points="3375.87,-290 3320.87,-290 3320.87,-254 3375.87,-254 3375.87,-290"/>
<text text-anchor="middle" x="3348.37" y="-268.3" font-family="Times,serif" font-size="14.00">Admin</text>
</g>
<!-- ReportCategory -->
<g id="node24" class="node"><title>ReportCategory</title>
<ellipse fill="none" stroke="black" cx="2327.37" cy="-18" rx="66.8882" ry="18"/>
<text text-anchor="middle" x="2327.37" y="-14.3" font-family="Times,serif" font-size="14.00">ReportCategory</text>
</g>
<!-- Attachment -->
<g id="node26" class="node"><title>Attachment</title>
<ellipse fill="none" stroke="black" cx="2190.37" cy="-18" rx="51.9908" ry="18"/>
<text text-anchor="middle" x="2190.37" y="-14.3" font-family="Times,serif" font-size="14.00">Attachment</text>
</g>
<!-- Author -->
<g id="node27" class="node"><title>Author</title>
<ellipse fill="none" stroke="black" cx="3429.37" cy="-272" rx="35.9954" ry="18"/>
<text text-anchor="middle" x="3429.37" y="-268.3" font-family="Times,serif" font-size="14.00">Author</text>
</g>
<!-- Category -->
<g id="node29" class="node"><title>Category</title>
<ellipse fill="none" stroke="black" cx="2291.37" cy="-272" rx="42.7926" ry="18"/>
<text text-anchor="middle" x="2291.37" y="-268.3" font-family="Times,serif" font-size="14.00">Category</text>
</g>
<!-- Category&#45;&gt;Page -->
<g id="edge28" class="edge"><title>Category&#45;&gt;Page</title>
<path fill="none" stroke="#6b2731" d="M2267.37,-249.972C2249.58,-234.378 2225.51,-213.288 2208.24,-198.158"/>
<ellipse fill="none" stroke="#6b2731" cx="2270.55" cy="-252.757" rx="4.00002" ry="4.00002"/>
<ellipse fill="#6b2731" stroke="#6b2731" cx="2205.22" cy="-195.511" rx="4.00002" ry="4.00002"/>
</g>
<!-- Category&#45;&gt;ReportCategory -->
<g id="edge29" class="edge"><title>Category&#45;&gt;ReportCategory</title>
<path fill="none" stroke="#1deff5" d="M2296.68,-245.875C2298.62,-236.244 2300.73,-225.137 2302.37,-215 2312.07,-155.054 2320.31,-84.2906 2324.47,-46.3355"/>
<ellipse fill="none" stroke="#1deff5" cx="2295.84" cy="-249.978" rx="4.00001" ry="4.00001"/>
<polygon fill="#1deff5" stroke="#1deff5" points="2324.5,-46.0383 2330.06,-36.5818 2325.04,-41.0675 2325.58,-36.0966 2325.58,-36.0966 2325.58,-36.0966 2325.04,-41.0675 2321.11,-35.6114 2324.5,-46.0383 2324.5,-46.0383"/>
</g>
<!-- Category&#45;&gt;Category -->
<g id="edge27" class="edge"><title>Category&#45;&gt;Category</title>
<path fill="none" stroke="#47f8b4" d="M2334.62,-282.292C2344.78,-281.444 2352.27,-278.014 2352.27,-272 2352.27,-266.399 2345.77,-263.039 2336.67,-261.919"/>
<ellipse fill="none" stroke="#47f8b4" cx="2330.42" cy="-282.366" rx="4" ry="4"/>
<polygon fill="#47f8b4" stroke="#47f8b4" points="2336.41,-261.91 2326.57,-257.067 2331.41,-261.737 2326.42,-261.564 2326.42,-261.564 2326.42,-261.564 2331.41,-261.737 2326.26,-266.061 2336.41,-261.91 2336.41,-261.91"/>
<text text-anchor="middle" x="2374.77" y="-268.3" font-family="Times,serif" font-size="14.00">children</text>
</g>
<!-- Category&#45;&gt;Report -->
<g id="edge30" class="edge"><title>Category&#45;&gt;Report</title>
<path fill="none" stroke="#67d705" d="M2291.22,-243.844C2289.7,-212.581 2282.93,-161.159 2256.37,-127 2249.11,-117.655 2238.63,-110.524 2228.16,-105.218"/>
<polygon fill="#67d705" stroke="#67d705" points="2291.22,-244.006 2287.06,-254.152 2291.39,-249.003 2291.56,-254 2291.56,-254 2291.56,-254 2291.39,-249.003 2296.06,-253.848 2291.22,-244.006 2291.22,-244.006"/>
<polygon fill="#67d705" stroke="#67d705" points="2228.13,-105.2 2220.93,-96.9267 2223.58,-103.107 2219.04,-101.013 2219.04,-101.013 2219.04,-101.013 2223.58,-103.107 2217.16,-105.1 2228.13,-105.2 2228.13,-105.2"/>
</g>
<!-- Report&#45;&gt;ReportRelation -->
<g id="edge33" class="edge"><title>Report&#45;&gt;ReportRelation</title>
<path fill="none" stroke="#300195" d="M2149.17,-84.6715C2055.09,-72.505 1823.76,-42.5874 1708.66,-27.7025"/>
<ellipse fill="none" stroke="#300195" cx="2153.3" cy="-85.2054" rx="4.00001" ry="4.00001"/>
<polygon fill="#300195" stroke="#300195" points="1708.48,-27.6794 1699.14,-21.9339 1703.53,-27.0381 1698.57,-26.3967 1698.57,-26.3967 1698.57,-26.3967 1703.53,-27.0381 1697.99,-30.8596 1708.48,-27.6794 1708.48,-27.6794"/>
</g>
<!-- Report&#45;&gt;ReportCategory -->
<g id="edge32" class="edge"><title>Report&#45;&gt;ReportCategory</title>
<path fill="none" stroke="#6a67cb" d="M2221.07,-74.091C2241.08,-63.7212 2267.35,-50.1043 2288.78,-39.003"/>
<ellipse fill="none" stroke="#6a67cb" cx="2217.48" cy="-75.9541" rx="4.00002" ry="4.00002"/>
<polygon fill="#6a67cb" stroke="#6a67cb" points="2289.05,-38.8599 2300,-38.2539 2293.49,-36.5592 2297.93,-34.2585 2297.93,-34.2585 2297.93,-34.2585 2293.49,-36.5592 2295.86,-30.2632 2289.05,-38.8599 2289.05,-38.8599"/>
</g>
<!-- Report&#45;&gt;Attachment -->
<g id="edge31" class="edge"><title>Report&#45;&gt;Attachment</title>
<path fill="none" stroke="#3ee5ad" d="M2190.37,-64.791C2190.37,-58.832 2190.37,-52.4496 2190.37,-46.3988"/>
<ellipse fill="none" stroke="#3ee5ad" cx="2190.37" cy="-68.8129" rx="4" ry="4"/>
<polygon fill="#3ee5ad" stroke="#3ee5ad" points="2190.37,-46.0288 2194.87,-36.0288 2190.37,-41.0288 2190.37,-36.0288 2190.37,-36.0288 2190.37,-36.0288 2190.37,-41.0288 2185.87,-36.0289 2190.37,-46.0288 2190.37,-46.0288"/>
</g>
</g>
</svg>
